<mxfile host="Electron" modified="2023-12-25T17:38:44.122Z" agent="Mozilla/5.0 (Windows NT 10.0; Win64; x64) AppleWebKit/537.36 (KHTML, like Gecko) draw.io/22.1.11 Chrome/114.0.5735.289 Electron/25.9.8 Safari/537.36" etag="EGJ_PK-hQlpZLVtephK2" version="22.1.11" type="device">
  <diagram id="C5RBs43oDa-KdzZeNtuy" name="Page-1">
    <mxGraphModel dx="1050" dy="629" grid="1" gridSize="10" guides="1" tooltips="1" connect="1" arrows="1" fold="1" page="1" pageScale="1" pageWidth="827" pageHeight="1169" background="none" math="0" shadow="0">
      <root>
        <mxCell id="WIyWlLk6GJQsqaUBKTNV-0" />
        <mxCell id="WIyWlLk6GJQsqaUBKTNV-1" parent="WIyWlLk6GJQsqaUBKTNV-0" />
        <mxCell id="eguZcOIIzk-ZtP4Al-tq-109" style="edgeStyle=orthogonalEdgeStyle;rounded=0;orthogonalLoop=1;jettySize=auto;html=1;exitX=1;exitY=0.5;exitDx=0;exitDy=0;entryX=0;entryY=0.5;entryDx=0;entryDy=0;endArrow=none;endFill=0;" parent="WIyWlLk6GJQsqaUBKTNV-1" edge="1">
          <mxGeometry relative="1" as="geometry">
            <Array as="points">
              <mxPoint x="470" y="2265" />
              <mxPoint x="470" y="2750" />
              <mxPoint x="90" y="2750" />
              <mxPoint x="90" y="2195" />
            </Array>
            <mxPoint x="260" y="2195" as="targetPoint" />
          </mxGeometry>
        </mxCell>
        <mxCell id="eguZcOIIzk-ZtP4Al-tq-108" style="edgeStyle=orthogonalEdgeStyle;rounded=0;orthogonalLoop=1;jettySize=auto;html=1;exitX=1;exitY=0.5;exitDx=0;exitDy=0;entryX=0;entryY=0.5;entryDx=0;entryDy=0;endArrow=none;endFill=0;" parent="WIyWlLk6GJQsqaUBKTNV-1" edge="1">
          <mxGeometry relative="1" as="geometry">
            <mxPoint x="260" y="2265" as="targetPoint" />
            <Array as="points">
              <mxPoint x="420" y="2335" />
              <mxPoint x="420" y="2740" />
              <mxPoint x="170" y="2740" />
              <mxPoint x="170" y="2265" />
            </Array>
          </mxGeometry>
        </mxCell>
        <mxCell id="SrXDkedbZhOvb3IbywFJ-0" style="edgeStyle=orthogonalEdgeStyle;rounded=0;orthogonalLoop=1;jettySize=auto;html=1;exitX=1;exitY=0.5;exitDx=0;exitDy=0;endArrow=none;endFill=0;" parent="WIyWlLk6GJQsqaUBKTNV-1" edge="1">
          <mxGeometry relative="1" as="geometry">
            <Array as="points">
              <mxPoint x="1110" y="540" />
              <mxPoint x="1110" y="680" />
              <mxPoint x="1030" y="680" />
            </Array>
            <mxPoint x="1090" y="540" as="sourcePoint" />
          </mxGeometry>
        </mxCell>
        <mxCell id="SrXDkedbZhOvb3IbywFJ-1" style="edgeStyle=orthogonalEdgeStyle;rounded=0;orthogonalLoop=1;jettySize=auto;html=1;exitX=1;exitY=0.5;exitDx=0;exitDy=0;endArrow=none;endFill=0;" parent="WIyWlLk6GJQsqaUBKTNV-1" edge="1">
          <mxGeometry relative="1" as="geometry">
            <Array as="points">
              <mxPoint x="1250" y="1080" />
              <mxPoint x="1250" y="1450" />
              <mxPoint x="1015" y="1450" />
            </Array>
            <mxPoint x="1080" y="1080" as="sourcePoint" />
          </mxGeometry>
        </mxCell>
        <mxCell id="SrXDkedbZhOvb3IbywFJ-2" style="edgeStyle=orthogonalEdgeStyle;rounded=0;orthogonalLoop=1;jettySize=auto;html=1;exitX=1;exitY=0.5;exitDx=0;exitDy=0;entryX=0;entryY=0.5;entryDx=0;entryDy=0;endArrow=none;endFill=0;" parent="WIyWlLk6GJQsqaUBKTNV-1" edge="1">
          <mxGeometry relative="1" as="geometry">
            <Array as="points">
              <mxPoint x="1100" y="1250" />
              <mxPoint x="1100" y="1430" />
              <mxPoint x="840" y="1430" />
              <mxPoint x="840" y="1080" />
            </Array>
            <mxPoint x="960" y="1080" as="targetPoint" />
          </mxGeometry>
        </mxCell>
        <mxCell id="SrXDkedbZhOvb3IbywFJ-3" style="edgeStyle=orthogonalEdgeStyle;rounded=0;orthogonalLoop=1;jettySize=auto;html=1;exitX=0.5;exitY=1;exitDx=0;exitDy=0;entryX=0;entryY=0.5;entryDx=0;entryDy=0;endArrow=none;endFill=0;" parent="WIyWlLk6GJQsqaUBKTNV-1" edge="1">
          <mxGeometry relative="1" as="geometry">
            <Array as="points">
              <mxPoint x="1018" y="1430" />
              <mxPoint x="840" y="1430" />
              <mxPoint x="840" y="1080" />
            </Array>
            <mxPoint x="960" y="1080" as="targetPoint" />
          </mxGeometry>
        </mxCell>
        <mxCell id="SrXDkedbZhOvb3IbywFJ-4" style="edgeStyle=orthogonalEdgeStyle;rounded=0;orthogonalLoop=1;jettySize=auto;html=1;exitX=1;exitY=0.5;exitDx=0;exitDy=0;endArrow=none;endFill=0;" parent="WIyWlLk6GJQsqaUBKTNV-1" edge="1">
          <mxGeometry relative="1" as="geometry">
            <Array as="points">
              <mxPoint x="1170" y="1510" />
              <mxPoint x="1170" y="1750" />
              <mxPoint x="1008" y="1750" />
            </Array>
            <mxPoint x="1077.5" y="1510" as="sourcePoint" />
          </mxGeometry>
        </mxCell>
        <mxCell id="iqlw-UNt_izefoMJamtQ-0" style="edgeStyle=orthogonalEdgeStyle;rounded=0;orthogonalLoop=1;jettySize=auto;html=1;exitX=1;exitY=0.5;exitDx=0;exitDy=0;endArrow=none;endFill=0;" parent="WIyWlLk6GJQsqaUBKTNV-1" edge="1">
          <mxGeometry relative="1" as="geometry">
            <Array as="points">
              <mxPoint x="1290" y="550" />
              <mxPoint x="1290" y="1119.9999999999998" />
              <mxPoint x="1045" y="1119.9999999999998" />
            </Array>
            <mxPoint x="1110.62" y="550" as="sourcePoint" />
          </mxGeometry>
        </mxCell>
        <mxCell id="iqlw-UNt_izefoMJamtQ-13" style="edgeStyle=orthogonalEdgeStyle;rounded=0;orthogonalLoop=1;jettySize=auto;html=1;exitX=1;exitY=0.5;exitDx=0;exitDy=0;endArrow=none;endFill=0;" parent="WIyWlLk6GJQsqaUBKTNV-1" edge="1">
          <mxGeometry relative="1" as="geometry">
            <Array as="points">
              <mxPoint x="1150" y="500" />
              <mxPoint x="1150" y="1070.0000000000002" />
              <mxPoint x="905" y="1070.0000000000002" />
            </Array>
            <mxPoint x="970.6199999999999" y="500" as="sourcePoint" />
          </mxGeometry>
        </mxCell>
        <mxCell id="iqlw-UNt_izefoMJamtQ-48" style="edgeStyle=orthogonalEdgeStyle;rounded=0;orthogonalLoop=1;jettySize=auto;html=1;exitX=1;exitY=0.5;exitDx=0;exitDy=0;entryX=0;entryY=0.5;entryDx=0;entryDy=0;endArrow=none;endFill=0;" parent="WIyWlLk6GJQsqaUBKTNV-1" edge="1">
          <mxGeometry relative="1" as="geometry">
            <Array as="points">
              <mxPoint x="1380" y="2785" />
              <mxPoint x="1380" y="3270" />
              <mxPoint x="1000" y="3270" />
              <mxPoint x="1000" y="2715" />
            </Array>
            <mxPoint x="1170" y="2715" as="targetPoint" />
          </mxGeometry>
        </mxCell>
        <mxCell id="iqlw-UNt_izefoMJamtQ-88" style="edgeStyle=orthogonalEdgeStyle;rounded=0;orthogonalLoop=1;jettySize=auto;html=1;exitX=1;exitY=0.5;exitDx=0;exitDy=0;endArrow=none;endFill=0;" parent="WIyWlLk6GJQsqaUBKTNV-1" edge="1">
          <mxGeometry relative="1" as="geometry">
            <Array as="points">
              <mxPoint x="2020" y="1060" />
              <mxPoint x="2020" y="1200" />
              <mxPoint x="1940" y="1200" />
            </Array>
            <mxPoint x="2000" y="1060" as="sourcePoint" />
          </mxGeometry>
        </mxCell>
        <mxCell id="iqlw-UNt_izefoMJamtQ-89" style="edgeStyle=orthogonalEdgeStyle;rounded=0;orthogonalLoop=1;jettySize=auto;html=1;exitX=1;exitY=0.5;exitDx=0;exitDy=0;endArrow=none;endFill=0;" parent="WIyWlLk6GJQsqaUBKTNV-1" edge="1">
          <mxGeometry relative="1" as="geometry">
            <Array as="points">
              <mxPoint x="2160" y="1600" />
              <mxPoint x="2160" y="1970" />
              <mxPoint x="1925" y="1970" />
            </Array>
            <mxPoint x="1990" y="1600" as="sourcePoint" />
          </mxGeometry>
        </mxCell>
        <mxCell id="iqlw-UNt_izefoMJamtQ-90" style="edgeStyle=orthogonalEdgeStyle;rounded=0;orthogonalLoop=1;jettySize=auto;html=1;exitX=1;exitY=0.5;exitDx=0;exitDy=0;entryX=0;entryY=0.5;entryDx=0;entryDy=0;endArrow=none;endFill=0;" parent="WIyWlLk6GJQsqaUBKTNV-1" edge="1">
          <mxGeometry relative="1" as="geometry">
            <Array as="points">
              <mxPoint x="2010" y="1770" />
              <mxPoint x="2010" y="1950" />
              <mxPoint x="1750" y="1950" />
              <mxPoint x="1750" y="1600" />
            </Array>
            <mxPoint x="1870" y="1600" as="targetPoint" />
          </mxGeometry>
        </mxCell>
        <mxCell id="iqlw-UNt_izefoMJamtQ-91" style="edgeStyle=orthogonalEdgeStyle;rounded=0;orthogonalLoop=1;jettySize=auto;html=1;exitX=0.5;exitY=1;exitDx=0;exitDy=0;entryX=0;entryY=0.5;entryDx=0;entryDy=0;endArrow=none;endFill=0;" parent="WIyWlLk6GJQsqaUBKTNV-1" edge="1">
          <mxGeometry relative="1" as="geometry">
            <Array as="points">
              <mxPoint x="1928" y="1950" />
              <mxPoint x="1750" y="1950" />
              <mxPoint x="1750" y="1600" />
            </Array>
            <mxPoint x="1870" y="1600" as="targetPoint" />
          </mxGeometry>
        </mxCell>
        <mxCell id="iqlw-UNt_izefoMJamtQ-92" style="edgeStyle=orthogonalEdgeStyle;rounded=0;orthogonalLoop=1;jettySize=auto;html=1;exitX=1;exitY=0.5;exitDx=0;exitDy=0;endArrow=none;endFill=0;" parent="WIyWlLk6GJQsqaUBKTNV-1" edge="1">
          <mxGeometry relative="1" as="geometry">
            <Array as="points">
              <mxPoint x="2080" y="2030" />
              <mxPoint x="2080" y="2270" />
              <mxPoint x="1918" y="2270" />
            </Array>
            <mxPoint x="1987.5" y="2030" as="sourcePoint" />
          </mxGeometry>
        </mxCell>
        <mxCell id="l8IGCBfINwLVTN0Zbq0X-0" style="edgeStyle=orthogonalEdgeStyle;rounded=0;orthogonalLoop=1;jettySize=auto;html=1;exitX=1;exitY=0.5;exitDx=0;exitDy=0;endArrow=none;endFill=0;" parent="WIyWlLk6GJQsqaUBKTNV-1" edge="1">
          <mxGeometry relative="1" as="geometry">
            <Array as="points">
              <mxPoint x="1020" y="2860" />
              <mxPoint x="1020" y="3430" />
              <mxPoint x="775" y="3430" />
            </Array>
            <mxPoint x="840.6199999999999" y="2860" as="sourcePoint" />
          </mxGeometry>
        </mxCell>
        <mxCell id="l8IGCBfINwLVTN0Zbq0X-13" style="edgeStyle=orthogonalEdgeStyle;rounded=0;orthogonalLoop=1;jettySize=auto;html=1;exitX=1;exitY=0.5;exitDx=0;exitDy=0;endArrow=none;endFill=0;" parent="WIyWlLk6GJQsqaUBKTNV-1" edge="1">
          <mxGeometry relative="1" as="geometry">
            <Array as="points">
              <mxPoint x="1093" y="3530" />
              <mxPoint x="1093" y="4100" />
              <mxPoint x="848" y="4100" />
            </Array>
            <mxPoint x="913.6199999999999" y="3530" as="sourcePoint" />
          </mxGeometry>
        </mxCell>
        <mxCell id="l8IGCBfINwLVTN0Zbq0X-14" style="edgeStyle=orthogonalEdgeStyle;rounded=0;orthogonalLoop=1;jettySize=auto;html=1;exitX=1;exitY=0.5;exitDx=0;exitDy=0;endArrow=none;endFill=0;" parent="WIyWlLk6GJQsqaUBKTNV-1" edge="1">
          <mxGeometry relative="1" as="geometry">
            <Array as="points">
              <mxPoint x="920" y="3100" />
              <mxPoint x="920" y="3240" />
              <mxPoint x="840" y="3240" />
            </Array>
            <mxPoint x="900" y="3100" as="sourcePoint" />
          </mxGeometry>
        </mxCell>
        <mxCell id="l8IGCBfINwLVTN0Zbq0X-15" style="edgeStyle=orthogonalEdgeStyle;rounded=0;orthogonalLoop=1;jettySize=auto;html=1;exitX=1;exitY=0.5;exitDx=0;exitDy=0;endArrow=none;endFill=0;" parent="WIyWlLk6GJQsqaUBKTNV-1" edge="1">
          <mxGeometry relative="1" as="geometry">
            <Array as="points">
              <mxPoint x="1060" y="3640" />
              <mxPoint x="1060" y="4010" />
              <mxPoint x="825" y="4010" />
            </Array>
            <mxPoint x="890" y="3640" as="sourcePoint" />
          </mxGeometry>
        </mxCell>
        <mxCell id="l8IGCBfINwLVTN0Zbq0X-16" style="edgeStyle=orthogonalEdgeStyle;rounded=0;orthogonalLoop=1;jettySize=auto;html=1;exitX=1;exitY=0.5;exitDx=0;exitDy=0;entryX=0;entryY=0.5;entryDx=0;entryDy=0;endArrow=none;endFill=0;" parent="WIyWlLk6GJQsqaUBKTNV-1" edge="1">
          <mxGeometry relative="1" as="geometry">
            <Array as="points">
              <mxPoint x="910" y="3810" />
              <mxPoint x="910" y="3990" />
              <mxPoint x="650" y="3990" />
              <mxPoint x="650" y="3640" />
            </Array>
            <mxPoint x="770" y="3640" as="targetPoint" />
          </mxGeometry>
        </mxCell>
        <mxCell id="l8IGCBfINwLVTN0Zbq0X-17" style="edgeStyle=orthogonalEdgeStyle;rounded=0;orthogonalLoop=1;jettySize=auto;html=1;exitX=0.5;exitY=1;exitDx=0;exitDy=0;entryX=0;entryY=0.5;entryDx=0;entryDy=0;endArrow=none;endFill=0;" parent="WIyWlLk6GJQsqaUBKTNV-1" edge="1">
          <mxGeometry relative="1" as="geometry">
            <Array as="points">
              <mxPoint x="828" y="3990" />
              <mxPoint x="650" y="3990" />
              <mxPoint x="650" y="3640" />
            </Array>
            <mxPoint x="770" y="3640" as="targetPoint" />
          </mxGeometry>
        </mxCell>
        <mxCell id="l8IGCBfINwLVTN0Zbq0X-18" style="edgeStyle=orthogonalEdgeStyle;rounded=0;orthogonalLoop=1;jettySize=auto;html=1;exitX=1;exitY=0.5;exitDx=0;exitDy=0;endArrow=none;endFill=0;" parent="WIyWlLk6GJQsqaUBKTNV-1" edge="1">
          <mxGeometry relative="1" as="geometry">
            <Array as="points">
              <mxPoint x="980" y="4070" />
              <mxPoint x="980" y="4310" />
              <mxPoint x="818" y="4310" />
            </Array>
            <mxPoint x="887.5" y="4070" as="sourcePoint" />
          </mxGeometry>
        </mxCell>
        <mxCell id="l8IGCBfINwLVTN0Zbq0X-35" style="edgeStyle=orthogonalEdgeStyle;rounded=0;orthogonalLoop=1;jettySize=auto;html=1;exitX=1;exitY=0.5;exitDx=0;exitDy=0;endArrow=none;endFill=0;" parent="WIyWlLk6GJQsqaUBKTNV-1" edge="1">
          <mxGeometry relative="1" as="geometry">
            <Array as="points">
              <mxPoint x="1003" y="5290" />
              <mxPoint x="1003" y="5860" />
              <mxPoint x="758" y="5860" />
            </Array>
            <mxPoint x="823.6199999999999" y="5290" as="sourcePoint" />
          </mxGeometry>
        </mxCell>
        <mxCell id="l8IGCBfINwLVTN0Zbq0X-36" style="edgeStyle=orthogonalEdgeStyle;rounded=0;orthogonalLoop=1;jettySize=auto;html=1;exitX=1;exitY=0.5;exitDx=0;exitDy=0;endArrow=none;endFill=0;" parent="WIyWlLk6GJQsqaUBKTNV-1" edge="1">
          <mxGeometry relative="1" as="geometry">
            <Array as="points">
              <mxPoint x="830" y="4860" />
              <mxPoint x="830" y="5000" />
              <mxPoint x="750" y="5000" />
            </Array>
            <mxPoint x="810" y="4860" as="sourcePoint" />
          </mxGeometry>
        </mxCell>
        <mxCell id="l8IGCBfINwLVTN0Zbq0X-37" style="edgeStyle=orthogonalEdgeStyle;rounded=0;orthogonalLoop=1;jettySize=auto;html=1;exitX=1;exitY=0.5;exitDx=0;exitDy=0;endArrow=none;endFill=0;" parent="WIyWlLk6GJQsqaUBKTNV-1" edge="1">
          <mxGeometry relative="1" as="geometry">
            <Array as="points">
              <mxPoint x="970" y="5400" />
              <mxPoint x="970" y="5770" />
              <mxPoint x="735" y="5770" />
            </Array>
            <mxPoint x="800" y="5400" as="sourcePoint" />
          </mxGeometry>
        </mxCell>
        <mxCell id="l8IGCBfINwLVTN0Zbq0X-38" style="edgeStyle=orthogonalEdgeStyle;rounded=0;orthogonalLoop=1;jettySize=auto;html=1;exitX=1;exitY=0.5;exitDx=0;exitDy=0;entryX=0;entryY=0.5;entryDx=0;entryDy=0;endArrow=none;endFill=0;" parent="WIyWlLk6GJQsqaUBKTNV-1" edge="1">
          <mxGeometry relative="1" as="geometry">
            <Array as="points">
              <mxPoint x="820" y="5570" />
              <mxPoint x="820" y="5750" />
              <mxPoint x="560" y="5750" />
              <mxPoint x="560" y="5400" />
            </Array>
            <mxPoint x="680" y="5400" as="targetPoint" />
          </mxGeometry>
        </mxCell>
        <mxCell id="l8IGCBfINwLVTN0Zbq0X-39" style="edgeStyle=orthogonalEdgeStyle;rounded=0;orthogonalLoop=1;jettySize=auto;html=1;exitX=0.5;exitY=1;exitDx=0;exitDy=0;entryX=0;entryY=0.5;entryDx=0;entryDy=0;endArrow=none;endFill=0;" parent="WIyWlLk6GJQsqaUBKTNV-1" edge="1">
          <mxGeometry relative="1" as="geometry">
            <Array as="points">
              <mxPoint x="738" y="5750" />
              <mxPoint x="560" y="5750" />
              <mxPoint x="560" y="5400" />
            </Array>
            <mxPoint x="680" y="5400" as="targetPoint" />
          </mxGeometry>
        </mxCell>
        <mxCell id="l8IGCBfINwLVTN0Zbq0X-40" style="edgeStyle=orthogonalEdgeStyle;rounded=0;orthogonalLoop=1;jettySize=auto;html=1;exitX=1;exitY=0.5;exitDx=0;exitDy=0;endArrow=none;endFill=0;" parent="WIyWlLk6GJQsqaUBKTNV-1" edge="1">
          <mxGeometry relative="1" as="geometry">
            <Array as="points">
              <mxPoint x="890" y="5830" />
              <mxPoint x="890" y="6070" />
              <mxPoint x="728" y="6070" />
            </Array>
            <mxPoint x="797.5" y="5830" as="sourcePoint" />
          </mxGeometry>
        </mxCell>
        <mxCell id="l8IGCBfINwLVTN0Zbq0X-50" style="edgeStyle=orthogonalEdgeStyle;rounded=0;orthogonalLoop=1;jettySize=auto;html=1;exitX=1;exitY=0.5;exitDx=0;exitDy=0;endArrow=none;endFill=0;" parent="WIyWlLk6GJQsqaUBKTNV-1" edge="1">
          <mxGeometry relative="1" as="geometry">
            <Array as="points">
              <mxPoint x="833" y="7140" />
              <mxPoint x="833" y="7710" />
              <mxPoint x="588" y="7710" />
            </Array>
            <mxPoint x="653.6199999999999" y="7140" as="sourcePoint" />
          </mxGeometry>
        </mxCell>
        <mxCell id="l8IGCBfINwLVTN0Zbq0X-51" style="edgeStyle=orthogonalEdgeStyle;rounded=0;orthogonalLoop=1;jettySize=auto;html=1;exitX=1;exitY=0.5;exitDx=0;exitDy=0;endArrow=none;endFill=0;" parent="WIyWlLk6GJQsqaUBKTNV-1" edge="1">
          <mxGeometry relative="1" as="geometry">
            <Array as="points">
              <mxPoint x="660" y="6710" />
              <mxPoint x="660" y="6850" />
              <mxPoint x="580" y="6850" />
            </Array>
            <mxPoint x="640" y="6710" as="sourcePoint" />
          </mxGeometry>
        </mxCell>
        <mxCell id="l8IGCBfINwLVTN0Zbq0X-52" style="edgeStyle=orthogonalEdgeStyle;rounded=0;orthogonalLoop=1;jettySize=auto;html=1;exitX=1;exitY=0.5;exitDx=0;exitDy=0;endArrow=none;endFill=0;" parent="WIyWlLk6GJQsqaUBKTNV-1" edge="1">
          <mxGeometry relative="1" as="geometry">
            <Array as="points">
              <mxPoint x="800" y="7250" />
              <mxPoint x="800" y="7620" />
              <mxPoint x="565" y="7620" />
            </Array>
            <mxPoint x="630" y="7250" as="sourcePoint" />
          </mxGeometry>
        </mxCell>
        <mxCell id="l8IGCBfINwLVTN0Zbq0X-53" style="edgeStyle=orthogonalEdgeStyle;rounded=0;orthogonalLoop=1;jettySize=auto;html=1;exitX=1;exitY=0.5;exitDx=0;exitDy=0;entryX=0;entryY=0.5;entryDx=0;entryDy=0;endArrow=none;endFill=0;" parent="WIyWlLk6GJQsqaUBKTNV-1" edge="1">
          <mxGeometry relative="1" as="geometry">
            <Array as="points">
              <mxPoint x="650" y="7420" />
              <mxPoint x="650" y="7600" />
              <mxPoint x="390" y="7600" />
              <mxPoint x="390" y="7250" />
            </Array>
            <mxPoint x="510" y="7250" as="targetPoint" />
          </mxGeometry>
        </mxCell>
        <mxCell id="l8IGCBfINwLVTN0Zbq0X-54" style="edgeStyle=orthogonalEdgeStyle;rounded=0;orthogonalLoop=1;jettySize=auto;html=1;exitX=0.5;exitY=1;exitDx=0;exitDy=0;entryX=0;entryY=0.5;entryDx=0;entryDy=0;endArrow=none;endFill=0;" parent="WIyWlLk6GJQsqaUBKTNV-1" edge="1">
          <mxGeometry relative="1" as="geometry">
            <Array as="points">
              <mxPoint x="568" y="7600" />
              <mxPoint x="390" y="7600" />
              <mxPoint x="390" y="7250" />
            </Array>
            <mxPoint x="510" y="7250" as="targetPoint" />
          </mxGeometry>
        </mxCell>
        <mxCell id="l8IGCBfINwLVTN0Zbq0X-55" style="edgeStyle=orthogonalEdgeStyle;rounded=0;orthogonalLoop=1;jettySize=auto;html=1;exitX=1;exitY=0.5;exitDx=0;exitDy=0;endArrow=none;endFill=0;" parent="WIyWlLk6GJQsqaUBKTNV-1" edge="1">
          <mxGeometry relative="1" as="geometry">
            <Array as="points">
              <mxPoint x="720" y="7680" />
              <mxPoint x="720" y="7920" />
              <mxPoint x="558" y="7920" />
            </Array>
            <mxPoint x="627.5" y="7680" as="sourcePoint" />
          </mxGeometry>
        </mxCell>
        <mxCell id="l8IGCBfINwLVTN0Zbq0X-72" style="edgeStyle=orthogonalEdgeStyle;rounded=0;orthogonalLoop=1;jettySize=auto;html=1;exitX=1;exitY=0.5;exitDx=0;exitDy=0;endArrow=none;endFill=0;" parent="WIyWlLk6GJQsqaUBKTNV-1" edge="1">
          <mxGeometry relative="1" as="geometry">
            <Array as="points">
              <mxPoint x="1290.02" y="7190" />
              <mxPoint x="1290.02" y="7760" />
              <mxPoint x="1045.02" y="7760" />
            </Array>
            <mxPoint x="1110.6399999999999" y="7190" as="sourcePoint" />
          </mxGeometry>
        </mxCell>
        <mxCell id="l8IGCBfINwLVTN0Zbq0X-73" style="edgeStyle=orthogonalEdgeStyle;rounded=0;orthogonalLoop=1;jettySize=auto;html=1;exitX=1;exitY=0.5;exitDx=0;exitDy=0;endArrow=none;endFill=0;" parent="WIyWlLk6GJQsqaUBKTNV-1" edge="1">
          <mxGeometry relative="1" as="geometry">
            <Array as="points">
              <mxPoint x="1117.02" y="6760" />
              <mxPoint x="1117.02" y="6900" />
              <mxPoint x="1037.02" y="6900" />
            </Array>
            <mxPoint x="1097.02" y="6760" as="sourcePoint" />
          </mxGeometry>
        </mxCell>
        <mxCell id="l8IGCBfINwLVTN0Zbq0X-74" style="edgeStyle=orthogonalEdgeStyle;rounded=0;orthogonalLoop=1;jettySize=auto;html=1;exitX=1;exitY=0.5;exitDx=0;exitDy=0;endArrow=none;endFill=0;" parent="WIyWlLk6GJQsqaUBKTNV-1" edge="1">
          <mxGeometry relative="1" as="geometry">
            <Array as="points">
              <mxPoint x="1257.02" y="7300" />
              <mxPoint x="1257.02" y="7670" />
              <mxPoint x="1022.02" y="7670" />
            </Array>
            <mxPoint x="1087.02" y="7300" as="sourcePoint" />
          </mxGeometry>
        </mxCell>
        <mxCell id="l8IGCBfINwLVTN0Zbq0X-75" style="edgeStyle=orthogonalEdgeStyle;rounded=0;orthogonalLoop=1;jettySize=auto;html=1;exitX=1;exitY=0.5;exitDx=0;exitDy=0;entryX=0;entryY=0.5;entryDx=0;entryDy=0;endArrow=none;endFill=0;" parent="WIyWlLk6GJQsqaUBKTNV-1" edge="1">
          <mxGeometry relative="1" as="geometry">
            <Array as="points">
              <mxPoint x="1107.02" y="7470" />
              <mxPoint x="1107.02" y="7650" />
              <mxPoint x="847.02" y="7650" />
              <mxPoint x="847.02" y="7300" />
            </Array>
            <mxPoint x="967.02" y="7300" as="targetPoint" />
          </mxGeometry>
        </mxCell>
        <mxCell id="l8IGCBfINwLVTN0Zbq0X-76" style="edgeStyle=orthogonalEdgeStyle;rounded=0;orthogonalLoop=1;jettySize=auto;html=1;exitX=0.5;exitY=1;exitDx=0;exitDy=0;entryX=0;entryY=0.5;entryDx=0;entryDy=0;endArrow=none;endFill=0;" parent="WIyWlLk6GJQsqaUBKTNV-1" edge="1">
          <mxGeometry relative="1" as="geometry">
            <Array as="points">
              <mxPoint x="1025.02" y="7650" />
              <mxPoint x="847.02" y="7650" />
              <mxPoint x="847.02" y="7300" />
            </Array>
            <mxPoint x="967.02" y="7300" as="targetPoint" />
          </mxGeometry>
        </mxCell>
        <mxCell id="l8IGCBfINwLVTN0Zbq0X-77" style="edgeStyle=orthogonalEdgeStyle;rounded=0;orthogonalLoop=1;jettySize=auto;html=1;exitX=1;exitY=0.5;exitDx=0;exitDy=0;endArrow=none;endFill=0;" parent="WIyWlLk6GJQsqaUBKTNV-1" edge="1">
          <mxGeometry relative="1" as="geometry">
            <Array as="points">
              <mxPoint x="1177.02" y="7730" />
              <mxPoint x="1177.02" y="7970" />
              <mxPoint x="1015.02" y="7970" />
            </Array>
            <mxPoint x="1084.52" y="7730" as="sourcePoint" />
          </mxGeometry>
        </mxCell>
        <mxCell id="l8IGCBfINwLVTN0Zbq0X-147" style="edgeStyle=orthogonalEdgeStyle;rounded=0;orthogonalLoop=1;jettySize=auto;html=1;exitX=0.5;exitY=1;exitDx=0;exitDy=0;entryX=0;entryY=0.5;entryDx=0;entryDy=0;" parent="WIyWlLk6GJQsqaUBKTNV-1" edge="1">
          <mxGeometry relative="1" as="geometry">
            <Array as="points">
              <mxPoint x="135" y="6380" />
              <mxPoint x="50" y="6380" />
              <mxPoint x="50" y="6250" />
            </Array>
            <mxPoint x="70" y="6250" as="targetPoint" />
          </mxGeometry>
        </mxCell>
        <mxCell id="l8IGCBfINwLVTN0Zbq0X-151" style="edgeStyle=orthogonalEdgeStyle;rounded=0;orthogonalLoop=1;jettySize=auto;html=1;exitX=1;exitY=0.5;exitDx=0;exitDy=0;endArrow=none;endFill=0;" parent="WIyWlLk6GJQsqaUBKTNV-1" edge="1">
          <mxGeometry relative="1" as="geometry">
            <Array as="points">
              <mxPoint x="1850" y="6090" />
              <mxPoint x="1850" y="6230" />
              <mxPoint x="1770" y="6230" />
            </Array>
            <mxPoint x="1830" y="6090" as="sourcePoint" />
          </mxGeometry>
        </mxCell>
        <mxCell id="l8IGCBfINwLVTN0Zbq0X-152" style="edgeStyle=orthogonalEdgeStyle;rounded=0;orthogonalLoop=1;jettySize=auto;html=1;exitX=1;exitY=0.5;exitDx=0;exitDy=0;endArrow=none;endFill=0;" parent="WIyWlLk6GJQsqaUBKTNV-1" edge="1">
          <mxGeometry relative="1" as="geometry">
            <Array as="points">
              <mxPoint x="1990" y="6630" />
              <mxPoint x="1990" y="7000" />
              <mxPoint x="1755" y="7000" />
            </Array>
            <mxPoint x="1820" y="6630" as="sourcePoint" />
          </mxGeometry>
        </mxCell>
        <mxCell id="l8IGCBfINwLVTN0Zbq0X-153" style="edgeStyle=orthogonalEdgeStyle;rounded=0;orthogonalLoop=1;jettySize=auto;html=1;exitX=1;exitY=0.5;exitDx=0;exitDy=0;entryX=0;entryY=0.5;entryDx=0;entryDy=0;endArrow=none;endFill=0;" parent="WIyWlLk6GJQsqaUBKTNV-1" edge="1">
          <mxGeometry relative="1" as="geometry">
            <Array as="points">
              <mxPoint x="1840" y="6800" />
              <mxPoint x="1840" y="6980" />
              <mxPoint x="1580" y="6980" />
              <mxPoint x="1580" y="6630" />
            </Array>
            <mxPoint x="1700" y="6630" as="targetPoint" />
          </mxGeometry>
        </mxCell>
        <mxCell id="l8IGCBfINwLVTN0Zbq0X-154" style="edgeStyle=orthogonalEdgeStyle;rounded=0;orthogonalLoop=1;jettySize=auto;html=1;exitX=0.5;exitY=1;exitDx=0;exitDy=0;entryX=0;entryY=0.5;entryDx=0;entryDy=0;endArrow=none;endFill=0;" parent="WIyWlLk6GJQsqaUBKTNV-1" edge="1">
          <mxGeometry relative="1" as="geometry">
            <Array as="points">
              <mxPoint x="1758" y="6980" />
              <mxPoint x="1580" y="6980" />
              <mxPoint x="1580" y="6630" />
            </Array>
            <mxPoint x="1700" y="6630" as="targetPoint" />
          </mxGeometry>
        </mxCell>
        <mxCell id="l8IGCBfINwLVTN0Zbq0X-155" style="edgeStyle=orthogonalEdgeStyle;rounded=0;orthogonalLoop=1;jettySize=auto;html=1;exitX=1;exitY=0.5;exitDx=0;exitDy=0;endArrow=none;endFill=0;" parent="WIyWlLk6GJQsqaUBKTNV-1" edge="1">
          <mxGeometry relative="1" as="geometry">
            <Array as="points">
              <mxPoint x="1910" y="7060" />
              <mxPoint x="1910" y="7300" />
              <mxPoint x="1748" y="7300" />
            </Array>
            <mxPoint x="1817.5" y="7060" as="sourcePoint" />
          </mxGeometry>
        </mxCell>
        <mxCell id="l8IGCBfINwLVTN0Zbq0X-239" style="edgeStyle=orthogonalEdgeStyle;rounded=0;orthogonalLoop=1;jettySize=auto;html=1;exitX=1;exitY=0.5;exitDx=0;exitDy=0;endArrow=none;endFill=0;" parent="WIyWlLk6GJQsqaUBKTNV-1" edge="1">
          <mxGeometry relative="1" as="geometry">
            <Array as="points">
              <mxPoint x="870.02" y="6584" />
              <mxPoint x="870.02" y="6724" />
              <mxPoint x="790.02" y="6724" />
            </Array>
            <mxPoint x="850.02" y="6584" as="sourcePoint" />
          </mxGeometry>
        </mxCell>
        <mxCell id="l8IGCBfINwLVTN0Zbq0X-240" style="edgeStyle=orthogonalEdgeStyle;rounded=0;orthogonalLoop=1;jettySize=auto;html=1;exitX=1;exitY=0.5;exitDx=0;exitDy=0;endArrow=none;endFill=0;" parent="WIyWlLk6GJQsqaUBKTNV-1" edge="1">
          <mxGeometry relative="1" as="geometry">
            <Array as="points">
              <mxPoint x="1010.02" y="7124" />
              <mxPoint x="1010.02" y="7494" />
              <mxPoint x="775.02" y="7494" />
            </Array>
            <mxPoint x="840.02" y="7124" as="sourcePoint" />
          </mxGeometry>
        </mxCell>
        <mxCell id="l8IGCBfINwLVTN0Zbq0X-241" style="edgeStyle=orthogonalEdgeStyle;rounded=0;orthogonalLoop=1;jettySize=auto;html=1;exitX=1;exitY=0.5;exitDx=0;exitDy=0;entryX=0;entryY=0.5;entryDx=0;entryDy=0;endArrow=none;endFill=0;" parent="WIyWlLk6GJQsqaUBKTNV-1" edge="1">
          <mxGeometry relative="1" as="geometry">
            <Array as="points">
              <mxPoint x="860.02" y="7294" />
              <mxPoint x="860.02" y="7474" />
              <mxPoint x="600.02" y="7474" />
              <mxPoint x="600.02" y="7124" />
            </Array>
            <mxPoint x="720.02" y="7124" as="targetPoint" />
          </mxGeometry>
        </mxCell>
        <mxCell id="l8IGCBfINwLVTN0Zbq0X-242" style="edgeStyle=orthogonalEdgeStyle;rounded=0;orthogonalLoop=1;jettySize=auto;html=1;exitX=0.5;exitY=1;exitDx=0;exitDy=0;entryX=0;entryY=0.5;entryDx=0;entryDy=0;endArrow=none;endFill=0;" parent="WIyWlLk6GJQsqaUBKTNV-1" edge="1">
          <mxGeometry relative="1" as="geometry">
            <Array as="points">
              <mxPoint x="778.02" y="7474" />
              <mxPoint x="600.02" y="7474" />
              <mxPoint x="600.02" y="7124" />
            </Array>
            <mxPoint x="720.02" y="7124" as="targetPoint" />
          </mxGeometry>
        </mxCell>
        <mxCell id="l8IGCBfINwLVTN0Zbq0X-243" style="edgeStyle=orthogonalEdgeStyle;rounded=0;orthogonalLoop=1;jettySize=auto;html=1;exitX=1;exitY=0.5;exitDx=0;exitDy=0;endArrow=none;endFill=0;" parent="WIyWlLk6GJQsqaUBKTNV-1" edge="1">
          <mxGeometry relative="1" as="geometry">
            <Array as="points">
              <mxPoint x="930.02" y="7554" />
              <mxPoint x="930.02" y="7794" />
              <mxPoint x="768.02" y="7794" />
            </Array>
            <mxPoint x="837.52" y="7554" as="sourcePoint" />
          </mxGeometry>
        </mxCell>
        <mxCell id="l8IGCBfINwLVTN0Zbq0X-265" style="edgeStyle=orthogonalEdgeStyle;rounded=0;orthogonalLoop=1;jettySize=auto;html=1;exitX=1;exitY=0.5;exitDx=0;exitDy=0;endArrow=none;endFill=0;" parent="WIyWlLk6GJQsqaUBKTNV-1" edge="1">
          <mxGeometry relative="1" as="geometry">
            <Array as="points">
              <mxPoint x="1030" y="3390" />
              <mxPoint x="1030" y="3960" />
              <mxPoint x="784.9999999999999" y="3960" />
            </Array>
            <mxPoint x="850.6199999999998" y="3390" as="sourcePoint" />
          </mxGeometry>
        </mxCell>
        <mxCell id="l8IGCBfINwLVTN0Zbq0X-278" style="edgeStyle=orthogonalEdgeStyle;rounded=0;orthogonalLoop=1;jettySize=auto;html=1;exitX=1;exitY=0.5;exitDx=0;exitDy=0;endArrow=none;endFill=0;" parent="WIyWlLk6GJQsqaUBKTNV-1" edge="1">
          <mxGeometry relative="1" as="geometry">
            <Array as="points">
              <mxPoint x="1443" y="6630" />
              <mxPoint x="1443" y="7200" />
              <mxPoint x="1198" y="7200" />
            </Array>
            <mxPoint x="1263.62" y="6630" as="sourcePoint" />
          </mxGeometry>
        </mxCell>
        <mxCell id="l8IGCBfINwLVTN0Zbq0X-279" style="edgeStyle=orthogonalEdgeStyle;rounded=0;orthogonalLoop=1;jettySize=auto;html=1;exitX=1;exitY=0.5;exitDx=0;exitDy=0;endArrow=none;endFill=0;" parent="WIyWlLk6GJQsqaUBKTNV-1" edge="1">
          <mxGeometry relative="1" as="geometry">
            <Array as="points">
              <mxPoint x="1270" y="6200" />
              <mxPoint x="1270" y="6340" />
              <mxPoint x="1190" y="6340" />
            </Array>
            <mxPoint x="1250" y="6200" as="sourcePoint" />
          </mxGeometry>
        </mxCell>
        <mxCell id="l8IGCBfINwLVTN0Zbq0X-280" style="edgeStyle=orthogonalEdgeStyle;rounded=0;orthogonalLoop=1;jettySize=auto;html=1;exitX=1;exitY=0.5;exitDx=0;exitDy=0;endArrow=none;endFill=0;" parent="WIyWlLk6GJQsqaUBKTNV-1" edge="1">
          <mxGeometry relative="1" as="geometry">
            <Array as="points">
              <mxPoint x="1410" y="6740" />
              <mxPoint x="1410" y="7110" />
              <mxPoint x="1175" y="7110" />
            </Array>
            <mxPoint x="1240" y="6740" as="sourcePoint" />
          </mxGeometry>
        </mxCell>
        <mxCell id="l8IGCBfINwLVTN0Zbq0X-281" style="edgeStyle=orthogonalEdgeStyle;rounded=0;orthogonalLoop=1;jettySize=auto;html=1;exitX=1;exitY=0.5;exitDx=0;exitDy=0;entryX=0;entryY=0.5;entryDx=0;entryDy=0;endArrow=none;endFill=0;" parent="WIyWlLk6GJQsqaUBKTNV-1" edge="1">
          <mxGeometry relative="1" as="geometry">
            <Array as="points">
              <mxPoint x="1260" y="6910" />
              <mxPoint x="1260" y="7090" />
              <mxPoint x="1000" y="7090" />
              <mxPoint x="1000" y="6740" />
            </Array>
            <mxPoint x="1120" y="6740" as="targetPoint" />
          </mxGeometry>
        </mxCell>
        <mxCell id="l8IGCBfINwLVTN0Zbq0X-282" style="edgeStyle=orthogonalEdgeStyle;rounded=0;orthogonalLoop=1;jettySize=auto;html=1;exitX=0.5;exitY=1;exitDx=0;exitDy=0;entryX=0;entryY=0.5;entryDx=0;entryDy=0;endArrow=none;endFill=0;" parent="WIyWlLk6GJQsqaUBKTNV-1" edge="1">
          <mxGeometry relative="1" as="geometry">
            <Array as="points">
              <mxPoint x="1178" y="7090" />
              <mxPoint x="1000" y="7090" />
              <mxPoint x="1000" y="6740" />
            </Array>
            <mxPoint x="1120" y="6740" as="targetPoint" />
          </mxGeometry>
        </mxCell>
        <mxCell id="l8IGCBfINwLVTN0Zbq0X-283" style="edgeStyle=orthogonalEdgeStyle;rounded=0;orthogonalLoop=1;jettySize=auto;html=1;exitX=1;exitY=0.5;exitDx=0;exitDy=0;endArrow=none;endFill=0;" parent="WIyWlLk6GJQsqaUBKTNV-1" edge="1">
          <mxGeometry relative="1" as="geometry">
            <Array as="points">
              <mxPoint x="1330" y="7170" />
              <mxPoint x="1330" y="7410" />
              <mxPoint x="1168" y="7410" />
            </Array>
            <mxPoint x="1237.5" y="7170" as="sourcePoint" />
          </mxGeometry>
        </mxCell>
        <mxCell id="l8IGCBfINwLVTN0Zbq0X-300" style="edgeStyle=orthogonalEdgeStyle;rounded=0;orthogonalLoop=1;jettySize=auto;html=1;exitX=1;exitY=0.5;exitDx=0;exitDy=0;endArrow=none;endFill=0;" parent="WIyWlLk6GJQsqaUBKTNV-1" edge="1">
          <mxGeometry relative="1" as="geometry">
            <Array as="points">
              <mxPoint x="1853" y="1670" />
              <mxPoint x="1853" y="2240" />
              <mxPoint x="1608" y="2240" />
            </Array>
            <mxPoint x="1673.62" y="1670" as="sourcePoint" />
          </mxGeometry>
        </mxCell>
        <mxCell id="l8IGCBfINwLVTN0Zbq0X-301" style="edgeStyle=orthogonalEdgeStyle;rounded=0;orthogonalLoop=1;jettySize=auto;html=1;exitX=1;exitY=0.5;exitDx=0;exitDy=0;endArrow=none;endFill=0;" parent="WIyWlLk6GJQsqaUBKTNV-1" edge="1">
          <mxGeometry relative="1" as="geometry">
            <Array as="points">
              <mxPoint x="1680" y="1240" />
              <mxPoint x="1680" y="1380" />
              <mxPoint x="1600" y="1380" />
            </Array>
            <mxPoint x="1660" y="1240" as="sourcePoint" />
          </mxGeometry>
        </mxCell>
        <mxCell id="l8IGCBfINwLVTN0Zbq0X-302" style="edgeStyle=orthogonalEdgeStyle;rounded=0;orthogonalLoop=1;jettySize=auto;html=1;exitX=1;exitY=0.5;exitDx=0;exitDy=0;endArrow=none;endFill=0;" parent="WIyWlLk6GJQsqaUBKTNV-1" edge="1">
          <mxGeometry relative="1" as="geometry">
            <Array as="points">
              <mxPoint x="1820" y="1780" />
              <mxPoint x="1820" y="2150" />
              <mxPoint x="1585" y="2150" />
            </Array>
            <mxPoint x="1650" y="1780" as="sourcePoint" />
          </mxGeometry>
        </mxCell>
        <mxCell id="l8IGCBfINwLVTN0Zbq0X-303" style="edgeStyle=orthogonalEdgeStyle;rounded=0;orthogonalLoop=1;jettySize=auto;html=1;exitX=1;exitY=0.5;exitDx=0;exitDy=0;entryX=0;entryY=0.5;entryDx=0;entryDy=0;endArrow=none;endFill=0;" parent="WIyWlLk6GJQsqaUBKTNV-1" edge="1">
          <mxGeometry relative="1" as="geometry">
            <Array as="points">
              <mxPoint x="1670" y="1950" />
              <mxPoint x="1670" y="2130" />
              <mxPoint x="1410" y="2130" />
              <mxPoint x="1410" y="1780" />
            </Array>
            <mxPoint x="1530" y="1780" as="targetPoint" />
          </mxGeometry>
        </mxCell>
        <mxCell id="l8IGCBfINwLVTN0Zbq0X-304" style="edgeStyle=orthogonalEdgeStyle;rounded=0;orthogonalLoop=1;jettySize=auto;html=1;exitX=0.5;exitY=1;exitDx=0;exitDy=0;entryX=0;entryY=0.5;entryDx=0;entryDy=0;endArrow=none;endFill=0;" parent="WIyWlLk6GJQsqaUBKTNV-1" edge="1">
          <mxGeometry relative="1" as="geometry">
            <Array as="points">
              <mxPoint x="1588" y="2130" />
              <mxPoint x="1410" y="2130" />
              <mxPoint x="1410" y="1780" />
            </Array>
            <mxPoint x="1530" y="1780" as="targetPoint" />
          </mxGeometry>
        </mxCell>
        <mxCell id="l8IGCBfINwLVTN0Zbq0X-305" style="edgeStyle=orthogonalEdgeStyle;rounded=0;orthogonalLoop=1;jettySize=auto;html=1;exitX=1;exitY=0.5;exitDx=0;exitDy=0;endArrow=none;endFill=0;" parent="WIyWlLk6GJQsqaUBKTNV-1" edge="1">
          <mxGeometry relative="1" as="geometry">
            <Array as="points">
              <mxPoint x="1740" y="2210" />
              <mxPoint x="1740" y="2450" />
              <mxPoint x="1578" y="2450" />
            </Array>
            <mxPoint x="1647.5" y="2210" as="sourcePoint" />
          </mxGeometry>
        </mxCell>
        <mxCell id="l8IGCBfINwLVTN0Zbq0X-315" style="edgeStyle=orthogonalEdgeStyle;rounded=0;orthogonalLoop=1;jettySize=auto;html=1;exitX=1;exitY=0.5;exitDx=0;exitDy=0;endArrow=none;endFill=0;" parent="WIyWlLk6GJQsqaUBKTNV-1" edge="1">
          <mxGeometry relative="1" as="geometry">
            <Array as="points">
              <mxPoint x="1963" y="1880" />
              <mxPoint x="1963" y="2450" />
              <mxPoint x="1718" y="2450" />
            </Array>
            <mxPoint x="1783.62" y="1880" as="sourcePoint" />
          </mxGeometry>
        </mxCell>
        <mxCell id="l8IGCBfINwLVTN0Zbq0X-316" style="edgeStyle=orthogonalEdgeStyle;rounded=0;orthogonalLoop=1;jettySize=auto;html=1;exitX=1;exitY=0.5;exitDx=0;exitDy=0;endArrow=none;endFill=0;" parent="WIyWlLk6GJQsqaUBKTNV-1" edge="1">
          <mxGeometry relative="1" as="geometry">
            <Array as="points">
              <mxPoint x="1790" y="1450" />
              <mxPoint x="1790" y="1590" />
              <mxPoint x="1710" y="1590" />
            </Array>
            <mxPoint x="1770" y="1450" as="sourcePoint" />
          </mxGeometry>
        </mxCell>
        <mxCell id="l8IGCBfINwLVTN0Zbq0X-317" style="edgeStyle=orthogonalEdgeStyle;rounded=0;orthogonalLoop=1;jettySize=auto;html=1;exitX=1;exitY=0.5;exitDx=0;exitDy=0;endArrow=none;endFill=0;" parent="WIyWlLk6GJQsqaUBKTNV-1" edge="1">
          <mxGeometry relative="1" as="geometry">
            <Array as="points">
              <mxPoint x="1930" y="1990" />
              <mxPoint x="1930" y="2360" />
              <mxPoint x="1695" y="2360" />
            </Array>
            <mxPoint x="1760" y="1990" as="sourcePoint" />
          </mxGeometry>
        </mxCell>
        <mxCell id="l8IGCBfINwLVTN0Zbq0X-318" style="edgeStyle=orthogonalEdgeStyle;rounded=0;orthogonalLoop=1;jettySize=auto;html=1;exitX=1;exitY=0.5;exitDx=0;exitDy=0;entryX=0;entryY=0.5;entryDx=0;entryDy=0;endArrow=none;endFill=0;" parent="WIyWlLk6GJQsqaUBKTNV-1" edge="1">
          <mxGeometry relative="1" as="geometry">
            <Array as="points">
              <mxPoint x="1780" y="2160" />
              <mxPoint x="1780" y="2340" />
              <mxPoint x="1520" y="2340" />
              <mxPoint x="1520" y="1990" />
            </Array>
            <mxPoint x="1640" y="1990" as="targetPoint" />
          </mxGeometry>
        </mxCell>
        <mxCell id="l8IGCBfINwLVTN0Zbq0X-319" style="edgeStyle=orthogonalEdgeStyle;rounded=0;orthogonalLoop=1;jettySize=auto;html=1;exitX=0.5;exitY=1;exitDx=0;exitDy=0;entryX=0;entryY=0.5;entryDx=0;entryDy=0;endArrow=none;endFill=0;" parent="WIyWlLk6GJQsqaUBKTNV-1" edge="1">
          <mxGeometry relative="1" as="geometry">
            <Array as="points">
              <mxPoint x="1698" y="2340" />
              <mxPoint x="1520" y="2340" />
              <mxPoint x="1520" y="1990" />
            </Array>
            <mxPoint x="1640" y="1990" as="targetPoint" />
          </mxGeometry>
        </mxCell>
        <mxCell id="l8IGCBfINwLVTN0Zbq0X-320" style="edgeStyle=orthogonalEdgeStyle;rounded=0;orthogonalLoop=1;jettySize=auto;html=1;exitX=1;exitY=0.5;exitDx=0;exitDy=0;endArrow=none;endFill=0;" parent="WIyWlLk6GJQsqaUBKTNV-1" edge="1">
          <mxGeometry relative="1" as="geometry">
            <Array as="points">
              <mxPoint x="1850" y="2420" />
              <mxPoint x="1850" y="2660" />
              <mxPoint x="1688" y="2660" />
            </Array>
            <mxPoint x="1757.5" y="2420" as="sourcePoint" />
          </mxGeometry>
        </mxCell>
        <mxCell id="KRCCK3rTStJYhaIaurz0-116" style="edgeStyle=orthogonalEdgeStyle;rounded=0;orthogonalLoop=1;jettySize=auto;html=1;exitX=1;exitY=0.5;exitDx=0;exitDy=0;endArrow=none;endFill=0;" parent="WIyWlLk6GJQsqaUBKTNV-1" edge="1">
          <mxGeometry relative="1" as="geometry">
            <Array as="points">
              <mxPoint x="2300" y="900" />
              <mxPoint x="2300" y="1040" />
              <mxPoint x="2220" y="1040" />
            </Array>
            <mxPoint x="2280" y="900" as="sourcePoint" />
          </mxGeometry>
        </mxCell>
        <mxCell id="KRCCK3rTStJYhaIaurz0-117" style="edgeStyle=orthogonalEdgeStyle;rounded=0;orthogonalLoop=1;jettySize=auto;html=1;exitX=1;exitY=0.5;exitDx=0;exitDy=0;endArrow=none;endFill=0;" parent="WIyWlLk6GJQsqaUBKTNV-1" edge="1">
          <mxGeometry relative="1" as="geometry">
            <Array as="points">
              <mxPoint x="2440" y="1440" />
              <mxPoint x="2440" y="1810" />
              <mxPoint x="2205" y="1810" />
            </Array>
            <mxPoint x="2270" y="1440" as="sourcePoint" />
          </mxGeometry>
        </mxCell>
        <mxCell id="KRCCK3rTStJYhaIaurz0-118" style="edgeStyle=orthogonalEdgeStyle;rounded=0;orthogonalLoop=1;jettySize=auto;html=1;exitX=1;exitY=0.5;exitDx=0;exitDy=0;entryX=0;entryY=0.5;entryDx=0;entryDy=0;endArrow=none;endFill=0;" parent="WIyWlLk6GJQsqaUBKTNV-1" edge="1">
          <mxGeometry relative="1" as="geometry">
            <Array as="points">
              <mxPoint x="2290" y="1610" />
              <mxPoint x="2290" y="1790" />
              <mxPoint x="2030" y="1790" />
              <mxPoint x="2030" y="1440" />
            </Array>
            <mxPoint x="2150" y="1440" as="targetPoint" />
          </mxGeometry>
        </mxCell>
        <mxCell id="KRCCK3rTStJYhaIaurz0-119" style="edgeStyle=orthogonalEdgeStyle;rounded=0;orthogonalLoop=1;jettySize=auto;html=1;exitX=0.5;exitY=1;exitDx=0;exitDy=0;entryX=0;entryY=0.5;entryDx=0;entryDy=0;endArrow=none;endFill=0;" parent="WIyWlLk6GJQsqaUBKTNV-1" edge="1">
          <mxGeometry relative="1" as="geometry">
            <Array as="points">
              <mxPoint x="2208" y="1790" />
              <mxPoint x="2030" y="1790" />
              <mxPoint x="2030" y="1440" />
            </Array>
            <mxPoint x="2150" y="1440" as="targetPoint" />
          </mxGeometry>
        </mxCell>
        <mxCell id="KRCCK3rTStJYhaIaurz0-120" style="edgeStyle=orthogonalEdgeStyle;rounded=0;orthogonalLoop=1;jettySize=auto;html=1;exitX=1;exitY=0.5;exitDx=0;exitDy=0;endArrow=none;endFill=0;" parent="WIyWlLk6GJQsqaUBKTNV-1" edge="1">
          <mxGeometry relative="1" as="geometry">
            <Array as="points">
              <mxPoint x="2360" y="1870" />
              <mxPoint x="2360" y="2110" />
              <mxPoint x="2198" y="2110" />
            </Array>
            <mxPoint x="2267.5" y="1870" as="sourcePoint" />
          </mxGeometry>
        </mxCell>
        <mxCell id="KRCCK3rTStJYhaIaurz0-168" style="edgeStyle=orthogonalEdgeStyle;rounded=0;orthogonalLoop=1;jettySize=auto;html=1;exitX=1;exitY=0.5;exitDx=0;exitDy=0;endArrow=none;endFill=0;" parent="WIyWlLk6GJQsqaUBKTNV-1" edge="1">
          <mxGeometry relative="1" as="geometry">
            <Array as="points">
              <mxPoint x="1540" y="1900" />
              <mxPoint x="1540" y="2470" />
              <mxPoint x="1295" y="2470" />
            </Array>
            <mxPoint x="1360.62" y="1900" as="sourcePoint" />
          </mxGeometry>
        </mxCell>
        <mxCell id="KRCCK3rTStJYhaIaurz0-181" style="edgeStyle=orthogonalEdgeStyle;rounded=0;orthogonalLoop=1;jettySize=auto;html=1;exitX=1;exitY=0.5;exitDx=0;exitDy=0;endArrow=none;endFill=0;" parent="WIyWlLk6GJQsqaUBKTNV-1" edge="1">
          <mxGeometry relative="1" as="geometry">
            <Array as="points">
              <mxPoint x="1913" y="3940" />
              <mxPoint x="1913" y="4510" />
              <mxPoint x="1668" y="4510" />
            </Array>
            <mxPoint x="1733.62" y="3940" as="sourcePoint" />
          </mxGeometry>
        </mxCell>
        <mxCell id="KRCCK3rTStJYhaIaurz0-182" style="edgeStyle=orthogonalEdgeStyle;rounded=0;orthogonalLoop=1;jettySize=auto;html=1;exitX=1;exitY=0.5;exitDx=0;exitDy=0;endArrow=none;endFill=0;" parent="WIyWlLk6GJQsqaUBKTNV-1" edge="1">
          <mxGeometry relative="1" as="geometry">
            <Array as="points">
              <mxPoint x="1740" y="3510" />
              <mxPoint x="1740" y="3650" />
              <mxPoint x="1660" y="3650" />
            </Array>
            <mxPoint x="1720" y="3510" as="sourcePoint" />
          </mxGeometry>
        </mxCell>
        <mxCell id="KRCCK3rTStJYhaIaurz0-183" style="edgeStyle=orthogonalEdgeStyle;rounded=0;orthogonalLoop=1;jettySize=auto;html=1;exitX=1;exitY=0.5;exitDx=0;exitDy=0;endArrow=none;endFill=0;" parent="WIyWlLk6GJQsqaUBKTNV-1" edge="1">
          <mxGeometry relative="1" as="geometry">
            <Array as="points">
              <mxPoint x="1880" y="4050" />
              <mxPoint x="1880" y="4420" />
              <mxPoint x="1645" y="4420" />
            </Array>
            <mxPoint x="1710" y="4050" as="sourcePoint" />
          </mxGeometry>
        </mxCell>
        <mxCell id="KRCCK3rTStJYhaIaurz0-184" style="edgeStyle=orthogonalEdgeStyle;rounded=0;orthogonalLoop=1;jettySize=auto;html=1;exitX=1;exitY=0.5;exitDx=0;exitDy=0;entryX=0;entryY=0.5;entryDx=0;entryDy=0;endArrow=none;endFill=0;" parent="WIyWlLk6GJQsqaUBKTNV-1" edge="1">
          <mxGeometry relative="1" as="geometry">
            <Array as="points">
              <mxPoint x="1730" y="4220" />
              <mxPoint x="1730" y="4400" />
              <mxPoint x="1470" y="4400" />
              <mxPoint x="1470" y="4050" />
            </Array>
            <mxPoint x="1590" y="4050" as="targetPoint" />
          </mxGeometry>
        </mxCell>
        <mxCell id="KRCCK3rTStJYhaIaurz0-185" style="edgeStyle=orthogonalEdgeStyle;rounded=0;orthogonalLoop=1;jettySize=auto;html=1;exitX=0.5;exitY=1;exitDx=0;exitDy=0;entryX=0;entryY=0.5;entryDx=0;entryDy=0;endArrow=none;endFill=0;" parent="WIyWlLk6GJQsqaUBKTNV-1" edge="1">
          <mxGeometry relative="1" as="geometry">
            <Array as="points">
              <mxPoint x="1648" y="4400" />
              <mxPoint x="1470" y="4400" />
              <mxPoint x="1470" y="4050" />
            </Array>
            <mxPoint x="1590" y="4050" as="targetPoint" />
          </mxGeometry>
        </mxCell>
        <mxCell id="KRCCK3rTStJYhaIaurz0-186" style="edgeStyle=orthogonalEdgeStyle;rounded=0;orthogonalLoop=1;jettySize=auto;html=1;exitX=1;exitY=0.5;exitDx=0;exitDy=0;endArrow=none;endFill=0;" parent="WIyWlLk6GJQsqaUBKTNV-1" edge="1">
          <mxGeometry relative="1" as="geometry">
            <Array as="points">
              <mxPoint x="1800" y="4480" />
              <mxPoint x="1800" y="4720" />
              <mxPoint x="1638" y="4720" />
            </Array>
            <mxPoint x="1707.5" y="4480" as="sourcePoint" />
          </mxGeometry>
        </mxCell>
        <mxCell id="KRCCK3rTStJYhaIaurz0-203" style="edgeStyle=orthogonalEdgeStyle;rounded=0;orthogonalLoop=1;jettySize=auto;html=1;exitX=1;exitY=0.5;exitDx=0;exitDy=0;endArrow=none;endFill=0;" parent="WIyWlLk6GJQsqaUBKTNV-1" edge="1">
          <mxGeometry relative="1" as="geometry">
            <Array as="points">
              <mxPoint x="1583" y="5880" />
              <mxPoint x="1583" y="6450" />
              <mxPoint x="1338" y="6450" />
            </Array>
            <mxPoint x="1403.62" y="5880" as="sourcePoint" />
          </mxGeometry>
        </mxCell>
        <mxCell id="KRCCK3rTStJYhaIaurz0-204" style="edgeStyle=orthogonalEdgeStyle;rounded=0;orthogonalLoop=1;jettySize=auto;html=1;exitX=1;exitY=0.5;exitDx=0;exitDy=0;endArrow=none;endFill=0;" parent="WIyWlLk6GJQsqaUBKTNV-1" edge="1">
          <mxGeometry relative="1" as="geometry">
            <Array as="points">
              <mxPoint x="1410" y="5450" />
              <mxPoint x="1410" y="5590" />
              <mxPoint x="1330" y="5590" />
            </Array>
            <mxPoint x="1390" y="5450" as="sourcePoint" />
          </mxGeometry>
        </mxCell>
        <mxCell id="KRCCK3rTStJYhaIaurz0-205" style="edgeStyle=orthogonalEdgeStyle;rounded=0;orthogonalLoop=1;jettySize=auto;html=1;exitX=1;exitY=0.5;exitDx=0;exitDy=0;endArrow=none;endFill=0;" parent="WIyWlLk6GJQsqaUBKTNV-1" edge="1">
          <mxGeometry relative="1" as="geometry">
            <Array as="points">
              <mxPoint x="1550" y="5990" />
              <mxPoint x="1550" y="6360" />
              <mxPoint x="1315" y="6360" />
            </Array>
            <mxPoint x="1380" y="5990" as="sourcePoint" />
          </mxGeometry>
        </mxCell>
        <mxCell id="KRCCK3rTStJYhaIaurz0-206" style="edgeStyle=orthogonalEdgeStyle;rounded=0;orthogonalLoop=1;jettySize=auto;html=1;exitX=1;exitY=0.5;exitDx=0;exitDy=0;entryX=0;entryY=0.5;entryDx=0;entryDy=0;endArrow=none;endFill=0;" parent="WIyWlLk6GJQsqaUBKTNV-1" edge="1">
          <mxGeometry relative="1" as="geometry">
            <Array as="points">
              <mxPoint x="1400" y="6160" />
              <mxPoint x="1400" y="6340" />
              <mxPoint x="1140" y="6340" />
              <mxPoint x="1140" y="5990" />
            </Array>
            <mxPoint x="1260" y="5990" as="targetPoint" />
          </mxGeometry>
        </mxCell>
        <mxCell id="KRCCK3rTStJYhaIaurz0-207" style="edgeStyle=orthogonalEdgeStyle;rounded=0;orthogonalLoop=1;jettySize=auto;html=1;exitX=0.5;exitY=1;exitDx=0;exitDy=0;entryX=0;entryY=0.5;entryDx=0;entryDy=0;endArrow=none;endFill=0;" parent="WIyWlLk6GJQsqaUBKTNV-1" edge="1">
          <mxGeometry relative="1" as="geometry">
            <Array as="points">
              <mxPoint x="1318" y="6340" />
              <mxPoint x="1140" y="6340" />
              <mxPoint x="1140" y="5990" />
            </Array>
            <mxPoint x="1260" y="5990" as="targetPoint" />
          </mxGeometry>
        </mxCell>
        <mxCell id="KRCCK3rTStJYhaIaurz0-208" style="edgeStyle=orthogonalEdgeStyle;rounded=0;orthogonalLoop=1;jettySize=auto;html=1;exitX=1;exitY=0.5;exitDx=0;exitDy=0;endArrow=none;endFill=0;" parent="WIyWlLk6GJQsqaUBKTNV-1" edge="1">
          <mxGeometry relative="1" as="geometry">
            <Array as="points">
              <mxPoint x="1470" y="6420" />
              <mxPoint x="1470" y="6660" />
              <mxPoint x="1308" y="6660" />
            </Array>
            <mxPoint x="1377.5" y="6420" as="sourcePoint" />
          </mxGeometry>
        </mxCell>
        <mxCell id="KRCCK3rTStJYhaIaurz0-240" style="edgeStyle=orthogonalEdgeStyle;rounded=0;orthogonalLoop=1;jettySize=auto;html=1;exitX=1;exitY=0.5;exitDx=0;exitDy=0;entryX=0;entryY=0.5;entryDx=0;entryDy=0;endArrow=none;endFill=0;" parent="WIyWlLk6GJQsqaUBKTNV-1" edge="1">
          <mxGeometry relative="1" as="geometry">
            <Array as="points">
              <mxPoint x="1700" y="9875" />
              <mxPoint x="1700" y="10360" />
              <mxPoint x="1320" y="10360" />
              <mxPoint x="1320" y="9805" />
            </Array>
            <mxPoint x="1490" y="9805" as="targetPoint" />
          </mxGeometry>
        </mxCell>
        <mxCell id="KRCCK3rTStJYhaIaurz0-280" style="edgeStyle=orthogonalEdgeStyle;rounded=0;orthogonalLoop=1;jettySize=auto;html=1;exitX=1;exitY=0.5;exitDx=0;exitDy=0;endArrow=none;endFill=0;" parent="WIyWlLk6GJQsqaUBKTNV-1" edge="1">
          <mxGeometry relative="1" as="geometry">
            <Array as="points">
              <mxPoint x="2340" y="8150" />
              <mxPoint x="2340" y="8290" />
              <mxPoint x="2260" y="8290" />
            </Array>
            <mxPoint x="2320" y="8150" as="sourcePoint" />
          </mxGeometry>
        </mxCell>
        <mxCell id="KRCCK3rTStJYhaIaurz0-281" style="edgeStyle=orthogonalEdgeStyle;rounded=0;orthogonalLoop=1;jettySize=auto;html=1;exitX=1;exitY=0.5;exitDx=0;exitDy=0;endArrow=none;endFill=0;" parent="WIyWlLk6GJQsqaUBKTNV-1" edge="1">
          <mxGeometry relative="1" as="geometry">
            <Array as="points">
              <mxPoint x="2480" y="8690" />
              <mxPoint x="2480" y="9060" />
              <mxPoint x="2245" y="9060" />
            </Array>
            <mxPoint x="2310" y="8690" as="sourcePoint" />
          </mxGeometry>
        </mxCell>
        <mxCell id="KRCCK3rTStJYhaIaurz0-282" style="edgeStyle=orthogonalEdgeStyle;rounded=0;orthogonalLoop=1;jettySize=auto;html=1;exitX=1;exitY=0.5;exitDx=0;exitDy=0;entryX=0;entryY=0.5;entryDx=0;entryDy=0;endArrow=none;endFill=0;" parent="WIyWlLk6GJQsqaUBKTNV-1" edge="1">
          <mxGeometry relative="1" as="geometry">
            <Array as="points">
              <mxPoint x="2330" y="8860" />
              <mxPoint x="2330" y="9040" />
              <mxPoint x="2070" y="9040" />
              <mxPoint x="2070" y="8690" />
            </Array>
            <mxPoint x="2190" y="8690" as="targetPoint" />
          </mxGeometry>
        </mxCell>
        <mxCell id="KRCCK3rTStJYhaIaurz0-283" style="edgeStyle=orthogonalEdgeStyle;rounded=0;orthogonalLoop=1;jettySize=auto;html=1;exitX=0.5;exitY=1;exitDx=0;exitDy=0;entryX=0;entryY=0.5;entryDx=0;entryDy=0;endArrow=none;endFill=0;" parent="WIyWlLk6GJQsqaUBKTNV-1" edge="1">
          <mxGeometry relative="1" as="geometry">
            <Array as="points">
              <mxPoint x="2248" y="9040" />
              <mxPoint x="2070" y="9040" />
              <mxPoint x="2070" y="8690" />
            </Array>
            <mxPoint x="2190" y="8690" as="targetPoint" />
          </mxGeometry>
        </mxCell>
        <mxCell id="KRCCK3rTStJYhaIaurz0-284" style="edgeStyle=orthogonalEdgeStyle;rounded=0;orthogonalLoop=1;jettySize=auto;html=1;exitX=1;exitY=0.5;exitDx=0;exitDy=0;endArrow=none;endFill=0;" parent="WIyWlLk6GJQsqaUBKTNV-1" edge="1">
          <mxGeometry relative="1" as="geometry">
            <Array as="points">
              <mxPoint x="2400" y="9120" />
              <mxPoint x="2400" y="9360" />
              <mxPoint x="2238" y="9360" />
            </Array>
            <mxPoint x="2307.5" y="9120" as="sourcePoint" />
          </mxGeometry>
        </mxCell>
        <mxCell id="KRCCK3rTStJYhaIaurz0-613" style="edgeStyle=orthogonalEdgeStyle;rounded=0;orthogonalLoop=1;jettySize=auto;html=1;exitX=1;exitY=0.5;exitDx=0;exitDy=0;entryX=0;entryY=0.5;entryDx=0;entryDy=0;endArrow=none;endFill=0;" parent="WIyWlLk6GJQsqaUBKTNV-1" edge="1">
          <mxGeometry relative="1" as="geometry">
            <Array as="points">
              <mxPoint x="2000" y="3735" />
              <mxPoint x="2000" y="4220" />
              <mxPoint x="1620" y="4220" />
              <mxPoint x="1620" y="3665" />
            </Array>
            <mxPoint x="1790" y="3665" as="targetPoint" />
          </mxGeometry>
        </mxCell>
        <mxCell id="KRCCK3rTStJYhaIaurz0-616" style="edgeStyle=orthogonalEdgeStyle;rounded=0;orthogonalLoop=1;jettySize=auto;html=1;exitX=1;exitY=0.5;exitDx=0;exitDy=0;entryX=0;entryY=0.5;entryDx=0;entryDy=0;endArrow=none;endFill=0;" parent="WIyWlLk6GJQsqaUBKTNV-1" edge="1">
          <mxGeometry relative="1" as="geometry">
            <mxPoint x="1790" y="3735" as="targetPoint" />
            <Array as="points">
              <mxPoint x="1950" y="3805" />
              <mxPoint x="1950" y="4210" />
              <mxPoint x="1700" y="4210" />
              <mxPoint x="1700" y="3735" />
            </Array>
          </mxGeometry>
        </mxCell>
        <mxCell id="KRCCK3rTStJYhaIaurz0-637" style="edgeStyle=orthogonalEdgeStyle;rounded=0;orthogonalLoop=1;jettySize=auto;html=1;exitX=1;exitY=0.5;exitDx=0;exitDy=0;" parent="WIyWlLk6GJQsqaUBKTNV-1" edge="1">
          <mxGeometry relative="1" as="geometry">
            <Array as="points">
              <mxPoint x="1960" y="1690" />
              <mxPoint x="1960" y="2190" />
              <mxPoint x="1850" y="2190" />
            </Array>
            <mxPoint x="1915" y="1690" as="sourcePoint" />
          </mxGeometry>
        </mxCell>
        <mxCell id="KRCCK3rTStJYhaIaurz0-653" style="edgeStyle=orthogonalEdgeStyle;rounded=0;orthogonalLoop=1;jettySize=auto;html=1;exitX=1;exitY=0.5;exitDx=0;exitDy=0;endArrow=none;endFill=0;" parent="WIyWlLk6GJQsqaUBKTNV-1" edge="1">
          <mxGeometry relative="1" as="geometry">
            <Array as="points">
              <mxPoint x="2640" y="2010" />
              <mxPoint x="2640" y="2150" />
              <mxPoint x="2560" y="2150" />
            </Array>
            <mxPoint x="2620" y="2010" as="sourcePoint" />
          </mxGeometry>
        </mxCell>
        <mxCell id="KRCCK3rTStJYhaIaurz0-654" style="edgeStyle=orthogonalEdgeStyle;rounded=0;orthogonalLoop=1;jettySize=auto;html=1;exitX=1;exitY=0.5;exitDx=0;exitDy=0;endArrow=none;endFill=0;" parent="WIyWlLk6GJQsqaUBKTNV-1" edge="1">
          <mxGeometry relative="1" as="geometry">
            <Array as="points">
              <mxPoint x="2780" y="2550" />
              <mxPoint x="2780" y="2920" />
              <mxPoint x="2545" y="2920" />
            </Array>
            <mxPoint x="2610" y="2550" as="sourcePoint" />
          </mxGeometry>
        </mxCell>
        <mxCell id="KRCCK3rTStJYhaIaurz0-655" style="edgeStyle=orthogonalEdgeStyle;rounded=0;orthogonalLoop=1;jettySize=auto;html=1;exitX=1;exitY=0.5;exitDx=0;exitDy=0;entryX=0;entryY=0.5;entryDx=0;entryDy=0;endArrow=none;endFill=0;" parent="WIyWlLk6GJQsqaUBKTNV-1" edge="1">
          <mxGeometry relative="1" as="geometry">
            <Array as="points">
              <mxPoint x="2630" y="2720" />
              <mxPoint x="2630" y="2900" />
              <mxPoint x="2370" y="2900" />
              <mxPoint x="2370" y="2550" />
            </Array>
            <mxPoint x="2490" y="2550" as="targetPoint" />
          </mxGeometry>
        </mxCell>
        <mxCell id="KRCCK3rTStJYhaIaurz0-656" style="edgeStyle=orthogonalEdgeStyle;rounded=0;orthogonalLoop=1;jettySize=auto;html=1;exitX=0.5;exitY=1;exitDx=0;exitDy=0;entryX=0;entryY=0.5;entryDx=0;entryDy=0;endArrow=none;endFill=0;" parent="WIyWlLk6GJQsqaUBKTNV-1" edge="1">
          <mxGeometry relative="1" as="geometry">
            <Array as="points">
              <mxPoint x="2548" y="2900" />
              <mxPoint x="2370" y="2900" />
              <mxPoint x="2370" y="2550" />
            </Array>
            <mxPoint x="2490" y="2550" as="targetPoint" />
          </mxGeometry>
        </mxCell>
        <mxCell id="KRCCK3rTStJYhaIaurz0-657" style="edgeStyle=orthogonalEdgeStyle;rounded=0;orthogonalLoop=1;jettySize=auto;html=1;exitX=1;exitY=0.5;exitDx=0;exitDy=0;endArrow=none;endFill=0;" parent="WIyWlLk6GJQsqaUBKTNV-1" edge="1">
          <mxGeometry relative="1" as="geometry">
            <Array as="points">
              <mxPoint x="2700" y="2980" />
              <mxPoint x="2700" y="3220" />
              <mxPoint x="2538" y="3220" />
            </Array>
            <mxPoint x="2607.5" y="2980" as="sourcePoint" />
          </mxGeometry>
        </mxCell>
        <mxCell id="KRCCK3rTStJYhaIaurz0-666" style="edgeStyle=orthogonalEdgeStyle;rounded=0;orthogonalLoop=1;jettySize=auto;html=1;exitX=1;exitY=0.5;exitDx=0;exitDy=0;endArrow=none;endFill=0;" parent="WIyWlLk6GJQsqaUBKTNV-1" edge="1">
          <mxGeometry relative="1" as="geometry">
            <Array as="points">
              <mxPoint x="2720" y="3690" />
              <mxPoint x="2720" y="4040" />
              <mxPoint x="2524" y="4040" />
            </Array>
            <mxPoint x="2593.75" y="3690" as="sourcePoint" />
          </mxGeometry>
        </mxCell>
        <mxCell id="KRCCK3rTStJYhaIaurz0-669" style="edgeStyle=orthogonalEdgeStyle;rounded=0;orthogonalLoop=1;jettySize=auto;html=1;exitX=1;exitY=0.5;exitDx=0;exitDy=0;endArrow=none;endFill=0;" parent="WIyWlLk6GJQsqaUBKTNV-1" edge="1">
          <mxGeometry relative="1" as="geometry">
            <Array as="points">
              <mxPoint x="2630" y="3795" />
              <mxPoint x="2630" y="3930" />
              <mxPoint x="2529" y="3930" />
            </Array>
            <mxPoint x="2578.12" y="3795" as="sourcePoint" />
          </mxGeometry>
        </mxCell>
        <mxCell id="KRCCK3rTStJYhaIaurz0-679" style="edgeStyle=orthogonalEdgeStyle;rounded=0;orthogonalLoop=1;jettySize=auto;html=1;exitX=1;exitY=0.5;exitDx=0;exitDy=0;endArrow=none;endFill=0;" parent="WIyWlLk6GJQsqaUBKTNV-1" edge="1">
          <mxGeometry relative="1" as="geometry">
            <Array as="points">
              <mxPoint x="1880" y="2230" />
              <mxPoint x="1880" y="2800" />
              <mxPoint x="1635" y="2800" />
            </Array>
            <mxPoint x="1700.62" y="2230" as="sourcePoint" />
          </mxGeometry>
        </mxCell>
        <mxCell id="KRCCK3rTStJYhaIaurz0-692" style="edgeStyle=orthogonalEdgeStyle;rounded=0;orthogonalLoop=1;jettySize=auto;html=1;exitX=1;exitY=0.5;exitDx=0;exitDy=0;endArrow=none;endFill=0;" parent="WIyWlLk6GJQsqaUBKTNV-1" edge="1">
          <mxGeometry relative="1" as="geometry">
            <Array as="points">
              <mxPoint x="203" y="120" />
              <mxPoint x="203" y="690" />
              <mxPoint x="-42" y="690" />
            </Array>
            <mxPoint x="23.61999999999989" y="120" as="sourcePoint" />
          </mxGeometry>
        </mxCell>
        <mxCell id="KRCCK3rTStJYhaIaurz0-693" style="edgeStyle=orthogonalEdgeStyle;rounded=0;orthogonalLoop=1;jettySize=auto;html=1;exitX=1;exitY=0.5;exitDx=0;exitDy=0;endArrow=none;endFill=0;" parent="WIyWlLk6GJQsqaUBKTNV-1" edge="1">
          <mxGeometry relative="1" as="geometry">
            <Array as="points">
              <mxPoint x="30" y="-310" />
              <mxPoint x="30" y="-170" />
              <mxPoint x="-50" y="-170" />
            </Array>
            <mxPoint x="10" y="-310" as="sourcePoint" />
          </mxGeometry>
        </mxCell>
        <mxCell id="KRCCK3rTStJYhaIaurz0-694" style="edgeStyle=orthogonalEdgeStyle;rounded=0;orthogonalLoop=1;jettySize=auto;html=1;exitX=1;exitY=0.5;exitDx=0;exitDy=0;endArrow=none;endFill=0;" parent="WIyWlLk6GJQsqaUBKTNV-1" edge="1">
          <mxGeometry relative="1" as="geometry">
            <Array as="points">
              <mxPoint x="170" y="230" />
              <mxPoint x="170" y="600" />
              <mxPoint x="-65" y="600" />
            </Array>
            <mxPoint y="230" as="sourcePoint" />
          </mxGeometry>
        </mxCell>
        <mxCell id="KRCCK3rTStJYhaIaurz0-695" style="edgeStyle=orthogonalEdgeStyle;rounded=0;orthogonalLoop=1;jettySize=auto;html=1;exitX=1;exitY=0.5;exitDx=0;exitDy=0;entryX=0;entryY=0.5;entryDx=0;entryDy=0;endArrow=none;endFill=0;" parent="WIyWlLk6GJQsqaUBKTNV-1" edge="1">
          <mxGeometry relative="1" as="geometry">
            <Array as="points">
              <mxPoint x="20" y="400" />
              <mxPoint x="20" y="580" />
              <mxPoint x="-240" y="580" />
              <mxPoint x="-240" y="230" />
            </Array>
            <mxPoint x="-120" y="230" as="targetPoint" />
          </mxGeometry>
        </mxCell>
        <mxCell id="KRCCK3rTStJYhaIaurz0-696" style="edgeStyle=orthogonalEdgeStyle;rounded=0;orthogonalLoop=1;jettySize=auto;html=1;exitX=0.5;exitY=1;exitDx=0;exitDy=0;entryX=0;entryY=0.5;entryDx=0;entryDy=0;endArrow=none;endFill=0;" parent="WIyWlLk6GJQsqaUBKTNV-1" edge="1">
          <mxGeometry relative="1" as="geometry">
            <Array as="points">
              <mxPoint x="-62" y="580" />
              <mxPoint x="-240" y="580" />
              <mxPoint x="-240" y="230" />
            </Array>
            <mxPoint x="-120" y="230" as="targetPoint" />
          </mxGeometry>
        </mxCell>
        <mxCell id="KRCCK3rTStJYhaIaurz0-697" style="edgeStyle=orthogonalEdgeStyle;rounded=0;orthogonalLoop=1;jettySize=auto;html=1;exitX=1;exitY=0.5;exitDx=0;exitDy=0;endArrow=none;endFill=0;" parent="WIyWlLk6GJQsqaUBKTNV-1" edge="1">
          <mxGeometry relative="1" as="geometry">
            <Array as="points">
              <mxPoint x="90" y="660" />
              <mxPoint x="90" y="900" />
              <mxPoint x="-72" y="900" />
            </Array>
            <mxPoint x="-2.5" y="660" as="sourcePoint" />
          </mxGeometry>
        </mxCell>
        <mxCell id="KRCCK3rTStJYhaIaurz0-709" style="edgeStyle=orthogonalEdgeStyle;rounded=0;orthogonalLoop=1;jettySize=auto;html=1;exitX=1;exitY=0.5;exitDx=0;exitDy=0;endArrow=none;endFill=0;" parent="WIyWlLk6GJQsqaUBKTNV-1" edge="1">
          <mxGeometry relative="1" as="geometry">
            <Array as="points">
              <mxPoint x="1493" y="-250" />
              <mxPoint x="1493" y="320" />
              <mxPoint x="1248" y="320" />
            </Array>
            <mxPoint x="1313.62" y="-250" as="sourcePoint" />
          </mxGeometry>
        </mxCell>
        <mxCell id="KRCCK3rTStJYhaIaurz0-710" style="edgeStyle=orthogonalEdgeStyle;rounded=0;orthogonalLoop=1;jettySize=auto;html=1;exitX=1;exitY=0.5;exitDx=0;exitDy=0;endArrow=none;endFill=0;" parent="WIyWlLk6GJQsqaUBKTNV-1" edge="1">
          <mxGeometry relative="1" as="geometry">
            <Array as="points">
              <mxPoint x="1320" y="-680" />
              <mxPoint x="1320" y="-540" />
              <mxPoint x="1240" y="-540" />
            </Array>
            <mxPoint x="1300" y="-680" as="sourcePoint" />
          </mxGeometry>
        </mxCell>
        <mxCell id="KRCCK3rTStJYhaIaurz0-711" style="edgeStyle=orthogonalEdgeStyle;rounded=0;orthogonalLoop=1;jettySize=auto;html=1;exitX=1;exitY=0.5;exitDx=0;exitDy=0;endArrow=none;endFill=0;" parent="WIyWlLk6GJQsqaUBKTNV-1" edge="1">
          <mxGeometry relative="1" as="geometry">
            <Array as="points">
              <mxPoint x="1460" y="-140" />
              <mxPoint x="1460" y="230" />
              <mxPoint x="1225" y="230" />
            </Array>
            <mxPoint x="1290" y="-140" as="sourcePoint" />
          </mxGeometry>
        </mxCell>
        <mxCell id="KRCCK3rTStJYhaIaurz0-712" style="edgeStyle=orthogonalEdgeStyle;rounded=0;orthogonalLoop=1;jettySize=auto;html=1;exitX=1;exitY=0.5;exitDx=0;exitDy=0;entryX=0;entryY=0.5;entryDx=0;entryDy=0;endArrow=none;endFill=0;" parent="WIyWlLk6GJQsqaUBKTNV-1" edge="1">
          <mxGeometry relative="1" as="geometry">
            <Array as="points">
              <mxPoint x="1310" y="30" />
              <mxPoint x="1310" y="210" />
              <mxPoint x="1050" y="210" />
              <mxPoint x="1050" y="-140" />
            </Array>
            <mxPoint x="1170" y="-140" as="targetPoint" />
          </mxGeometry>
        </mxCell>
        <mxCell id="KRCCK3rTStJYhaIaurz0-713" style="edgeStyle=orthogonalEdgeStyle;rounded=0;orthogonalLoop=1;jettySize=auto;html=1;exitX=0.5;exitY=1;exitDx=0;exitDy=0;entryX=0;entryY=0.5;entryDx=0;entryDy=0;endArrow=none;endFill=0;" parent="WIyWlLk6GJQsqaUBKTNV-1" edge="1">
          <mxGeometry relative="1" as="geometry">
            <Array as="points">
              <mxPoint x="1228" y="210" />
              <mxPoint x="1050" y="210" />
              <mxPoint x="1050" y="-140" />
            </Array>
            <mxPoint x="1170" y="-140" as="targetPoint" />
          </mxGeometry>
        </mxCell>
        <mxCell id="KRCCK3rTStJYhaIaurz0-714" style="edgeStyle=orthogonalEdgeStyle;rounded=0;orthogonalLoop=1;jettySize=auto;html=1;exitX=1;exitY=0.5;exitDx=0;exitDy=0;endArrow=none;endFill=0;" parent="WIyWlLk6GJQsqaUBKTNV-1" edge="1">
          <mxGeometry relative="1" as="geometry">
            <Array as="points">
              <mxPoint x="1380" y="290" />
              <mxPoint x="1380" y="530" />
              <mxPoint x="1218" y="530" />
            </Array>
            <mxPoint x="1287.5" y="290" as="sourcePoint" />
          </mxGeometry>
        </mxCell>
        <mxCell id="KRCCK3rTStJYhaIaurz0-724" style="edgeStyle=orthogonalEdgeStyle;rounded=0;orthogonalLoop=1;jettySize=auto;html=1;exitX=1;exitY=0.5;exitDx=0;exitDy=0;endArrow=none;endFill=0;" parent="WIyWlLk6GJQsqaUBKTNV-1" edge="1">
          <mxGeometry relative="1" as="geometry">
            <Array as="points">
              <mxPoint x="1323" y="850" />
              <mxPoint x="1323" y="1420" />
              <mxPoint x="1078" y="1420" />
            </Array>
            <mxPoint x="1143.62" y="850" as="sourcePoint" />
          </mxGeometry>
        </mxCell>
        <mxCell id="KRCCK3rTStJYhaIaurz0-725" style="edgeStyle=orthogonalEdgeStyle;rounded=0;orthogonalLoop=1;jettySize=auto;html=1;exitX=1;exitY=0.5;exitDx=0;exitDy=0;endArrow=none;endFill=0;" parent="WIyWlLk6GJQsqaUBKTNV-1" edge="1">
          <mxGeometry relative="1" as="geometry">
            <Array as="points">
              <mxPoint x="1150" y="420" />
              <mxPoint x="1150" y="560" />
              <mxPoint x="1070" y="560" />
            </Array>
            <mxPoint x="1130" y="420" as="sourcePoint" />
          </mxGeometry>
        </mxCell>
        <mxCell id="KRCCK3rTStJYhaIaurz0-726" style="edgeStyle=orthogonalEdgeStyle;rounded=0;orthogonalLoop=1;jettySize=auto;html=1;exitX=1;exitY=0.5;exitDx=0;exitDy=0;endArrow=none;endFill=0;" parent="WIyWlLk6GJQsqaUBKTNV-1" edge="1">
          <mxGeometry relative="1" as="geometry">
            <Array as="points">
              <mxPoint x="1290" y="960" />
              <mxPoint x="1290" y="1330" />
              <mxPoint x="1055" y="1330" />
            </Array>
            <mxPoint x="1120" y="960" as="sourcePoint" />
          </mxGeometry>
        </mxCell>
        <mxCell id="KRCCK3rTStJYhaIaurz0-727" style="edgeStyle=orthogonalEdgeStyle;rounded=0;orthogonalLoop=1;jettySize=auto;html=1;exitX=1;exitY=0.5;exitDx=0;exitDy=0;entryX=0;entryY=0.5;entryDx=0;entryDy=0;endArrow=none;endFill=0;" parent="WIyWlLk6GJQsqaUBKTNV-1" edge="1">
          <mxGeometry relative="1" as="geometry">
            <Array as="points">
              <mxPoint x="1140" y="1130" />
              <mxPoint x="1140" y="1310" />
              <mxPoint x="880" y="1310" />
              <mxPoint x="880" y="960" />
            </Array>
            <mxPoint x="1000" y="960" as="targetPoint" />
          </mxGeometry>
        </mxCell>
        <mxCell id="KRCCK3rTStJYhaIaurz0-728" style="edgeStyle=orthogonalEdgeStyle;rounded=0;orthogonalLoop=1;jettySize=auto;html=1;exitX=0.5;exitY=1;exitDx=0;exitDy=0;entryX=0;entryY=0.5;entryDx=0;entryDy=0;endArrow=none;endFill=0;" parent="WIyWlLk6GJQsqaUBKTNV-1" edge="1">
          <mxGeometry relative="1" as="geometry">
            <Array as="points">
              <mxPoint x="1058" y="1310" />
              <mxPoint x="880" y="1310" />
              <mxPoint x="880" y="960" />
            </Array>
            <mxPoint x="1000" y="960" as="targetPoint" />
          </mxGeometry>
        </mxCell>
        <mxCell id="KRCCK3rTStJYhaIaurz0-729" style="edgeStyle=orthogonalEdgeStyle;rounded=0;orthogonalLoop=1;jettySize=auto;html=1;exitX=1;exitY=0.5;exitDx=0;exitDy=0;endArrow=none;endFill=0;" parent="WIyWlLk6GJQsqaUBKTNV-1" edge="1">
          <mxGeometry relative="1" as="geometry">
            <Array as="points">
              <mxPoint x="1210" y="1390" />
              <mxPoint x="1210" y="1630" />
              <mxPoint x="1048" y="1630" />
            </Array>
            <mxPoint x="1117.5" y="1390" as="sourcePoint" />
          </mxGeometry>
        </mxCell>
        <mxCell id="KRCCK3rTStJYhaIaurz0-803" style="edgeStyle=orthogonalEdgeStyle;rounded=0;orthogonalLoop=1;jettySize=auto;html=1;exitX=1;exitY=0.5;exitDx=0;exitDy=0;entryX=0;entryY=0.5;entryDx=0;entryDy=0;endArrow=none;endFill=0;" parent="WIyWlLk6GJQsqaUBKTNV-1" edge="1">
          <mxGeometry relative="1" as="geometry">
            <Array as="points">
              <mxPoint x="420" y="4635" />
              <mxPoint x="420" y="5120" />
              <mxPoint x="40" y="5120" />
              <mxPoint x="40" y="4565" />
            </Array>
            <mxPoint x="210" y="4565" as="targetPoint" />
          </mxGeometry>
        </mxCell>
        <mxCell id="KRCCK3rTStJYhaIaurz0-827" style="edgeStyle=orthogonalEdgeStyle;rounded=0;orthogonalLoop=1;jettySize=auto;html=1;exitX=1;exitY=0.5;exitDx=0;exitDy=0;" parent="WIyWlLk6GJQsqaUBKTNV-1" edge="1">
          <mxGeometry relative="1" as="geometry">
            <Array as="points">
              <mxPoint x="380" y="2590" />
              <mxPoint x="380" y="3090" />
              <mxPoint x="270" y="3090" />
            </Array>
            <mxPoint x="335" y="2590" as="sourcePoint" />
          </mxGeometry>
        </mxCell>
        <mxCell id="KRCCK3rTStJYhaIaurz0-843" style="edgeStyle=orthogonalEdgeStyle;rounded=0;orthogonalLoop=1;jettySize=auto;html=1;exitX=1;exitY=0.5;exitDx=0;exitDy=0;endArrow=none;endFill=0;" parent="WIyWlLk6GJQsqaUBKTNV-1" edge="1">
          <mxGeometry relative="1" as="geometry">
            <Array as="points">
              <mxPoint x="1060" y="2910" />
              <mxPoint x="1060" y="3050" />
              <mxPoint x="980" y="3050" />
            </Array>
            <mxPoint x="1040" y="2910" as="sourcePoint" />
          </mxGeometry>
        </mxCell>
        <mxCell id="KRCCK3rTStJYhaIaurz0-844" style="edgeStyle=orthogonalEdgeStyle;rounded=0;orthogonalLoop=1;jettySize=auto;html=1;exitX=1;exitY=0.5;exitDx=0;exitDy=0;endArrow=none;endFill=0;" parent="WIyWlLk6GJQsqaUBKTNV-1" edge="1">
          <mxGeometry relative="1" as="geometry">
            <Array as="points">
              <mxPoint x="1200" y="3450" />
              <mxPoint x="1200" y="3820" />
              <mxPoint x="965" y="3820" />
            </Array>
            <mxPoint x="1030" y="3450" as="sourcePoint" />
          </mxGeometry>
        </mxCell>
        <mxCell id="KRCCK3rTStJYhaIaurz0-845" style="edgeStyle=orthogonalEdgeStyle;rounded=0;orthogonalLoop=1;jettySize=auto;html=1;exitX=1;exitY=0.5;exitDx=0;exitDy=0;entryX=0;entryY=0.5;entryDx=0;entryDy=0;endArrow=none;endFill=0;" parent="WIyWlLk6GJQsqaUBKTNV-1" edge="1">
          <mxGeometry relative="1" as="geometry">
            <Array as="points">
              <mxPoint x="1050" y="3620" />
              <mxPoint x="1050" y="3800" />
              <mxPoint x="790" y="3800" />
              <mxPoint x="790" y="3450" />
            </Array>
            <mxPoint x="910" y="3450" as="targetPoint" />
          </mxGeometry>
        </mxCell>
        <mxCell id="KRCCK3rTStJYhaIaurz0-846" style="edgeStyle=orthogonalEdgeStyle;rounded=0;orthogonalLoop=1;jettySize=auto;html=1;exitX=0.5;exitY=1;exitDx=0;exitDy=0;entryX=0;entryY=0.5;entryDx=0;entryDy=0;endArrow=none;endFill=0;" parent="WIyWlLk6GJQsqaUBKTNV-1" edge="1">
          <mxGeometry relative="1" as="geometry">
            <Array as="points">
              <mxPoint x="968" y="3800" />
              <mxPoint x="790" y="3800" />
              <mxPoint x="790" y="3450" />
            </Array>
            <mxPoint x="910" y="3450" as="targetPoint" />
          </mxGeometry>
        </mxCell>
        <mxCell id="KRCCK3rTStJYhaIaurz0-847" style="edgeStyle=orthogonalEdgeStyle;rounded=0;orthogonalLoop=1;jettySize=auto;html=1;exitX=1;exitY=0.5;exitDx=0;exitDy=0;endArrow=none;endFill=0;" parent="WIyWlLk6GJQsqaUBKTNV-1" edge="1">
          <mxGeometry relative="1" as="geometry">
            <Array as="points">
              <mxPoint x="1120" y="3880" />
              <mxPoint x="1120" y="4120" />
              <mxPoint x="958" y="4120" />
            </Array>
            <mxPoint x="1027.5" y="3880" as="sourcePoint" />
          </mxGeometry>
        </mxCell>
        <mxCell id="i5UNZcJOqayFlJNNMky4-99" style="edgeStyle=orthogonalEdgeStyle;rounded=0;orthogonalLoop=1;jettySize=auto;html=1;exitX=1;exitY=0.5;exitDx=0;exitDy=0;entryX=0;entryY=0.5;entryDx=0;entryDy=0;endArrow=none;endFill=0;" parent="WIyWlLk6GJQsqaUBKTNV-1" edge="1">
          <mxGeometry relative="1" as="geometry">
            <Array as="points">
              <mxPoint x="1690" y="3045" />
              <mxPoint x="1690" y="3530" />
              <mxPoint x="1310" y="3530" />
              <mxPoint x="1310" y="2975" />
            </Array>
            <mxPoint x="1480" y="2975" as="targetPoint" />
          </mxGeometry>
        </mxCell>
        <mxCell id="i5UNZcJOqayFlJNNMky4-100" style="edgeStyle=orthogonalEdgeStyle;rounded=0;orthogonalLoop=1;jettySize=auto;html=1;exitX=1;exitY=0.5;exitDx=0;exitDy=0;entryX=0;entryY=0.5;entryDx=0;entryDy=0;endArrow=none;endFill=0;" parent="WIyWlLk6GJQsqaUBKTNV-1" edge="1">
          <mxGeometry relative="1" as="geometry">
            <mxPoint x="1480" y="3045" as="targetPoint" />
            <Array as="points">
              <mxPoint x="1640" y="3115" />
              <mxPoint x="1640" y="3520" />
              <mxPoint x="1390" y="3520" />
              <mxPoint x="1390" y="3045" />
            </Array>
          </mxGeometry>
        </mxCell>
        <mxCell id="i5UNZcJOqayFlJNNMky4-101" style="edgeStyle=orthogonalEdgeStyle;rounded=0;orthogonalLoop=1;jettySize=auto;html=1;exitX=1;exitY=0.5;exitDx=0;exitDy=0;endArrow=none;endFill=0;" parent="WIyWlLk6GJQsqaUBKTNV-1" edge="1">
          <mxGeometry relative="1" as="geometry">
            <Array as="points">
              <mxPoint x="2330" y="1320" />
              <mxPoint x="2330" y="1460" />
              <mxPoint x="2250" y="1460" />
            </Array>
            <mxPoint x="2310" y="1320" as="sourcePoint" />
          </mxGeometry>
        </mxCell>
        <mxCell id="i5UNZcJOqayFlJNNMky4-102" style="edgeStyle=orthogonalEdgeStyle;rounded=0;orthogonalLoop=1;jettySize=auto;html=1;exitX=1;exitY=0.5;exitDx=0;exitDy=0;endArrow=none;endFill=0;" parent="WIyWlLk6GJQsqaUBKTNV-1" edge="1">
          <mxGeometry relative="1" as="geometry">
            <Array as="points">
              <mxPoint x="2470" y="1860" />
              <mxPoint x="2470" y="2230" />
              <mxPoint x="2235" y="2230" />
            </Array>
            <mxPoint x="2300" y="1860" as="sourcePoint" />
          </mxGeometry>
        </mxCell>
        <mxCell id="i5UNZcJOqayFlJNNMky4-103" style="edgeStyle=orthogonalEdgeStyle;rounded=0;orthogonalLoop=1;jettySize=auto;html=1;exitX=1;exitY=0.5;exitDx=0;exitDy=0;entryX=0;entryY=0.5;entryDx=0;entryDy=0;endArrow=none;endFill=0;" parent="WIyWlLk6GJQsqaUBKTNV-1" edge="1">
          <mxGeometry relative="1" as="geometry">
            <Array as="points">
              <mxPoint x="2320" y="2030" />
              <mxPoint x="2320" y="2210" />
              <mxPoint x="2060" y="2210" />
              <mxPoint x="2060" y="1860" />
            </Array>
            <mxPoint x="2180" y="1860" as="targetPoint" />
          </mxGeometry>
        </mxCell>
        <mxCell id="i5UNZcJOqayFlJNNMky4-104" style="edgeStyle=orthogonalEdgeStyle;rounded=0;orthogonalLoop=1;jettySize=auto;html=1;exitX=0.5;exitY=1;exitDx=0;exitDy=0;entryX=0;entryY=0.5;entryDx=0;entryDy=0;endArrow=none;endFill=0;" parent="WIyWlLk6GJQsqaUBKTNV-1" edge="1">
          <mxGeometry relative="1" as="geometry">
            <Array as="points">
              <mxPoint x="2238" y="2210" />
              <mxPoint x="2060" y="2210" />
              <mxPoint x="2060" y="1860" />
            </Array>
            <mxPoint x="2180" y="1860" as="targetPoint" />
          </mxGeometry>
        </mxCell>
        <mxCell id="i5UNZcJOqayFlJNNMky4-105" style="edgeStyle=orthogonalEdgeStyle;rounded=0;orthogonalLoop=1;jettySize=auto;html=1;exitX=1;exitY=0.5;exitDx=0;exitDy=0;endArrow=none;endFill=0;" parent="WIyWlLk6GJQsqaUBKTNV-1" edge="1">
          <mxGeometry relative="1" as="geometry">
            <Array as="points">
              <mxPoint x="2390" y="2290" />
              <mxPoint x="2390" y="2530" />
              <mxPoint x="2228" y="2530" />
            </Array>
            <mxPoint x="2297.5" y="2290" as="sourcePoint" />
          </mxGeometry>
        </mxCell>
        <mxCell id="i5UNZcJOqayFlJNNMky4-106" style="edgeStyle=orthogonalEdgeStyle;rounded=0;orthogonalLoop=1;jettySize=auto;html=1;exitX=1;exitY=0.5;exitDx=0;exitDy=0;endArrow=none;endFill=0;" parent="WIyWlLk6GJQsqaUBKTNV-1" edge="1">
          <mxGeometry relative="1" as="geometry">
            <Array as="points">
              <mxPoint x="2510" y="1330" />
              <mxPoint x="2510" y="1899.9999999999998" />
              <mxPoint x="2265" y="1899.9999999999998" />
            </Array>
            <mxPoint x="2330.62" y="1330" as="sourcePoint" />
          </mxGeometry>
        </mxCell>
        <mxCell id="i5UNZcJOqayFlJNNMky4-107" style="edgeStyle=orthogonalEdgeStyle;rounded=0;orthogonalLoop=1;jettySize=auto;html=1;exitX=1;exitY=0.5;exitDx=0;exitDy=0;endArrow=none;endFill=0;" parent="WIyWlLk6GJQsqaUBKTNV-1" edge="1">
          <mxGeometry relative="1" as="geometry">
            <Array as="points">
              <mxPoint x="2370" y="1280" />
              <mxPoint x="2370" y="1850.0000000000002" />
              <mxPoint x="2125" y="1850.0000000000002" />
            </Array>
            <mxPoint x="2190.62" y="1280" as="sourcePoint" />
          </mxGeometry>
        </mxCell>
        <mxCell id="i5UNZcJOqayFlJNNMky4-108" style="edgeStyle=orthogonalEdgeStyle;rounded=0;orthogonalLoop=1;jettySize=auto;html=1;exitX=1;exitY=0.5;exitDx=0;exitDy=0;entryX=0;entryY=0.5;entryDx=0;entryDy=0;endArrow=none;endFill=0;" parent="WIyWlLk6GJQsqaUBKTNV-1" edge="1">
          <mxGeometry relative="1" as="geometry">
            <Array as="points">
              <mxPoint x="2600" y="3565" />
              <mxPoint x="2600" y="4050" />
              <mxPoint x="2220" y="4050" />
              <mxPoint x="2220" y="3495" />
            </Array>
            <mxPoint x="2390" y="3495" as="targetPoint" />
          </mxGeometry>
        </mxCell>
        <mxCell id="i5UNZcJOqayFlJNNMky4-109" style="edgeStyle=orthogonalEdgeStyle;rounded=0;orthogonalLoop=1;jettySize=auto;html=1;exitX=1;exitY=0.5;exitDx=0;exitDy=0;endArrow=none;endFill=0;" parent="WIyWlLk6GJQsqaUBKTNV-1" edge="1">
          <mxGeometry relative="1" as="geometry">
            <Array as="points">
              <mxPoint x="3240" y="1840" />
              <mxPoint x="3240" y="1980" />
              <mxPoint x="3160" y="1980" />
            </Array>
            <mxPoint x="3220" y="1840" as="sourcePoint" />
          </mxGeometry>
        </mxCell>
        <mxCell id="i5UNZcJOqayFlJNNMky4-110" style="edgeStyle=orthogonalEdgeStyle;rounded=0;orthogonalLoop=1;jettySize=auto;html=1;exitX=1;exitY=0.5;exitDx=0;exitDy=0;endArrow=none;endFill=0;" parent="WIyWlLk6GJQsqaUBKTNV-1" edge="1">
          <mxGeometry relative="1" as="geometry">
            <Array as="points">
              <mxPoint x="3380" y="2380" />
              <mxPoint x="3380" y="2750" />
              <mxPoint x="3145" y="2750" />
            </Array>
            <mxPoint x="3210" y="2380" as="sourcePoint" />
          </mxGeometry>
        </mxCell>
        <mxCell id="i5UNZcJOqayFlJNNMky4-111" style="edgeStyle=orthogonalEdgeStyle;rounded=0;orthogonalLoop=1;jettySize=auto;html=1;exitX=1;exitY=0.5;exitDx=0;exitDy=0;entryX=0;entryY=0.5;entryDx=0;entryDy=0;endArrow=none;endFill=0;" parent="WIyWlLk6GJQsqaUBKTNV-1" edge="1">
          <mxGeometry relative="1" as="geometry">
            <Array as="points">
              <mxPoint x="3230" y="2550" />
              <mxPoint x="3230" y="2730" />
              <mxPoint x="2970" y="2730" />
              <mxPoint x="2970" y="2380" />
            </Array>
            <mxPoint x="3090" y="2380" as="targetPoint" />
          </mxGeometry>
        </mxCell>
        <mxCell id="i5UNZcJOqayFlJNNMky4-112" style="edgeStyle=orthogonalEdgeStyle;rounded=0;orthogonalLoop=1;jettySize=auto;html=1;exitX=0.5;exitY=1;exitDx=0;exitDy=0;entryX=0;entryY=0.5;entryDx=0;entryDy=0;endArrow=none;endFill=0;" parent="WIyWlLk6GJQsqaUBKTNV-1" edge="1">
          <mxGeometry relative="1" as="geometry">
            <Array as="points">
              <mxPoint x="3148" y="2730" />
              <mxPoint x="2970" y="2730" />
              <mxPoint x="2970" y="2380" />
            </Array>
            <mxPoint x="3090" y="2380" as="targetPoint" />
          </mxGeometry>
        </mxCell>
        <mxCell id="i5UNZcJOqayFlJNNMky4-113" style="edgeStyle=orthogonalEdgeStyle;rounded=0;orthogonalLoop=1;jettySize=auto;html=1;exitX=1;exitY=0.5;exitDx=0;exitDy=0;endArrow=none;endFill=0;" parent="WIyWlLk6GJQsqaUBKTNV-1" edge="1">
          <mxGeometry relative="1" as="geometry">
            <Array as="points">
              <mxPoint x="3300" y="2810" />
              <mxPoint x="3300" y="3050" />
              <mxPoint x="3138" y="3050" />
            </Array>
            <mxPoint x="3207.5" y="2810" as="sourcePoint" />
          </mxGeometry>
        </mxCell>
        <mxCell id="i5UNZcJOqayFlJNNMky4-114" style="edgeStyle=orthogonalEdgeStyle;rounded=0;orthogonalLoop=1;jettySize=auto;html=1;exitX=1;exitY=0.5;exitDx=0;exitDy=0;endArrow=none;endFill=0;" parent="WIyWlLk6GJQsqaUBKTNV-1" edge="1">
          <mxGeometry relative="1" as="geometry">
            <Array as="points">
              <mxPoint x="2240" y="3640" />
              <mxPoint x="2240" y="4210" />
              <mxPoint x="1995" y="4210" />
            </Array>
            <mxPoint x="2060.62" y="3640" as="sourcePoint" />
          </mxGeometry>
        </mxCell>
        <mxCell id="i5UNZcJOqayFlJNNMky4-115" style="edgeStyle=orthogonalEdgeStyle;rounded=0;orthogonalLoop=1;jettySize=auto;html=1;exitX=1;exitY=0.5;exitDx=0;exitDy=0;endArrow=none;endFill=0;" parent="WIyWlLk6GJQsqaUBKTNV-1" edge="1">
          <mxGeometry relative="1" as="geometry">
            <Array as="points">
              <mxPoint x="2313" y="4310" />
              <mxPoint x="2313" y="4880" />
              <mxPoint x="2068" y="4880" />
            </Array>
            <mxPoint x="2133.62" y="4310" as="sourcePoint" />
          </mxGeometry>
        </mxCell>
        <mxCell id="i5UNZcJOqayFlJNNMky4-116" style="edgeStyle=orthogonalEdgeStyle;rounded=0;orthogonalLoop=1;jettySize=auto;html=1;exitX=1;exitY=0.5;exitDx=0;exitDy=0;endArrow=none;endFill=0;" parent="WIyWlLk6GJQsqaUBKTNV-1" edge="1">
          <mxGeometry relative="1" as="geometry">
            <Array as="points">
              <mxPoint x="2140" y="3880" />
              <mxPoint x="2140" y="4020" />
              <mxPoint x="2060" y="4020" />
            </Array>
            <mxPoint x="2120" y="3880" as="sourcePoint" />
          </mxGeometry>
        </mxCell>
        <mxCell id="i5UNZcJOqayFlJNNMky4-117" style="edgeStyle=orthogonalEdgeStyle;rounded=0;orthogonalLoop=1;jettySize=auto;html=1;exitX=1;exitY=0.5;exitDx=0;exitDy=0;endArrow=none;endFill=0;" parent="WIyWlLk6GJQsqaUBKTNV-1" edge="1">
          <mxGeometry relative="1" as="geometry">
            <Array as="points">
              <mxPoint x="2280" y="4420" />
              <mxPoint x="2280" y="4790" />
              <mxPoint x="2045" y="4790" />
            </Array>
            <mxPoint x="2110" y="4420" as="sourcePoint" />
          </mxGeometry>
        </mxCell>
        <mxCell id="i5UNZcJOqayFlJNNMky4-118" style="edgeStyle=orthogonalEdgeStyle;rounded=0;orthogonalLoop=1;jettySize=auto;html=1;exitX=1;exitY=0.5;exitDx=0;exitDy=0;entryX=0;entryY=0.5;entryDx=0;entryDy=0;endArrow=none;endFill=0;" parent="WIyWlLk6GJQsqaUBKTNV-1" edge="1">
          <mxGeometry relative="1" as="geometry">
            <Array as="points">
              <mxPoint x="2130" y="4590" />
              <mxPoint x="2130" y="4770" />
              <mxPoint x="1870" y="4770" />
              <mxPoint x="1870" y="4420" />
            </Array>
            <mxPoint x="1990" y="4420" as="targetPoint" />
          </mxGeometry>
        </mxCell>
        <mxCell id="i5UNZcJOqayFlJNNMky4-119" style="edgeStyle=orthogonalEdgeStyle;rounded=0;orthogonalLoop=1;jettySize=auto;html=1;exitX=0.5;exitY=1;exitDx=0;exitDy=0;entryX=0;entryY=0.5;entryDx=0;entryDy=0;endArrow=none;endFill=0;" parent="WIyWlLk6GJQsqaUBKTNV-1" edge="1">
          <mxGeometry relative="1" as="geometry">
            <Array as="points">
              <mxPoint x="2048" y="4770" />
              <mxPoint x="1870" y="4770" />
              <mxPoint x="1870" y="4420" />
            </Array>
            <mxPoint x="1990" y="4420" as="targetPoint" />
          </mxGeometry>
        </mxCell>
        <mxCell id="i5UNZcJOqayFlJNNMky4-120" style="edgeStyle=orthogonalEdgeStyle;rounded=0;orthogonalLoop=1;jettySize=auto;html=1;exitX=1;exitY=0.5;exitDx=0;exitDy=0;endArrow=none;endFill=0;" parent="WIyWlLk6GJQsqaUBKTNV-1" edge="1">
          <mxGeometry relative="1" as="geometry">
            <Array as="points">
              <mxPoint x="2200" y="4850" />
              <mxPoint x="2200" y="5090" />
              <mxPoint x="2038" y="5090" />
            </Array>
            <mxPoint x="2107.5" y="4850" as="sourcePoint" />
          </mxGeometry>
        </mxCell>
        <mxCell id="i5UNZcJOqayFlJNNMky4-121" style="edgeStyle=orthogonalEdgeStyle;rounded=0;orthogonalLoop=1;jettySize=auto;html=1;exitX=1;exitY=0.5;exitDx=0;exitDy=0;endArrow=none;endFill=0;" parent="WIyWlLk6GJQsqaUBKTNV-1" edge="1">
          <mxGeometry relative="1" as="geometry">
            <Array as="points">
              <mxPoint x="2223" y="6070" />
              <mxPoint x="2223" y="6640" />
              <mxPoint x="1978" y="6640" />
            </Array>
            <mxPoint x="2043.62" y="6070" as="sourcePoint" />
          </mxGeometry>
        </mxCell>
        <mxCell id="i5UNZcJOqayFlJNNMky4-122" style="edgeStyle=orthogonalEdgeStyle;rounded=0;orthogonalLoop=1;jettySize=auto;html=1;exitX=1;exitY=0.5;exitDx=0;exitDy=0;endArrow=none;endFill=0;" parent="WIyWlLk6GJQsqaUBKTNV-1" edge="1">
          <mxGeometry relative="1" as="geometry">
            <Array as="points">
              <mxPoint x="2050" y="5640" />
              <mxPoint x="2050" y="5780" />
              <mxPoint x="1970" y="5780" />
            </Array>
            <mxPoint x="2030" y="5640" as="sourcePoint" />
          </mxGeometry>
        </mxCell>
        <mxCell id="i5UNZcJOqayFlJNNMky4-123" style="edgeStyle=orthogonalEdgeStyle;rounded=0;orthogonalLoop=1;jettySize=auto;html=1;exitX=1;exitY=0.5;exitDx=0;exitDy=0;endArrow=none;endFill=0;" parent="WIyWlLk6GJQsqaUBKTNV-1" edge="1">
          <mxGeometry relative="1" as="geometry">
            <Array as="points">
              <mxPoint x="2190" y="6180" />
              <mxPoint x="2190" y="6550" />
              <mxPoint x="1955" y="6550" />
            </Array>
            <mxPoint x="2020" y="6180" as="sourcePoint" />
          </mxGeometry>
        </mxCell>
        <mxCell id="i5UNZcJOqayFlJNNMky4-124" style="edgeStyle=orthogonalEdgeStyle;rounded=0;orthogonalLoop=1;jettySize=auto;html=1;exitX=1;exitY=0.5;exitDx=0;exitDy=0;entryX=0;entryY=0.5;entryDx=0;entryDy=0;endArrow=none;endFill=0;" parent="WIyWlLk6GJQsqaUBKTNV-1" edge="1">
          <mxGeometry relative="1" as="geometry">
            <Array as="points">
              <mxPoint x="2040" y="6350" />
              <mxPoint x="2040" y="6530" />
              <mxPoint x="1780" y="6530" />
              <mxPoint x="1780" y="6180" />
            </Array>
            <mxPoint x="1900" y="6180" as="targetPoint" />
          </mxGeometry>
        </mxCell>
        <mxCell id="i5UNZcJOqayFlJNNMky4-125" style="edgeStyle=orthogonalEdgeStyle;rounded=0;orthogonalLoop=1;jettySize=auto;html=1;exitX=0.5;exitY=1;exitDx=0;exitDy=0;entryX=0;entryY=0.5;entryDx=0;entryDy=0;endArrow=none;endFill=0;" parent="WIyWlLk6GJQsqaUBKTNV-1" edge="1">
          <mxGeometry relative="1" as="geometry">
            <Array as="points">
              <mxPoint x="1958" y="6530" />
              <mxPoint x="1780" y="6530" />
              <mxPoint x="1780" y="6180" />
            </Array>
            <mxPoint x="1900" y="6180" as="targetPoint" />
          </mxGeometry>
        </mxCell>
        <mxCell id="i5UNZcJOqayFlJNNMky4-126" style="edgeStyle=orthogonalEdgeStyle;rounded=0;orthogonalLoop=1;jettySize=auto;html=1;exitX=1;exitY=0.5;exitDx=0;exitDy=0;endArrow=none;endFill=0;" parent="WIyWlLk6GJQsqaUBKTNV-1" edge="1">
          <mxGeometry relative="1" as="geometry">
            <Array as="points">
              <mxPoint x="2110" y="6610" />
              <mxPoint x="2110" y="6850" />
              <mxPoint x="1948" y="6850" />
            </Array>
            <mxPoint x="2017.5" y="6610" as="sourcePoint" />
          </mxGeometry>
        </mxCell>
        <mxCell id="i5UNZcJOqayFlJNNMky4-127" style="edgeStyle=orthogonalEdgeStyle;rounded=0;orthogonalLoop=1;jettySize=auto;html=1;exitX=1;exitY=0.5;exitDx=0;exitDy=0;endArrow=none;endFill=0;" parent="WIyWlLk6GJQsqaUBKTNV-1" edge="1">
          <mxGeometry relative="1" as="geometry">
            <Array as="points">
              <mxPoint x="2053" y="7920" />
              <mxPoint x="2053" y="8490" />
              <mxPoint x="1808" y="8490" />
            </Array>
            <mxPoint x="1873.62" y="7920" as="sourcePoint" />
          </mxGeometry>
        </mxCell>
        <mxCell id="i5UNZcJOqayFlJNNMky4-128" style="edgeStyle=orthogonalEdgeStyle;rounded=0;orthogonalLoop=1;jettySize=auto;html=1;exitX=1;exitY=0.5;exitDx=0;exitDy=0;endArrow=none;endFill=0;" parent="WIyWlLk6GJQsqaUBKTNV-1" edge="1">
          <mxGeometry relative="1" as="geometry">
            <Array as="points">
              <mxPoint x="1880" y="7490" />
              <mxPoint x="1880" y="7630" />
              <mxPoint x="1800" y="7630" />
            </Array>
            <mxPoint x="1860" y="7490" as="sourcePoint" />
          </mxGeometry>
        </mxCell>
        <mxCell id="i5UNZcJOqayFlJNNMky4-129" style="edgeStyle=orthogonalEdgeStyle;rounded=0;orthogonalLoop=1;jettySize=auto;html=1;exitX=1;exitY=0.5;exitDx=0;exitDy=0;endArrow=none;endFill=0;" parent="WIyWlLk6GJQsqaUBKTNV-1" edge="1">
          <mxGeometry relative="1" as="geometry">
            <Array as="points">
              <mxPoint x="2020" y="8030" />
              <mxPoint x="2020" y="8400" />
              <mxPoint x="1785" y="8400" />
            </Array>
            <mxPoint x="1850" y="8030" as="sourcePoint" />
          </mxGeometry>
        </mxCell>
        <mxCell id="i5UNZcJOqayFlJNNMky4-130" style="edgeStyle=orthogonalEdgeStyle;rounded=0;orthogonalLoop=1;jettySize=auto;html=1;exitX=1;exitY=0.5;exitDx=0;exitDy=0;entryX=0;entryY=0.5;entryDx=0;entryDy=0;endArrow=none;endFill=0;" parent="WIyWlLk6GJQsqaUBKTNV-1" edge="1">
          <mxGeometry relative="1" as="geometry">
            <Array as="points">
              <mxPoint x="1870" y="8200" />
              <mxPoint x="1870" y="8380" />
              <mxPoint x="1610" y="8380" />
              <mxPoint x="1610" y="8030" />
            </Array>
            <mxPoint x="1730" y="8030" as="targetPoint" />
          </mxGeometry>
        </mxCell>
        <mxCell id="i5UNZcJOqayFlJNNMky4-131" style="edgeStyle=orthogonalEdgeStyle;rounded=0;orthogonalLoop=1;jettySize=auto;html=1;exitX=0.5;exitY=1;exitDx=0;exitDy=0;entryX=0;entryY=0.5;entryDx=0;entryDy=0;endArrow=none;endFill=0;" parent="WIyWlLk6GJQsqaUBKTNV-1" edge="1">
          <mxGeometry relative="1" as="geometry">
            <Array as="points">
              <mxPoint x="1788" y="8380" />
              <mxPoint x="1610" y="8380" />
              <mxPoint x="1610" y="8030" />
            </Array>
            <mxPoint x="1730" y="8030" as="targetPoint" />
          </mxGeometry>
        </mxCell>
        <mxCell id="i5UNZcJOqayFlJNNMky4-132" style="edgeStyle=orthogonalEdgeStyle;rounded=0;orthogonalLoop=1;jettySize=auto;html=1;exitX=1;exitY=0.5;exitDx=0;exitDy=0;endArrow=none;endFill=0;" parent="WIyWlLk6GJQsqaUBKTNV-1" edge="1">
          <mxGeometry relative="1" as="geometry">
            <Array as="points">
              <mxPoint x="1940" y="8460" />
              <mxPoint x="1940" y="8700" />
              <mxPoint x="1778" y="8700" />
            </Array>
            <mxPoint x="1847.5" y="8460" as="sourcePoint" />
          </mxGeometry>
        </mxCell>
        <mxCell id="i5UNZcJOqayFlJNNMky4-133" style="edgeStyle=orthogonalEdgeStyle;rounded=0;orthogonalLoop=1;jettySize=auto;html=1;exitX=1;exitY=0.5;exitDx=0;exitDy=0;endArrow=none;endFill=0;" parent="WIyWlLk6GJQsqaUBKTNV-1" edge="1">
          <mxGeometry relative="1" as="geometry">
            <Array as="points">
              <mxPoint x="2510.02" y="7970" />
              <mxPoint x="2510.02" y="8540" />
              <mxPoint x="2265.02" y="8540" />
            </Array>
            <mxPoint x="2330.64" y="7970" as="sourcePoint" />
          </mxGeometry>
        </mxCell>
        <mxCell id="i5UNZcJOqayFlJNNMky4-134" style="edgeStyle=orthogonalEdgeStyle;rounded=0;orthogonalLoop=1;jettySize=auto;html=1;exitX=1;exitY=0.5;exitDx=0;exitDy=0;endArrow=none;endFill=0;" parent="WIyWlLk6GJQsqaUBKTNV-1" edge="1">
          <mxGeometry relative="1" as="geometry">
            <Array as="points">
              <mxPoint x="2337.02" y="7540" />
              <mxPoint x="2337.02" y="7680" />
              <mxPoint x="2257.02" y="7680" />
            </Array>
            <mxPoint x="2317.02" y="7540" as="sourcePoint" />
          </mxGeometry>
        </mxCell>
        <mxCell id="i5UNZcJOqayFlJNNMky4-135" style="edgeStyle=orthogonalEdgeStyle;rounded=0;orthogonalLoop=1;jettySize=auto;html=1;exitX=1;exitY=0.5;exitDx=0;exitDy=0;endArrow=none;endFill=0;" parent="WIyWlLk6GJQsqaUBKTNV-1" edge="1">
          <mxGeometry relative="1" as="geometry">
            <Array as="points">
              <mxPoint x="2477.02" y="8080" />
              <mxPoint x="2477.02" y="8450" />
              <mxPoint x="2242.02" y="8450" />
            </Array>
            <mxPoint x="2307.02" y="8080" as="sourcePoint" />
          </mxGeometry>
        </mxCell>
        <mxCell id="i5UNZcJOqayFlJNNMky4-136" style="edgeStyle=orthogonalEdgeStyle;rounded=0;orthogonalLoop=1;jettySize=auto;html=1;exitX=1;exitY=0.5;exitDx=0;exitDy=0;entryX=0;entryY=0.5;entryDx=0;entryDy=0;endArrow=none;endFill=0;" parent="WIyWlLk6GJQsqaUBKTNV-1" edge="1">
          <mxGeometry relative="1" as="geometry">
            <Array as="points">
              <mxPoint x="2327.02" y="8250" />
              <mxPoint x="2327.02" y="8430" />
              <mxPoint x="2067.02" y="8430" />
              <mxPoint x="2067.02" y="8080" />
            </Array>
            <mxPoint x="2187.02" y="8080" as="targetPoint" />
          </mxGeometry>
        </mxCell>
        <mxCell id="i5UNZcJOqayFlJNNMky4-137" style="edgeStyle=orthogonalEdgeStyle;rounded=0;orthogonalLoop=1;jettySize=auto;html=1;exitX=0.5;exitY=1;exitDx=0;exitDy=0;entryX=0;entryY=0.5;entryDx=0;entryDy=0;endArrow=none;endFill=0;" parent="WIyWlLk6GJQsqaUBKTNV-1" edge="1">
          <mxGeometry relative="1" as="geometry">
            <Array as="points">
              <mxPoint x="2245.02" y="8430" />
              <mxPoint x="2067.02" y="8430" />
              <mxPoint x="2067.02" y="8080" />
            </Array>
            <mxPoint x="2187.02" y="8080" as="targetPoint" />
          </mxGeometry>
        </mxCell>
        <mxCell id="i5UNZcJOqayFlJNNMky4-138" style="edgeStyle=orthogonalEdgeStyle;rounded=0;orthogonalLoop=1;jettySize=auto;html=1;exitX=1;exitY=0.5;exitDx=0;exitDy=0;endArrow=none;endFill=0;" parent="WIyWlLk6GJQsqaUBKTNV-1" edge="1">
          <mxGeometry relative="1" as="geometry">
            <Array as="points">
              <mxPoint x="2397.02" y="8510" />
              <mxPoint x="2397.02" y="8750" />
              <mxPoint x="2235.02" y="8750" />
            </Array>
            <mxPoint x="2304.52" y="8510" as="sourcePoint" />
          </mxGeometry>
        </mxCell>
        <mxCell id="i5UNZcJOqayFlJNNMky4-139" style="edgeStyle=orthogonalEdgeStyle;rounded=0;orthogonalLoop=1;jettySize=auto;html=1;exitX=0.5;exitY=1;exitDx=0;exitDy=0;entryX=0;entryY=0.5;entryDx=0;entryDy=0;" parent="WIyWlLk6GJQsqaUBKTNV-1" edge="1">
          <mxGeometry relative="1" as="geometry">
            <Array as="points">
              <mxPoint x="1355" y="7160" />
              <mxPoint x="1270" y="7160" />
              <mxPoint x="1270" y="7030" />
            </Array>
            <mxPoint x="1290" y="7030" as="targetPoint" />
          </mxGeometry>
        </mxCell>
        <mxCell id="i5UNZcJOqayFlJNNMky4-140" style="edgeStyle=orthogonalEdgeStyle;rounded=0;orthogonalLoop=1;jettySize=auto;html=1;exitX=1;exitY=0.5;exitDx=0;exitDy=0;endArrow=none;endFill=0;" parent="WIyWlLk6GJQsqaUBKTNV-1" edge="1">
          <mxGeometry relative="1" as="geometry">
            <Array as="points">
              <mxPoint x="3070" y="6870" />
              <mxPoint x="3070" y="7010" />
              <mxPoint x="2990" y="7010" />
            </Array>
            <mxPoint x="3050" y="6870" as="sourcePoint" />
          </mxGeometry>
        </mxCell>
        <mxCell id="i5UNZcJOqayFlJNNMky4-141" style="edgeStyle=orthogonalEdgeStyle;rounded=0;orthogonalLoop=1;jettySize=auto;html=1;exitX=1;exitY=0.5;exitDx=0;exitDy=0;endArrow=none;endFill=0;" parent="WIyWlLk6GJQsqaUBKTNV-1" edge="1">
          <mxGeometry relative="1" as="geometry">
            <Array as="points">
              <mxPoint x="3210" y="7410" />
              <mxPoint x="3210" y="7780" />
              <mxPoint x="2975" y="7780" />
            </Array>
            <mxPoint x="3040" y="7410" as="sourcePoint" />
          </mxGeometry>
        </mxCell>
        <mxCell id="i5UNZcJOqayFlJNNMky4-142" style="edgeStyle=orthogonalEdgeStyle;rounded=0;orthogonalLoop=1;jettySize=auto;html=1;exitX=1;exitY=0.5;exitDx=0;exitDy=0;entryX=0;entryY=0.5;entryDx=0;entryDy=0;endArrow=none;endFill=0;" parent="WIyWlLk6GJQsqaUBKTNV-1" edge="1">
          <mxGeometry relative="1" as="geometry">
            <Array as="points">
              <mxPoint x="3060" y="7580" />
              <mxPoint x="3060" y="7760" />
              <mxPoint x="2800" y="7760" />
              <mxPoint x="2800" y="7410" />
            </Array>
            <mxPoint x="2920" y="7410" as="targetPoint" />
          </mxGeometry>
        </mxCell>
        <mxCell id="i5UNZcJOqayFlJNNMky4-143" style="edgeStyle=orthogonalEdgeStyle;rounded=0;orthogonalLoop=1;jettySize=auto;html=1;exitX=0.5;exitY=1;exitDx=0;exitDy=0;entryX=0;entryY=0.5;entryDx=0;entryDy=0;endArrow=none;endFill=0;" parent="WIyWlLk6GJQsqaUBKTNV-1" edge="1">
          <mxGeometry relative="1" as="geometry">
            <Array as="points">
              <mxPoint x="2978" y="7760" />
              <mxPoint x="2800" y="7760" />
              <mxPoint x="2800" y="7410" />
            </Array>
            <mxPoint x="2920" y="7410" as="targetPoint" />
          </mxGeometry>
        </mxCell>
        <mxCell id="i5UNZcJOqayFlJNNMky4-144" style="edgeStyle=orthogonalEdgeStyle;rounded=0;orthogonalLoop=1;jettySize=auto;html=1;exitX=1;exitY=0.5;exitDx=0;exitDy=0;endArrow=none;endFill=0;" parent="WIyWlLk6GJQsqaUBKTNV-1" edge="1">
          <mxGeometry relative="1" as="geometry">
            <Array as="points">
              <mxPoint x="3130" y="7840" />
              <mxPoint x="3130" y="8080" />
              <mxPoint x="2968" y="8080" />
            </Array>
            <mxPoint x="3037.5" y="7840" as="sourcePoint" />
          </mxGeometry>
        </mxCell>
        <mxCell id="i5UNZcJOqayFlJNNMky4-145" style="edgeStyle=orthogonalEdgeStyle;rounded=0;orthogonalLoop=1;jettySize=auto;html=1;exitX=1;exitY=0.5;exitDx=0;exitDy=0;endArrow=none;endFill=0;" parent="WIyWlLk6GJQsqaUBKTNV-1" edge="1">
          <mxGeometry relative="1" as="geometry">
            <Array as="points">
              <mxPoint x="2090.02" y="7364" />
              <mxPoint x="2090.02" y="7504" />
              <mxPoint x="2010.02" y="7504" />
            </Array>
            <mxPoint x="2070.02" y="7364" as="sourcePoint" />
          </mxGeometry>
        </mxCell>
        <mxCell id="i5UNZcJOqayFlJNNMky4-146" style="edgeStyle=orthogonalEdgeStyle;rounded=0;orthogonalLoop=1;jettySize=auto;html=1;exitX=1;exitY=0.5;exitDx=0;exitDy=0;endArrow=none;endFill=0;" parent="WIyWlLk6GJQsqaUBKTNV-1" edge="1">
          <mxGeometry relative="1" as="geometry">
            <Array as="points">
              <mxPoint x="2230.02" y="7904" />
              <mxPoint x="2230.02" y="8274" />
              <mxPoint x="1995.02" y="8274" />
            </Array>
            <mxPoint x="2060.02" y="7904" as="sourcePoint" />
          </mxGeometry>
        </mxCell>
        <mxCell id="i5UNZcJOqayFlJNNMky4-147" style="edgeStyle=orthogonalEdgeStyle;rounded=0;orthogonalLoop=1;jettySize=auto;html=1;exitX=1;exitY=0.5;exitDx=0;exitDy=0;entryX=0;entryY=0.5;entryDx=0;entryDy=0;endArrow=none;endFill=0;" parent="WIyWlLk6GJQsqaUBKTNV-1" edge="1">
          <mxGeometry relative="1" as="geometry">
            <Array as="points">
              <mxPoint x="2080.02" y="8074" />
              <mxPoint x="2080.02" y="8254" />
              <mxPoint x="1820.02" y="8254" />
              <mxPoint x="1820.02" y="7904" />
            </Array>
            <mxPoint x="1940.02" y="7904" as="targetPoint" />
          </mxGeometry>
        </mxCell>
        <mxCell id="i5UNZcJOqayFlJNNMky4-148" style="edgeStyle=orthogonalEdgeStyle;rounded=0;orthogonalLoop=1;jettySize=auto;html=1;exitX=0.5;exitY=1;exitDx=0;exitDy=0;entryX=0;entryY=0.5;entryDx=0;entryDy=0;endArrow=none;endFill=0;" parent="WIyWlLk6GJQsqaUBKTNV-1" edge="1">
          <mxGeometry relative="1" as="geometry">
            <Array as="points">
              <mxPoint x="1998.02" y="8254" />
              <mxPoint x="1820.02" y="8254" />
              <mxPoint x="1820.02" y="7904" />
            </Array>
            <mxPoint x="1940.02" y="7904" as="targetPoint" />
          </mxGeometry>
        </mxCell>
        <mxCell id="i5UNZcJOqayFlJNNMky4-149" style="edgeStyle=orthogonalEdgeStyle;rounded=0;orthogonalLoop=1;jettySize=auto;html=1;exitX=1;exitY=0.5;exitDx=0;exitDy=0;endArrow=none;endFill=0;" parent="WIyWlLk6GJQsqaUBKTNV-1" edge="1">
          <mxGeometry relative="1" as="geometry">
            <Array as="points">
              <mxPoint x="2150.02" y="8334" />
              <mxPoint x="2150.02" y="8574" />
              <mxPoint x="1988.02" y="8574" />
            </Array>
            <mxPoint x="2057.52" y="8334" as="sourcePoint" />
          </mxGeometry>
        </mxCell>
        <mxCell id="i5UNZcJOqayFlJNNMky4-150" style="edgeStyle=orthogonalEdgeStyle;rounded=0;orthogonalLoop=1;jettySize=auto;html=1;exitX=1;exitY=0.5;exitDx=0;exitDy=0;endArrow=none;endFill=0;" parent="WIyWlLk6GJQsqaUBKTNV-1" edge="1">
          <mxGeometry relative="1" as="geometry">
            <Array as="points">
              <mxPoint x="2250" y="4170" />
              <mxPoint x="2250" y="4740" />
              <mxPoint x="2005" y="4740" />
            </Array>
            <mxPoint x="2070.62" y="4170" as="sourcePoint" />
          </mxGeometry>
        </mxCell>
        <mxCell id="i5UNZcJOqayFlJNNMky4-151" style="edgeStyle=orthogonalEdgeStyle;rounded=0;orthogonalLoop=1;jettySize=auto;html=1;exitX=1;exitY=0.5;exitDx=0;exitDy=0;endArrow=none;endFill=0;" parent="WIyWlLk6GJQsqaUBKTNV-1" edge="1">
          <mxGeometry relative="1" as="geometry">
            <Array as="points">
              <mxPoint x="2663" y="7410" />
              <mxPoint x="2663" y="7980" />
              <mxPoint x="2418" y="7980" />
            </Array>
            <mxPoint x="2483.62" y="7410" as="sourcePoint" />
          </mxGeometry>
        </mxCell>
        <mxCell id="i5UNZcJOqayFlJNNMky4-152" style="edgeStyle=orthogonalEdgeStyle;rounded=0;orthogonalLoop=1;jettySize=auto;html=1;exitX=1;exitY=0.5;exitDx=0;exitDy=0;endArrow=none;endFill=0;" parent="WIyWlLk6GJQsqaUBKTNV-1" edge="1">
          <mxGeometry relative="1" as="geometry">
            <Array as="points">
              <mxPoint x="2490" y="6980" />
              <mxPoint x="2490" y="7120" />
              <mxPoint x="2410" y="7120" />
            </Array>
            <mxPoint x="2470" y="6980" as="sourcePoint" />
          </mxGeometry>
        </mxCell>
        <mxCell id="i5UNZcJOqayFlJNNMky4-153" style="edgeStyle=orthogonalEdgeStyle;rounded=0;orthogonalLoop=1;jettySize=auto;html=1;exitX=1;exitY=0.5;exitDx=0;exitDy=0;endArrow=none;endFill=0;" parent="WIyWlLk6GJQsqaUBKTNV-1" edge="1">
          <mxGeometry relative="1" as="geometry">
            <Array as="points">
              <mxPoint x="2630" y="7520" />
              <mxPoint x="2630" y="7890" />
              <mxPoint x="2395" y="7890" />
            </Array>
            <mxPoint x="2460" y="7520" as="sourcePoint" />
          </mxGeometry>
        </mxCell>
        <mxCell id="i5UNZcJOqayFlJNNMky4-154" style="edgeStyle=orthogonalEdgeStyle;rounded=0;orthogonalLoop=1;jettySize=auto;html=1;exitX=1;exitY=0.5;exitDx=0;exitDy=0;entryX=0;entryY=0.5;entryDx=0;entryDy=0;endArrow=none;endFill=0;" parent="WIyWlLk6GJQsqaUBKTNV-1" edge="1">
          <mxGeometry relative="1" as="geometry">
            <Array as="points">
              <mxPoint x="2480" y="7690" />
              <mxPoint x="2480" y="7870" />
              <mxPoint x="2220" y="7870" />
              <mxPoint x="2220" y="7520" />
            </Array>
            <mxPoint x="2340" y="7520" as="targetPoint" />
          </mxGeometry>
        </mxCell>
        <mxCell id="i5UNZcJOqayFlJNNMky4-155" style="edgeStyle=orthogonalEdgeStyle;rounded=0;orthogonalLoop=1;jettySize=auto;html=1;exitX=0.5;exitY=1;exitDx=0;exitDy=0;entryX=0;entryY=0.5;entryDx=0;entryDy=0;endArrow=none;endFill=0;" parent="WIyWlLk6GJQsqaUBKTNV-1" edge="1">
          <mxGeometry relative="1" as="geometry">
            <Array as="points">
              <mxPoint x="2398" y="7870" />
              <mxPoint x="2220" y="7870" />
              <mxPoint x="2220" y="7520" />
            </Array>
            <mxPoint x="2340" y="7520" as="targetPoint" />
          </mxGeometry>
        </mxCell>
        <mxCell id="i5UNZcJOqayFlJNNMky4-156" style="edgeStyle=orthogonalEdgeStyle;rounded=0;orthogonalLoop=1;jettySize=auto;html=1;exitX=1;exitY=0.5;exitDx=0;exitDy=0;endArrow=none;endFill=0;" parent="WIyWlLk6GJQsqaUBKTNV-1" edge="1">
          <mxGeometry relative="1" as="geometry">
            <Array as="points">
              <mxPoint x="2550" y="7950" />
              <mxPoint x="2550" y="8190" />
              <mxPoint x="2388" y="8190" />
            </Array>
            <mxPoint x="2457.5" y="7950" as="sourcePoint" />
          </mxGeometry>
        </mxCell>
        <mxCell id="i5UNZcJOqayFlJNNMky4-157" style="edgeStyle=orthogonalEdgeStyle;rounded=0;orthogonalLoop=1;jettySize=auto;html=1;exitX=1;exitY=0.5;exitDx=0;exitDy=0;endArrow=none;endFill=0;" parent="WIyWlLk6GJQsqaUBKTNV-1" edge="1">
          <mxGeometry relative="1" as="geometry">
            <Array as="points">
              <mxPoint x="3073" y="2450" />
              <mxPoint x="3073" y="3020" />
              <mxPoint x="2828" y="3020" />
            </Array>
            <mxPoint x="2893.62" y="2450" as="sourcePoint" />
          </mxGeometry>
        </mxCell>
        <mxCell id="i5UNZcJOqayFlJNNMky4-158" style="edgeStyle=orthogonalEdgeStyle;rounded=0;orthogonalLoop=1;jettySize=auto;html=1;exitX=1;exitY=0.5;exitDx=0;exitDy=0;endArrow=none;endFill=0;" parent="WIyWlLk6GJQsqaUBKTNV-1" edge="1">
          <mxGeometry relative="1" as="geometry">
            <Array as="points">
              <mxPoint x="2900" y="2020" />
              <mxPoint x="2900" y="2160" />
              <mxPoint x="2820" y="2160" />
            </Array>
            <mxPoint x="2880" y="2020" as="sourcePoint" />
          </mxGeometry>
        </mxCell>
        <mxCell id="i5UNZcJOqayFlJNNMky4-159" style="edgeStyle=orthogonalEdgeStyle;rounded=0;orthogonalLoop=1;jettySize=auto;html=1;exitX=1;exitY=0.5;exitDx=0;exitDy=0;endArrow=none;endFill=0;" parent="WIyWlLk6GJQsqaUBKTNV-1" edge="1">
          <mxGeometry relative="1" as="geometry">
            <Array as="points">
              <mxPoint x="3040" y="2560" />
              <mxPoint x="3040" y="2930" />
              <mxPoint x="2805" y="2930" />
            </Array>
            <mxPoint x="2870" y="2560" as="sourcePoint" />
          </mxGeometry>
        </mxCell>
        <mxCell id="i5UNZcJOqayFlJNNMky4-160" style="edgeStyle=orthogonalEdgeStyle;rounded=0;orthogonalLoop=1;jettySize=auto;html=1;exitX=1;exitY=0.5;exitDx=0;exitDy=0;entryX=0;entryY=0.5;entryDx=0;entryDy=0;endArrow=none;endFill=0;" parent="WIyWlLk6GJQsqaUBKTNV-1" edge="1">
          <mxGeometry relative="1" as="geometry">
            <Array as="points">
              <mxPoint x="2890" y="2730" />
              <mxPoint x="2890" y="2910" />
              <mxPoint x="2630" y="2910" />
              <mxPoint x="2630" y="2560" />
            </Array>
            <mxPoint x="2750" y="2560" as="targetPoint" />
          </mxGeometry>
        </mxCell>
        <mxCell id="i5UNZcJOqayFlJNNMky4-161" style="edgeStyle=orthogonalEdgeStyle;rounded=0;orthogonalLoop=1;jettySize=auto;html=1;exitX=0.5;exitY=1;exitDx=0;exitDy=0;entryX=0;entryY=0.5;entryDx=0;entryDy=0;endArrow=none;endFill=0;" parent="WIyWlLk6GJQsqaUBKTNV-1" edge="1">
          <mxGeometry relative="1" as="geometry">
            <Array as="points">
              <mxPoint x="2808" y="2910" />
              <mxPoint x="2630" y="2910" />
              <mxPoint x="2630" y="2560" />
            </Array>
            <mxPoint x="2750" y="2560" as="targetPoint" />
          </mxGeometry>
        </mxCell>
        <mxCell id="i5UNZcJOqayFlJNNMky4-162" style="edgeStyle=orthogonalEdgeStyle;rounded=0;orthogonalLoop=1;jettySize=auto;html=1;exitX=1;exitY=0.5;exitDx=0;exitDy=0;endArrow=none;endFill=0;" parent="WIyWlLk6GJQsqaUBKTNV-1" edge="1">
          <mxGeometry relative="1" as="geometry">
            <Array as="points">
              <mxPoint x="2960" y="2990" />
              <mxPoint x="2960" y="3230" />
              <mxPoint x="2798" y="3230" />
            </Array>
            <mxPoint x="2867.5" y="2990" as="sourcePoint" />
          </mxGeometry>
        </mxCell>
        <mxCell id="i5UNZcJOqayFlJNNMky4-163" style="edgeStyle=orthogonalEdgeStyle;rounded=0;orthogonalLoop=1;jettySize=auto;html=1;exitX=1;exitY=0.5;exitDx=0;exitDy=0;endArrow=none;endFill=0;" parent="WIyWlLk6GJQsqaUBKTNV-1" edge="1">
          <mxGeometry relative="1" as="geometry">
            <Array as="points">
              <mxPoint x="3183" y="2660" />
              <mxPoint x="3183" y="3230" />
              <mxPoint x="2938" y="3230" />
            </Array>
            <mxPoint x="3003.62" y="2660" as="sourcePoint" />
          </mxGeometry>
        </mxCell>
        <mxCell id="i5UNZcJOqayFlJNNMky4-164" style="edgeStyle=orthogonalEdgeStyle;rounded=0;orthogonalLoop=1;jettySize=auto;html=1;exitX=1;exitY=0.5;exitDx=0;exitDy=0;endArrow=none;endFill=0;" parent="WIyWlLk6GJQsqaUBKTNV-1" edge="1">
          <mxGeometry relative="1" as="geometry">
            <Array as="points">
              <mxPoint x="3010" y="2230" />
              <mxPoint x="3010" y="2370" />
              <mxPoint x="2930" y="2370" />
            </Array>
            <mxPoint x="2990" y="2230" as="sourcePoint" />
          </mxGeometry>
        </mxCell>
        <mxCell id="i5UNZcJOqayFlJNNMky4-165" style="edgeStyle=orthogonalEdgeStyle;rounded=0;orthogonalLoop=1;jettySize=auto;html=1;exitX=1;exitY=0.5;exitDx=0;exitDy=0;endArrow=none;endFill=0;" parent="WIyWlLk6GJQsqaUBKTNV-1" edge="1">
          <mxGeometry relative="1" as="geometry">
            <Array as="points">
              <mxPoint x="3150" y="2770" />
              <mxPoint x="3150" y="3140" />
              <mxPoint x="2915" y="3140" />
            </Array>
            <mxPoint x="2980" y="2770" as="sourcePoint" />
          </mxGeometry>
        </mxCell>
        <mxCell id="i5UNZcJOqayFlJNNMky4-166" style="edgeStyle=orthogonalEdgeStyle;rounded=0;orthogonalLoop=1;jettySize=auto;html=1;exitX=1;exitY=0.5;exitDx=0;exitDy=0;entryX=0;entryY=0.5;entryDx=0;entryDy=0;endArrow=none;endFill=0;" parent="WIyWlLk6GJQsqaUBKTNV-1" edge="1">
          <mxGeometry relative="1" as="geometry">
            <Array as="points">
              <mxPoint x="3000" y="2940" />
              <mxPoint x="3000" y="3120" />
              <mxPoint x="2740" y="3120" />
              <mxPoint x="2740" y="2770" />
            </Array>
            <mxPoint x="2860" y="2770" as="targetPoint" />
          </mxGeometry>
        </mxCell>
        <mxCell id="i5UNZcJOqayFlJNNMky4-167" style="edgeStyle=orthogonalEdgeStyle;rounded=0;orthogonalLoop=1;jettySize=auto;html=1;exitX=0.5;exitY=1;exitDx=0;exitDy=0;entryX=0;entryY=0.5;entryDx=0;entryDy=0;endArrow=none;endFill=0;" parent="WIyWlLk6GJQsqaUBKTNV-1" edge="1">
          <mxGeometry relative="1" as="geometry">
            <Array as="points">
              <mxPoint x="2918" y="3120" />
              <mxPoint x="2740" y="3120" />
              <mxPoint x="2740" y="2770" />
            </Array>
            <mxPoint x="2860" y="2770" as="targetPoint" />
          </mxGeometry>
        </mxCell>
        <mxCell id="i5UNZcJOqayFlJNNMky4-168" style="edgeStyle=orthogonalEdgeStyle;rounded=0;orthogonalLoop=1;jettySize=auto;html=1;exitX=1;exitY=0.5;exitDx=0;exitDy=0;endArrow=none;endFill=0;" parent="WIyWlLk6GJQsqaUBKTNV-1" edge="1">
          <mxGeometry relative="1" as="geometry">
            <Array as="points">
              <mxPoint x="3070" y="3200" />
              <mxPoint x="3070" y="3440" />
              <mxPoint x="2908" y="3440" />
            </Array>
            <mxPoint x="2977.5" y="3200" as="sourcePoint" />
          </mxGeometry>
        </mxCell>
        <mxCell id="i5UNZcJOqayFlJNNMky4-169" style="edgeStyle=orthogonalEdgeStyle;rounded=0;orthogonalLoop=1;jettySize=auto;html=1;exitX=1;exitY=0.5;exitDx=0;exitDy=0;endArrow=none;endFill=0;" parent="WIyWlLk6GJQsqaUBKTNV-1" edge="1">
          <mxGeometry relative="1" as="geometry">
            <Array as="points">
              <mxPoint x="3520" y="1680" />
              <mxPoint x="3520" y="1820" />
              <mxPoint x="3440" y="1820" />
            </Array>
            <mxPoint x="3500" y="1680" as="sourcePoint" />
          </mxGeometry>
        </mxCell>
        <mxCell id="i5UNZcJOqayFlJNNMky4-170" style="edgeStyle=orthogonalEdgeStyle;rounded=0;orthogonalLoop=1;jettySize=auto;html=1;exitX=1;exitY=0.5;exitDx=0;exitDy=0;endArrow=none;endFill=0;" parent="WIyWlLk6GJQsqaUBKTNV-1" edge="1">
          <mxGeometry relative="1" as="geometry">
            <Array as="points">
              <mxPoint x="3660" y="2220" />
              <mxPoint x="3660" y="2590" />
              <mxPoint x="3425" y="2590" />
            </Array>
            <mxPoint x="3490" y="2220" as="sourcePoint" />
          </mxGeometry>
        </mxCell>
        <mxCell id="i5UNZcJOqayFlJNNMky4-171" style="edgeStyle=orthogonalEdgeStyle;rounded=0;orthogonalLoop=1;jettySize=auto;html=1;exitX=1;exitY=0.5;exitDx=0;exitDy=0;entryX=0;entryY=0.5;entryDx=0;entryDy=0;endArrow=none;endFill=0;" parent="WIyWlLk6GJQsqaUBKTNV-1" edge="1">
          <mxGeometry relative="1" as="geometry">
            <Array as="points">
              <mxPoint x="3510" y="2390" />
              <mxPoint x="3510" y="2570" />
              <mxPoint x="3250" y="2570" />
              <mxPoint x="3250" y="2220" />
            </Array>
            <mxPoint x="3370" y="2220" as="targetPoint" />
          </mxGeometry>
        </mxCell>
        <mxCell id="i5UNZcJOqayFlJNNMky4-172" style="edgeStyle=orthogonalEdgeStyle;rounded=0;orthogonalLoop=1;jettySize=auto;html=1;exitX=0.5;exitY=1;exitDx=0;exitDy=0;entryX=0;entryY=0.5;entryDx=0;entryDy=0;endArrow=none;endFill=0;" parent="WIyWlLk6GJQsqaUBKTNV-1" edge="1">
          <mxGeometry relative="1" as="geometry">
            <Array as="points">
              <mxPoint x="3428" y="2570" />
              <mxPoint x="3250" y="2570" />
              <mxPoint x="3250" y="2220" />
            </Array>
            <mxPoint x="3370" y="2220" as="targetPoint" />
          </mxGeometry>
        </mxCell>
        <mxCell id="i5UNZcJOqayFlJNNMky4-173" style="edgeStyle=orthogonalEdgeStyle;rounded=0;orthogonalLoop=1;jettySize=auto;html=1;exitX=1;exitY=0.5;exitDx=0;exitDy=0;endArrow=none;endFill=0;" parent="WIyWlLk6GJQsqaUBKTNV-1" edge="1">
          <mxGeometry relative="1" as="geometry">
            <Array as="points">
              <mxPoint x="3580" y="2650" />
              <mxPoint x="3580" y="2890" />
              <mxPoint x="3418" y="2890" />
            </Array>
            <mxPoint x="3487.5" y="2650" as="sourcePoint" />
          </mxGeometry>
        </mxCell>
        <mxCell id="i5UNZcJOqayFlJNNMky4-174" style="edgeStyle=orthogonalEdgeStyle;rounded=0;orthogonalLoop=1;jettySize=auto;html=1;exitX=1;exitY=0.5;exitDx=0;exitDy=0;endArrow=none;endFill=0;" parent="WIyWlLk6GJQsqaUBKTNV-1" edge="1">
          <mxGeometry relative="1" as="geometry">
            <Array as="points">
              <mxPoint x="2760" y="2680" />
              <mxPoint x="2760" y="3250" />
              <mxPoint x="2515" y="3250" />
            </Array>
            <mxPoint x="2580.62" y="2680" as="sourcePoint" />
          </mxGeometry>
        </mxCell>
        <mxCell id="i5UNZcJOqayFlJNNMky4-175" style="edgeStyle=orthogonalEdgeStyle;rounded=0;orthogonalLoop=1;jettySize=auto;html=1;exitX=1;exitY=0.5;exitDx=0;exitDy=0;endArrow=none;endFill=0;" parent="WIyWlLk6GJQsqaUBKTNV-1" edge="1">
          <mxGeometry relative="1" as="geometry">
            <Array as="points">
              <mxPoint x="3133" y="4720" />
              <mxPoint x="3133" y="5290" />
              <mxPoint x="2888" y="5290" />
            </Array>
            <mxPoint x="2953.62" y="4720" as="sourcePoint" />
          </mxGeometry>
        </mxCell>
        <mxCell id="i5UNZcJOqayFlJNNMky4-176" style="edgeStyle=orthogonalEdgeStyle;rounded=0;orthogonalLoop=1;jettySize=auto;html=1;exitX=1;exitY=0.5;exitDx=0;exitDy=0;endArrow=none;endFill=0;" parent="WIyWlLk6GJQsqaUBKTNV-1" edge="1">
          <mxGeometry relative="1" as="geometry">
            <Array as="points">
              <mxPoint x="2960" y="4290" />
              <mxPoint x="2960" y="4430" />
              <mxPoint x="2880" y="4430" />
            </Array>
            <mxPoint x="2940" y="4290" as="sourcePoint" />
          </mxGeometry>
        </mxCell>
        <mxCell id="i5UNZcJOqayFlJNNMky4-177" style="edgeStyle=orthogonalEdgeStyle;rounded=0;orthogonalLoop=1;jettySize=auto;html=1;exitX=1;exitY=0.5;exitDx=0;exitDy=0;endArrow=none;endFill=0;" parent="WIyWlLk6GJQsqaUBKTNV-1" edge="1">
          <mxGeometry relative="1" as="geometry">
            <Array as="points">
              <mxPoint x="3100" y="4830" />
              <mxPoint x="3100" y="5200" />
              <mxPoint x="2865" y="5200" />
            </Array>
            <mxPoint x="2930" y="4830" as="sourcePoint" />
          </mxGeometry>
        </mxCell>
        <mxCell id="i5UNZcJOqayFlJNNMky4-178" style="edgeStyle=orthogonalEdgeStyle;rounded=0;orthogonalLoop=1;jettySize=auto;html=1;exitX=1;exitY=0.5;exitDx=0;exitDy=0;entryX=0;entryY=0.5;entryDx=0;entryDy=0;endArrow=none;endFill=0;" parent="WIyWlLk6GJQsqaUBKTNV-1" edge="1">
          <mxGeometry relative="1" as="geometry">
            <Array as="points">
              <mxPoint x="2950" y="5000" />
              <mxPoint x="2950" y="5180" />
              <mxPoint x="2690" y="5180" />
              <mxPoint x="2690" y="4830" />
            </Array>
            <mxPoint x="2810" y="4830" as="targetPoint" />
          </mxGeometry>
        </mxCell>
        <mxCell id="i5UNZcJOqayFlJNNMky4-179" style="edgeStyle=orthogonalEdgeStyle;rounded=0;orthogonalLoop=1;jettySize=auto;html=1;exitX=0.5;exitY=1;exitDx=0;exitDy=0;entryX=0;entryY=0.5;entryDx=0;entryDy=0;endArrow=none;endFill=0;" parent="WIyWlLk6GJQsqaUBKTNV-1" edge="1">
          <mxGeometry relative="1" as="geometry">
            <Array as="points">
              <mxPoint x="2868" y="5180" />
              <mxPoint x="2690" y="5180" />
              <mxPoint x="2690" y="4830" />
            </Array>
            <mxPoint x="2810" y="4830" as="targetPoint" />
          </mxGeometry>
        </mxCell>
        <mxCell id="i5UNZcJOqayFlJNNMky4-180" style="edgeStyle=orthogonalEdgeStyle;rounded=0;orthogonalLoop=1;jettySize=auto;html=1;exitX=1;exitY=0.5;exitDx=0;exitDy=0;endArrow=none;endFill=0;" parent="WIyWlLk6GJQsqaUBKTNV-1" edge="1">
          <mxGeometry relative="1" as="geometry">
            <Array as="points">
              <mxPoint x="3020" y="5260" />
              <mxPoint x="3020" y="5500" />
              <mxPoint x="2858" y="5500" />
            </Array>
            <mxPoint x="2927.5" y="5260" as="sourcePoint" />
          </mxGeometry>
        </mxCell>
        <mxCell id="i5UNZcJOqayFlJNNMky4-181" style="edgeStyle=orthogonalEdgeStyle;rounded=0;orthogonalLoop=1;jettySize=auto;html=1;exitX=1;exitY=0.5;exitDx=0;exitDy=0;endArrow=none;endFill=0;" parent="WIyWlLk6GJQsqaUBKTNV-1" edge="1">
          <mxGeometry relative="1" as="geometry">
            <Array as="points">
              <mxPoint x="2803" y="6660" />
              <mxPoint x="2803" y="7230" />
              <mxPoint x="2558" y="7230" />
            </Array>
            <mxPoint x="2623.62" y="6660" as="sourcePoint" />
          </mxGeometry>
        </mxCell>
        <mxCell id="i5UNZcJOqayFlJNNMky4-182" style="edgeStyle=orthogonalEdgeStyle;rounded=0;orthogonalLoop=1;jettySize=auto;html=1;exitX=1;exitY=0.5;exitDx=0;exitDy=0;endArrow=none;endFill=0;" parent="WIyWlLk6GJQsqaUBKTNV-1" edge="1">
          <mxGeometry relative="1" as="geometry">
            <Array as="points">
              <mxPoint x="2630" y="6230" />
              <mxPoint x="2630" y="6370" />
              <mxPoint x="2550" y="6370" />
            </Array>
            <mxPoint x="2610" y="6230" as="sourcePoint" />
          </mxGeometry>
        </mxCell>
        <mxCell id="i5UNZcJOqayFlJNNMky4-183" style="edgeStyle=orthogonalEdgeStyle;rounded=0;orthogonalLoop=1;jettySize=auto;html=1;exitX=1;exitY=0.5;exitDx=0;exitDy=0;endArrow=none;endFill=0;" parent="WIyWlLk6GJQsqaUBKTNV-1" edge="1">
          <mxGeometry relative="1" as="geometry">
            <Array as="points">
              <mxPoint x="2770" y="6770" />
              <mxPoint x="2770" y="7140" />
              <mxPoint x="2535" y="7140" />
            </Array>
            <mxPoint x="2600" y="6770" as="sourcePoint" />
          </mxGeometry>
        </mxCell>
        <mxCell id="i5UNZcJOqayFlJNNMky4-184" style="edgeStyle=orthogonalEdgeStyle;rounded=0;orthogonalLoop=1;jettySize=auto;html=1;exitX=1;exitY=0.5;exitDx=0;exitDy=0;entryX=0;entryY=0.5;entryDx=0;entryDy=0;endArrow=none;endFill=0;" parent="WIyWlLk6GJQsqaUBKTNV-1" edge="1">
          <mxGeometry relative="1" as="geometry">
            <Array as="points">
              <mxPoint x="2620" y="6940" />
              <mxPoint x="2620" y="7120" />
              <mxPoint x="2360" y="7120" />
              <mxPoint x="2360" y="6770" />
            </Array>
            <mxPoint x="2480" y="6770" as="targetPoint" />
          </mxGeometry>
        </mxCell>
        <mxCell id="i5UNZcJOqayFlJNNMky4-185" style="edgeStyle=orthogonalEdgeStyle;rounded=0;orthogonalLoop=1;jettySize=auto;html=1;exitX=0.5;exitY=1;exitDx=0;exitDy=0;entryX=0;entryY=0.5;entryDx=0;entryDy=0;endArrow=none;endFill=0;" parent="WIyWlLk6GJQsqaUBKTNV-1" edge="1">
          <mxGeometry relative="1" as="geometry">
            <Array as="points">
              <mxPoint x="2538" y="7120" />
              <mxPoint x="2360" y="7120" />
              <mxPoint x="2360" y="6770" />
            </Array>
            <mxPoint x="2480" y="6770" as="targetPoint" />
          </mxGeometry>
        </mxCell>
        <mxCell id="i5UNZcJOqayFlJNNMky4-186" style="edgeStyle=orthogonalEdgeStyle;rounded=0;orthogonalLoop=1;jettySize=auto;html=1;exitX=1;exitY=0.5;exitDx=0;exitDy=0;endArrow=none;endFill=0;" parent="WIyWlLk6GJQsqaUBKTNV-1" edge="1">
          <mxGeometry relative="1" as="geometry">
            <Array as="points">
              <mxPoint x="2690" y="7200" />
              <mxPoint x="2690" y="7440" />
              <mxPoint x="2528" y="7440" />
            </Array>
            <mxPoint x="2597.5" y="7200" as="sourcePoint" />
          </mxGeometry>
        </mxCell>
        <mxCell id="i5UNZcJOqayFlJNNMky4-187" style="edgeStyle=orthogonalEdgeStyle;rounded=0;orthogonalLoop=1;jettySize=auto;html=1;exitX=1;exitY=0.5;exitDx=0;exitDy=0;entryX=0;entryY=0.5;entryDx=0;entryDy=0;endArrow=none;endFill=0;" parent="WIyWlLk6GJQsqaUBKTNV-1" edge="1">
          <mxGeometry relative="1" as="geometry">
            <Array as="points">
              <mxPoint x="2920" y="10655" />
              <mxPoint x="2920" y="11140" />
              <mxPoint x="2540" y="11140" />
              <mxPoint x="2540" y="10585" />
            </Array>
            <mxPoint x="2710" y="10585" as="targetPoint" />
          </mxGeometry>
        </mxCell>
        <mxCell id="i5UNZcJOqayFlJNNMky4-188" style="edgeStyle=orthogonalEdgeStyle;rounded=0;orthogonalLoop=1;jettySize=auto;html=1;exitX=1;exitY=0.5;exitDx=0;exitDy=0;endArrow=none;endFill=0;" parent="WIyWlLk6GJQsqaUBKTNV-1" edge="1">
          <mxGeometry relative="1" as="geometry">
            <Array as="points">
              <mxPoint x="3560" y="8930" />
              <mxPoint x="3560" y="9070" />
              <mxPoint x="3480" y="9070" />
            </Array>
            <mxPoint x="3540" y="8930" as="sourcePoint" />
          </mxGeometry>
        </mxCell>
        <mxCell id="i5UNZcJOqayFlJNNMky4-189" style="edgeStyle=orthogonalEdgeStyle;rounded=0;orthogonalLoop=1;jettySize=auto;html=1;exitX=1;exitY=0.5;exitDx=0;exitDy=0;endArrow=none;endFill=0;" parent="WIyWlLk6GJQsqaUBKTNV-1" edge="1">
          <mxGeometry relative="1" as="geometry">
            <Array as="points">
              <mxPoint x="3700" y="9470" />
              <mxPoint x="3700" y="9840" />
              <mxPoint x="3465" y="9840" />
            </Array>
            <mxPoint x="3530" y="9470" as="sourcePoint" />
          </mxGeometry>
        </mxCell>
        <mxCell id="i5UNZcJOqayFlJNNMky4-190" style="edgeStyle=orthogonalEdgeStyle;rounded=0;orthogonalLoop=1;jettySize=auto;html=1;exitX=1;exitY=0.5;exitDx=0;exitDy=0;entryX=0;entryY=0.5;entryDx=0;entryDy=0;endArrow=none;endFill=0;" parent="WIyWlLk6GJQsqaUBKTNV-1" edge="1">
          <mxGeometry relative="1" as="geometry">
            <Array as="points">
              <mxPoint x="3550" y="9640" />
              <mxPoint x="3550" y="9820" />
              <mxPoint x="3290" y="9820" />
              <mxPoint x="3290" y="9470" />
            </Array>
            <mxPoint x="3410" y="9470" as="targetPoint" />
          </mxGeometry>
        </mxCell>
        <mxCell id="i5UNZcJOqayFlJNNMky4-191" style="edgeStyle=orthogonalEdgeStyle;rounded=0;orthogonalLoop=1;jettySize=auto;html=1;exitX=0.5;exitY=1;exitDx=0;exitDy=0;entryX=0;entryY=0.5;entryDx=0;entryDy=0;endArrow=none;endFill=0;" parent="WIyWlLk6GJQsqaUBKTNV-1" edge="1">
          <mxGeometry relative="1" as="geometry">
            <Array as="points">
              <mxPoint x="3468" y="9820" />
              <mxPoint x="3290" y="9820" />
              <mxPoint x="3290" y="9470" />
            </Array>
            <mxPoint x="3410" y="9470" as="targetPoint" />
          </mxGeometry>
        </mxCell>
        <mxCell id="i5UNZcJOqayFlJNNMky4-192" style="edgeStyle=orthogonalEdgeStyle;rounded=0;orthogonalLoop=1;jettySize=auto;html=1;exitX=1;exitY=0.5;exitDx=0;exitDy=0;endArrow=none;endFill=0;" parent="WIyWlLk6GJQsqaUBKTNV-1" edge="1">
          <mxGeometry relative="1" as="geometry">
            <Array as="points">
              <mxPoint x="3620" y="9900" />
              <mxPoint x="3620" y="10140" />
              <mxPoint x="3458" y="10140" />
            </Array>
            <mxPoint x="3527.5" y="9900" as="sourcePoint" />
          </mxGeometry>
        </mxCell>
        <mxCell id="i5UNZcJOqayFlJNNMky4-193" style="edgeStyle=orthogonalEdgeStyle;rounded=0;orthogonalLoop=1;jettySize=auto;html=1;exitX=1;exitY=0.5;exitDx=0;exitDy=0;entryX=0;entryY=0.5;entryDx=0;entryDy=0;endArrow=none;endFill=0;" parent="WIyWlLk6GJQsqaUBKTNV-1" edge="1">
          <mxGeometry relative="1" as="geometry">
            <Array as="points">
              <mxPoint x="3220" y="4515" />
              <mxPoint x="3220" y="5000" />
              <mxPoint x="2840" y="5000" />
              <mxPoint x="2840" y="4445" />
            </Array>
            <mxPoint x="3010" y="4445" as="targetPoint" />
          </mxGeometry>
        </mxCell>
        <mxCell id="i5UNZcJOqayFlJNNMky4-194" style="edgeStyle=orthogonalEdgeStyle;rounded=0;orthogonalLoop=1;jettySize=auto;html=1;exitX=1;exitY=0.5;exitDx=0;exitDy=0;entryX=0;entryY=0.5;entryDx=0;entryDy=0;endArrow=none;endFill=0;" parent="WIyWlLk6GJQsqaUBKTNV-1" edge="1">
          <mxGeometry relative="1" as="geometry">
            <mxPoint x="3010" y="4515" as="targetPoint" />
            <Array as="points">
              <mxPoint x="3170" y="4585" />
              <mxPoint x="3170" y="4990" />
              <mxPoint x="2920" y="4990" />
              <mxPoint x="2920" y="4515" />
            </Array>
          </mxGeometry>
        </mxCell>
        <mxCell id="i5UNZcJOqayFlJNNMky4-195" style="edgeStyle=orthogonalEdgeStyle;rounded=0;orthogonalLoop=1;jettySize=auto;html=1;exitX=1;exitY=0.5;exitDx=0;exitDy=0;" parent="WIyWlLk6GJQsqaUBKTNV-1" edge="1">
          <mxGeometry relative="1" as="geometry">
            <Array as="points">
              <mxPoint x="3180" y="2470" />
              <mxPoint x="3180" y="2970" />
              <mxPoint x="3070" y="2970" />
            </Array>
            <mxPoint x="3135" y="2470" as="sourcePoint" />
          </mxGeometry>
        </mxCell>
        <mxCell id="i5UNZcJOqayFlJNNMky4-196" style="edgeStyle=orthogonalEdgeStyle;rounded=0;orthogonalLoop=1;jettySize=auto;html=1;exitX=1;exitY=0.5;exitDx=0;exitDy=0;endArrow=none;endFill=0;" parent="WIyWlLk6GJQsqaUBKTNV-1" edge="1">
          <mxGeometry relative="1" as="geometry">
            <Array as="points">
              <mxPoint x="3860" y="2790" />
              <mxPoint x="3860" y="2930" />
              <mxPoint x="3780" y="2930" />
            </Array>
            <mxPoint x="3840" y="2790" as="sourcePoint" />
          </mxGeometry>
        </mxCell>
        <mxCell id="i5UNZcJOqayFlJNNMky4-197" style="edgeStyle=orthogonalEdgeStyle;rounded=0;orthogonalLoop=1;jettySize=auto;html=1;exitX=1;exitY=0.5;exitDx=0;exitDy=0;endArrow=none;endFill=0;" parent="WIyWlLk6GJQsqaUBKTNV-1" edge="1">
          <mxGeometry relative="1" as="geometry">
            <Array as="points">
              <mxPoint x="4000" y="3330" />
              <mxPoint x="4000" y="3700" />
              <mxPoint x="3765" y="3700" />
            </Array>
            <mxPoint x="3830" y="3330" as="sourcePoint" />
          </mxGeometry>
        </mxCell>
        <mxCell id="i5UNZcJOqayFlJNNMky4-198" style="edgeStyle=orthogonalEdgeStyle;rounded=0;orthogonalLoop=1;jettySize=auto;html=1;exitX=1;exitY=0.5;exitDx=0;exitDy=0;entryX=0;entryY=0.5;entryDx=0;entryDy=0;endArrow=none;endFill=0;" parent="WIyWlLk6GJQsqaUBKTNV-1" edge="1">
          <mxGeometry relative="1" as="geometry">
            <Array as="points">
              <mxPoint x="3850" y="3500" />
              <mxPoint x="3850" y="3680" />
              <mxPoint x="3590" y="3680" />
              <mxPoint x="3590" y="3330" />
            </Array>
            <mxPoint x="3710" y="3330" as="targetPoint" />
          </mxGeometry>
        </mxCell>
        <mxCell id="i5UNZcJOqayFlJNNMky4-199" style="edgeStyle=orthogonalEdgeStyle;rounded=0;orthogonalLoop=1;jettySize=auto;html=1;exitX=0.5;exitY=1;exitDx=0;exitDy=0;entryX=0;entryY=0.5;entryDx=0;entryDy=0;endArrow=none;endFill=0;" parent="WIyWlLk6GJQsqaUBKTNV-1" edge="1">
          <mxGeometry relative="1" as="geometry">
            <Array as="points">
              <mxPoint x="3768" y="3680" />
              <mxPoint x="3590" y="3680" />
              <mxPoint x="3590" y="3330" />
            </Array>
            <mxPoint x="3710" y="3330" as="targetPoint" />
          </mxGeometry>
        </mxCell>
        <mxCell id="i5UNZcJOqayFlJNNMky4-200" style="edgeStyle=orthogonalEdgeStyle;rounded=0;orthogonalLoop=1;jettySize=auto;html=1;exitX=1;exitY=0.5;exitDx=0;exitDy=0;endArrow=none;endFill=0;" parent="WIyWlLk6GJQsqaUBKTNV-1" edge="1">
          <mxGeometry relative="1" as="geometry">
            <Array as="points">
              <mxPoint x="3920" y="3760" />
              <mxPoint x="3920" y="4000" />
              <mxPoint x="3758" y="4000" />
            </Array>
            <mxPoint x="3827.5" y="3760" as="sourcePoint" />
          </mxGeometry>
        </mxCell>
        <mxCell id="i5UNZcJOqayFlJNNMky4-201" style="edgeStyle=orthogonalEdgeStyle;rounded=0;orthogonalLoop=1;jettySize=auto;html=1;exitX=1;exitY=0.5;exitDx=0;exitDy=0;endArrow=none;endFill=0;" parent="WIyWlLk6GJQsqaUBKTNV-1" edge="1">
          <mxGeometry relative="1" as="geometry">
            <Array as="points">
              <mxPoint x="3940" y="4470" />
              <mxPoint x="3940" y="4820" />
              <mxPoint x="3744" y="4820" />
            </Array>
            <mxPoint x="3813.75" y="4470" as="sourcePoint" />
          </mxGeometry>
        </mxCell>
        <mxCell id="i5UNZcJOqayFlJNNMky4-202" style="edgeStyle=orthogonalEdgeStyle;rounded=0;orthogonalLoop=1;jettySize=auto;html=1;exitX=1;exitY=0.5;exitDx=0;exitDy=0;endArrow=none;endFill=0;" parent="WIyWlLk6GJQsqaUBKTNV-1" edge="1">
          <mxGeometry relative="1" as="geometry">
            <Array as="points">
              <mxPoint x="3850" y="4575" />
              <mxPoint x="3850" y="4710" />
              <mxPoint x="3749" y="4710" />
            </Array>
            <mxPoint x="3798.12" y="4575" as="sourcePoint" />
          </mxGeometry>
        </mxCell>
        <mxCell id="i5UNZcJOqayFlJNNMky4-203" style="edgeStyle=orthogonalEdgeStyle;rounded=0;orthogonalLoop=1;jettySize=auto;html=1;exitX=1;exitY=0.5;exitDx=0;exitDy=0;endArrow=none;endFill=0;" parent="WIyWlLk6GJQsqaUBKTNV-1" edge="1">
          <mxGeometry relative="1" as="geometry">
            <Array as="points">
              <mxPoint x="3100" y="3010" />
              <mxPoint x="3100" y="3580" />
              <mxPoint x="2855" y="3580" />
            </Array>
            <mxPoint x="2920.62" y="3010" as="sourcePoint" />
          </mxGeometry>
        </mxCell>
        <mxCell id="i5UNZcJOqayFlJNNMky4-204" style="edgeStyle=orthogonalEdgeStyle;rounded=0;orthogonalLoop=1;jettySize=auto;html=1;exitX=1;exitY=0.5;exitDx=0;exitDy=0;endArrow=none;endFill=0;" parent="WIyWlLk6GJQsqaUBKTNV-1" edge="1">
          <mxGeometry relative="1" as="geometry">
            <Array as="points">
              <mxPoint x="1423" y="900" />
              <mxPoint x="1423" y="1470" />
              <mxPoint x="1178" y="1470" />
            </Array>
            <mxPoint x="1243.62" y="900" as="sourcePoint" />
          </mxGeometry>
        </mxCell>
        <mxCell id="i5UNZcJOqayFlJNNMky4-205" style="edgeStyle=orthogonalEdgeStyle;rounded=0;orthogonalLoop=1;jettySize=auto;html=1;exitX=1;exitY=0.5;exitDx=0;exitDy=0;endArrow=none;endFill=0;" parent="WIyWlLk6GJQsqaUBKTNV-1" edge="1">
          <mxGeometry relative="1" as="geometry">
            <Array as="points">
              <mxPoint x="1250" y="470" />
              <mxPoint x="1250" y="610" />
              <mxPoint x="1170" y="610" />
            </Array>
            <mxPoint x="1230" y="470" as="sourcePoint" />
          </mxGeometry>
        </mxCell>
        <mxCell id="i5UNZcJOqayFlJNNMky4-206" style="edgeStyle=orthogonalEdgeStyle;rounded=0;orthogonalLoop=1;jettySize=auto;html=1;exitX=1;exitY=0.5;exitDx=0;exitDy=0;endArrow=none;endFill=0;" parent="WIyWlLk6GJQsqaUBKTNV-1" edge="1">
          <mxGeometry relative="1" as="geometry">
            <Array as="points">
              <mxPoint x="1390" y="1010" />
              <mxPoint x="1390" y="1380" />
              <mxPoint x="1155" y="1380" />
            </Array>
            <mxPoint x="1220" y="1010" as="sourcePoint" />
          </mxGeometry>
        </mxCell>
        <mxCell id="i5UNZcJOqayFlJNNMky4-207" style="edgeStyle=orthogonalEdgeStyle;rounded=0;orthogonalLoop=1;jettySize=auto;html=1;exitX=1;exitY=0.5;exitDx=0;exitDy=0;entryX=0;entryY=0.5;entryDx=0;entryDy=0;endArrow=none;endFill=0;" parent="WIyWlLk6GJQsqaUBKTNV-1" edge="1">
          <mxGeometry relative="1" as="geometry">
            <Array as="points">
              <mxPoint x="1240" y="1180" />
              <mxPoint x="1240" y="1360" />
              <mxPoint x="980" y="1360" />
              <mxPoint x="980" y="1010" />
            </Array>
            <mxPoint x="1100" y="1010" as="targetPoint" />
          </mxGeometry>
        </mxCell>
        <mxCell id="i5UNZcJOqayFlJNNMky4-208" style="edgeStyle=orthogonalEdgeStyle;rounded=0;orthogonalLoop=1;jettySize=auto;html=1;exitX=0.5;exitY=1;exitDx=0;exitDy=0;entryX=0;entryY=0.5;entryDx=0;entryDy=0;endArrow=none;endFill=0;" parent="WIyWlLk6GJQsqaUBKTNV-1" edge="1">
          <mxGeometry relative="1" as="geometry">
            <Array as="points">
              <mxPoint x="1158" y="1360" />
              <mxPoint x="980" y="1360" />
              <mxPoint x="980" y="1010" />
            </Array>
            <mxPoint x="1100" y="1010" as="targetPoint" />
          </mxGeometry>
        </mxCell>
        <mxCell id="i5UNZcJOqayFlJNNMky4-209" style="edgeStyle=orthogonalEdgeStyle;rounded=0;orthogonalLoop=1;jettySize=auto;html=1;exitX=1;exitY=0.5;exitDx=0;exitDy=0;endArrow=none;endFill=0;" parent="WIyWlLk6GJQsqaUBKTNV-1" edge="1">
          <mxGeometry relative="1" as="geometry">
            <Array as="points">
              <mxPoint x="1310" y="1440" />
              <mxPoint x="1310" y="1680" />
              <mxPoint x="1148" y="1680" />
            </Array>
            <mxPoint x="1217.5" y="1440" as="sourcePoint" />
          </mxGeometry>
        </mxCell>
        <mxCell id="i5UNZcJOqayFlJNNMky4-210" style="edgeStyle=orthogonalEdgeStyle;rounded=0;orthogonalLoop=1;jettySize=auto;html=1;exitX=1;exitY=0.5;exitDx=0;exitDy=0;endArrow=none;endFill=0;" parent="WIyWlLk6GJQsqaUBKTNV-1" edge="1">
          <mxGeometry relative="1" as="geometry">
            <Array as="points">
              <mxPoint x="2713" y="530" />
              <mxPoint x="2713" y="1100" />
              <mxPoint x="2468" y="1100" />
            </Array>
            <mxPoint x="2533.62" y="530" as="sourcePoint" />
          </mxGeometry>
        </mxCell>
        <mxCell id="i5UNZcJOqayFlJNNMky4-211" style="edgeStyle=orthogonalEdgeStyle;rounded=0;orthogonalLoop=1;jettySize=auto;html=1;exitX=1;exitY=0.5;exitDx=0;exitDy=0;endArrow=none;endFill=0;" parent="WIyWlLk6GJQsqaUBKTNV-1" edge="1">
          <mxGeometry relative="1" as="geometry">
            <Array as="points">
              <mxPoint x="2540" y="100" />
              <mxPoint x="2540" y="240" />
              <mxPoint x="2460" y="240" />
            </Array>
            <mxPoint x="2520" y="100" as="sourcePoint" />
          </mxGeometry>
        </mxCell>
        <mxCell id="i5UNZcJOqayFlJNNMky4-212" style="edgeStyle=orthogonalEdgeStyle;rounded=0;orthogonalLoop=1;jettySize=auto;html=1;exitX=1;exitY=0.5;exitDx=0;exitDy=0;endArrow=none;endFill=0;" parent="WIyWlLk6GJQsqaUBKTNV-1" edge="1">
          <mxGeometry relative="1" as="geometry">
            <Array as="points">
              <mxPoint x="2680" y="640" />
              <mxPoint x="2680" y="1010" />
              <mxPoint x="2445" y="1010" />
            </Array>
            <mxPoint x="2510" y="640" as="sourcePoint" />
          </mxGeometry>
        </mxCell>
        <mxCell id="i5UNZcJOqayFlJNNMky4-213" style="edgeStyle=orthogonalEdgeStyle;rounded=0;orthogonalLoop=1;jettySize=auto;html=1;exitX=1;exitY=0.5;exitDx=0;exitDy=0;entryX=0;entryY=0.5;entryDx=0;entryDy=0;endArrow=none;endFill=0;" parent="WIyWlLk6GJQsqaUBKTNV-1" edge="1">
          <mxGeometry relative="1" as="geometry">
            <Array as="points">
              <mxPoint x="2530" y="810" />
              <mxPoint x="2530" y="990" />
              <mxPoint x="2270" y="990" />
              <mxPoint x="2270" y="640" />
            </Array>
            <mxPoint x="2390" y="640" as="targetPoint" />
          </mxGeometry>
        </mxCell>
        <mxCell id="i5UNZcJOqayFlJNNMky4-214" style="edgeStyle=orthogonalEdgeStyle;rounded=0;orthogonalLoop=1;jettySize=auto;html=1;exitX=0.5;exitY=1;exitDx=0;exitDy=0;entryX=0;entryY=0.5;entryDx=0;entryDy=0;endArrow=none;endFill=0;" parent="WIyWlLk6GJQsqaUBKTNV-1" edge="1">
          <mxGeometry relative="1" as="geometry">
            <Array as="points">
              <mxPoint x="2448" y="990" />
              <mxPoint x="2270" y="990" />
              <mxPoint x="2270" y="640" />
            </Array>
            <mxPoint x="2390" y="640" as="targetPoint" />
          </mxGeometry>
        </mxCell>
        <mxCell id="i5UNZcJOqayFlJNNMky4-215" style="edgeStyle=orthogonalEdgeStyle;rounded=0;orthogonalLoop=1;jettySize=auto;html=1;exitX=1;exitY=0.5;exitDx=0;exitDy=0;endArrow=none;endFill=0;" parent="WIyWlLk6GJQsqaUBKTNV-1" edge="1">
          <mxGeometry relative="1" as="geometry">
            <Array as="points">
              <mxPoint x="2600" y="1070" />
              <mxPoint x="2600" y="1310" />
              <mxPoint x="2438" y="1310" />
            </Array>
            <mxPoint x="2507.5" y="1070" as="sourcePoint" />
          </mxGeometry>
        </mxCell>
        <mxCell id="i5UNZcJOqayFlJNNMky4-216" style="edgeStyle=orthogonalEdgeStyle;rounded=0;orthogonalLoop=1;jettySize=auto;html=1;exitX=1;exitY=0.5;exitDx=0;exitDy=0;endArrow=none;endFill=0;" parent="WIyWlLk6GJQsqaUBKTNV-1" edge="1">
          <mxGeometry relative="1" as="geometry">
            <Array as="points">
              <mxPoint x="2543" y="1630" />
              <mxPoint x="2543" y="2200" />
              <mxPoint x="2298" y="2200" />
            </Array>
            <mxPoint x="2363.62" y="1630" as="sourcePoint" />
          </mxGeometry>
        </mxCell>
        <mxCell id="i5UNZcJOqayFlJNNMky4-217" style="edgeStyle=orthogonalEdgeStyle;rounded=0;orthogonalLoop=1;jettySize=auto;html=1;exitX=1;exitY=0.5;exitDx=0;exitDy=0;endArrow=none;endFill=0;" parent="WIyWlLk6GJQsqaUBKTNV-1" edge="1">
          <mxGeometry relative="1" as="geometry">
            <Array as="points">
              <mxPoint x="2370" y="1200" />
              <mxPoint x="2370" y="1340" />
              <mxPoint x="2290" y="1340" />
            </Array>
            <mxPoint x="2350" y="1200" as="sourcePoint" />
          </mxGeometry>
        </mxCell>
        <mxCell id="i5UNZcJOqayFlJNNMky4-218" style="edgeStyle=orthogonalEdgeStyle;rounded=0;orthogonalLoop=1;jettySize=auto;html=1;exitX=1;exitY=0.5;exitDx=0;exitDy=0;endArrow=none;endFill=0;" parent="WIyWlLk6GJQsqaUBKTNV-1" edge="1">
          <mxGeometry relative="1" as="geometry">
            <Array as="points">
              <mxPoint x="2510" y="1740" />
              <mxPoint x="2510" y="2110" />
              <mxPoint x="2275" y="2110" />
            </Array>
            <mxPoint x="2340" y="1740" as="sourcePoint" />
          </mxGeometry>
        </mxCell>
        <mxCell id="i5UNZcJOqayFlJNNMky4-219" style="edgeStyle=orthogonalEdgeStyle;rounded=0;orthogonalLoop=1;jettySize=auto;html=1;exitX=1;exitY=0.5;exitDx=0;exitDy=0;entryX=0;entryY=0.5;entryDx=0;entryDy=0;endArrow=none;endFill=0;" parent="WIyWlLk6GJQsqaUBKTNV-1" edge="1">
          <mxGeometry relative="1" as="geometry">
            <Array as="points">
              <mxPoint x="2360" y="1910" />
              <mxPoint x="2360" y="2090" />
              <mxPoint x="2100" y="2090" />
              <mxPoint x="2100" y="1740" />
            </Array>
            <mxPoint x="2220" y="1740" as="targetPoint" />
          </mxGeometry>
        </mxCell>
        <mxCell id="i5UNZcJOqayFlJNNMky4-220" style="edgeStyle=orthogonalEdgeStyle;rounded=0;orthogonalLoop=1;jettySize=auto;html=1;exitX=0.5;exitY=1;exitDx=0;exitDy=0;entryX=0;entryY=0.5;entryDx=0;entryDy=0;endArrow=none;endFill=0;" parent="WIyWlLk6GJQsqaUBKTNV-1" edge="1">
          <mxGeometry relative="1" as="geometry">
            <Array as="points">
              <mxPoint x="2278" y="2090" />
              <mxPoint x="2100" y="2090" />
              <mxPoint x="2100" y="1740" />
            </Array>
            <mxPoint x="2220" y="1740" as="targetPoint" />
          </mxGeometry>
        </mxCell>
        <mxCell id="i5UNZcJOqayFlJNNMky4-221" style="edgeStyle=orthogonalEdgeStyle;rounded=0;orthogonalLoop=1;jettySize=auto;html=1;exitX=1;exitY=0.5;exitDx=0;exitDy=0;endArrow=none;endFill=0;" parent="WIyWlLk6GJQsqaUBKTNV-1" edge="1">
          <mxGeometry relative="1" as="geometry">
            <Array as="points">
              <mxPoint x="2430" y="2170" />
              <mxPoint x="2430" y="2410" />
              <mxPoint x="2268" y="2410" />
            </Array>
            <mxPoint x="2337.5" y="2170" as="sourcePoint" />
          </mxGeometry>
        </mxCell>
        <mxCell id="i5UNZcJOqayFlJNNMky4-222" style="edgeStyle=orthogonalEdgeStyle;rounded=0;orthogonalLoop=1;jettySize=auto;html=1;exitX=1;exitY=0.5;exitDx=0;exitDy=0;entryX=0;entryY=0.5;entryDx=0;entryDy=0;endArrow=none;endFill=0;" parent="WIyWlLk6GJQsqaUBKTNV-1" edge="1">
          <mxGeometry relative="1" as="geometry">
            <Array as="points">
              <mxPoint x="1640" y="5415" />
              <mxPoint x="1640" y="5900" />
              <mxPoint x="1260" y="5900" />
              <mxPoint x="1260" y="5345" />
            </Array>
            <mxPoint x="1430" y="5345" as="targetPoint" />
          </mxGeometry>
        </mxCell>
        <mxCell id="i5UNZcJOqayFlJNNMky4-223" style="edgeStyle=orthogonalEdgeStyle;rounded=0;orthogonalLoop=1;jettySize=auto;html=1;exitX=1;exitY=0.5;exitDx=0;exitDy=0;" parent="WIyWlLk6GJQsqaUBKTNV-1" edge="1">
          <mxGeometry relative="1" as="geometry">
            <Array as="points">
              <mxPoint x="1600" y="3370" />
              <mxPoint x="1600" y="3870" />
              <mxPoint x="1490" y="3870" />
            </Array>
            <mxPoint x="1555" y="3370" as="sourcePoint" />
          </mxGeometry>
        </mxCell>
        <mxCell id="i5UNZcJOqayFlJNNMky4-224" style="edgeStyle=orthogonalEdgeStyle;rounded=0;orthogonalLoop=1;jettySize=auto;html=1;exitX=1;exitY=0.5;exitDx=0;exitDy=0;endArrow=none;endFill=0;" parent="WIyWlLk6GJQsqaUBKTNV-1" edge="1">
          <mxGeometry relative="1" as="geometry">
            <Array as="points">
              <mxPoint x="2280" y="3690" />
              <mxPoint x="2280" y="3830" />
              <mxPoint x="2200" y="3830" />
            </Array>
            <mxPoint x="2260" y="3690" as="sourcePoint" />
          </mxGeometry>
        </mxCell>
        <mxCell id="i5UNZcJOqayFlJNNMky4-225" style="edgeStyle=orthogonalEdgeStyle;rounded=0;orthogonalLoop=1;jettySize=auto;html=1;exitX=1;exitY=0.5;exitDx=0;exitDy=0;endArrow=none;endFill=0;" parent="WIyWlLk6GJQsqaUBKTNV-1" edge="1">
          <mxGeometry relative="1" as="geometry">
            <Array as="points">
              <mxPoint x="2420" y="4230" />
              <mxPoint x="2420" y="4600" />
              <mxPoint x="2185" y="4600" />
            </Array>
            <mxPoint x="2250" y="4230" as="sourcePoint" />
          </mxGeometry>
        </mxCell>
        <mxCell id="i5UNZcJOqayFlJNNMky4-226" style="edgeStyle=orthogonalEdgeStyle;rounded=0;orthogonalLoop=1;jettySize=auto;html=1;exitX=1;exitY=0.5;exitDx=0;exitDy=0;entryX=0;entryY=0.5;entryDx=0;entryDy=0;endArrow=none;endFill=0;" parent="WIyWlLk6GJQsqaUBKTNV-1" edge="1">
          <mxGeometry relative="1" as="geometry">
            <Array as="points">
              <mxPoint x="2270" y="4400" />
              <mxPoint x="2270" y="4580" />
              <mxPoint x="2010" y="4580" />
              <mxPoint x="2010" y="4230" />
            </Array>
            <mxPoint x="2130" y="4230" as="targetPoint" />
          </mxGeometry>
        </mxCell>
        <mxCell id="i5UNZcJOqayFlJNNMky4-227" style="edgeStyle=orthogonalEdgeStyle;rounded=0;orthogonalLoop=1;jettySize=auto;html=1;exitX=0.5;exitY=1;exitDx=0;exitDy=0;entryX=0;entryY=0.5;entryDx=0;entryDy=0;endArrow=none;endFill=0;" parent="WIyWlLk6GJQsqaUBKTNV-1" edge="1">
          <mxGeometry relative="1" as="geometry">
            <Array as="points">
              <mxPoint x="2188" y="4580" />
              <mxPoint x="2010" y="4580" />
              <mxPoint x="2010" y="4230" />
            </Array>
            <mxPoint x="2130" y="4230" as="targetPoint" />
          </mxGeometry>
        </mxCell>
        <mxCell id="i5UNZcJOqayFlJNNMky4-228" style="edgeStyle=orthogonalEdgeStyle;rounded=0;orthogonalLoop=1;jettySize=auto;html=1;exitX=1;exitY=0.5;exitDx=0;exitDy=0;endArrow=none;endFill=0;" parent="WIyWlLk6GJQsqaUBKTNV-1" edge="1">
          <mxGeometry relative="1" as="geometry">
            <Array as="points">
              <mxPoint x="2340" y="4660" />
              <mxPoint x="2340" y="4900" />
              <mxPoint x="2178" y="4900" />
            </Array>
            <mxPoint x="2247.5" y="4660" as="sourcePoint" />
          </mxGeometry>
        </mxCell>
        <mxCell id="i5UNZcJOqayFlJNNMky4-229" style="edgeStyle=orthogonalEdgeStyle;rounded=0;orthogonalLoop=1;jettySize=auto;html=1;" parent="WIyWlLk6GJQsqaUBKTNV-1" source="i5UNZcJOqayFlJNNMky4-230" edge="1">
          <mxGeometry relative="1" as="geometry">
            <mxPoint x="917" y="390" as="targetPoint" />
          </mxGeometry>
        </mxCell>
        <mxCell id="i5UNZcJOqayFlJNNMky4-230" value="Начало" style="ellipse;whiteSpace=wrap;html=1;" parent="WIyWlLk6GJQsqaUBKTNV-1" vertex="1">
          <mxGeometry x="857" y="310" width="120" height="50" as="geometry" />
        </mxCell>
        <mxCell id="i5UNZcJOqayFlJNNMky4-231" style="edgeStyle=orthogonalEdgeStyle;rounded=0;orthogonalLoop=1;jettySize=auto;html=1;exitX=0.5;exitY=1;exitDx=0;exitDy=0;" parent="WIyWlLk6GJQsqaUBKTNV-1" source="i5UNZcJOqayFlJNNMky4-232" edge="1">
          <mxGeometry relative="1" as="geometry">
            <mxPoint x="917" y="480" as="targetPoint" />
          </mxGeometry>
        </mxCell>
        <mxCell id="i5UNZcJOqayFlJNNMky4-232" value="Присваиваем значения переменным&lt;br&gt;i:=0, p:=1, s:=0" style="rounded=0;whiteSpace=wrap;html=1;" parent="WIyWlLk6GJQsqaUBKTNV-1" vertex="1">
          <mxGeometry x="857" y="390" width="120" height="60" as="geometry" />
        </mxCell>
        <mxCell id="i5UNZcJOqayFlJNNMky4-233" value="" style="edgeStyle=orthogonalEdgeStyle;rounded=0;orthogonalLoop=1;jettySize=auto;html=1;" parent="WIyWlLk6GJQsqaUBKTNV-1" source="i5UNZcJOqayFlJNNMky4-234" target="i5UNZcJOqayFlJNNMky4-236" edge="1">
          <mxGeometry relative="1" as="geometry" />
        </mxCell>
        <mxCell id="i5UNZcJOqayFlJNNMky4-234" value="Вывод (&#39;Исходный массив&#39;)" style="shape=parallelogram;perimeter=parallelogramPerimeter;whiteSpace=wrap;html=1;fixedSize=1;" parent="WIyWlLk6GJQsqaUBKTNV-1" vertex="1">
          <mxGeometry x="857" y="480" width="120" height="60" as="geometry" />
        </mxCell>
        <mxCell id="i5UNZcJOqayFlJNNMky4-235" value="" style="edgeStyle=orthogonalEdgeStyle;rounded=0;orthogonalLoop=1;jettySize=auto;html=1;" parent="WIyWlLk6GJQsqaUBKTNV-1" source="i5UNZcJOqayFlJNNMky4-236" edge="1">
          <mxGeometry relative="1" as="geometry">
            <mxPoint x="917" y="660" as="targetPoint" />
          </mxGeometry>
        </mxCell>
        <mxCell id="i5UNZcJOqayFlJNNMky4-236" value="Цикл 1&lt;br&gt;i&amp;gt;=N" style="strokeWidth=1;html=1;shape=mxgraph.flowchart.loop_limit;whiteSpace=wrap;" parent="WIyWlLk6GJQsqaUBKTNV-1" vertex="1">
          <mxGeometry x="857" y="570" width="120" height="70" as="geometry" />
        </mxCell>
        <mxCell id="i5UNZcJOqayFlJNNMky4-239" value="" style="edgeStyle=orthogonalEdgeStyle;rounded=0;orthogonalLoop=1;jettySize=auto;html=1;" parent="WIyWlLk6GJQsqaUBKTNV-1" source="i5UNZcJOqayFlJNNMky4-240" target="i5UNZcJOqayFlJNNMky4-242" edge="1">
          <mxGeometry relative="1" as="geometry" />
        </mxCell>
        <mxCell id="i5UNZcJOqayFlJNNMky4-240" value="Вывод m[i]" style="shape=parallelogram;perimeter=parallelogramPerimeter;whiteSpace=wrap;html=1;fixedSize=1;" parent="WIyWlLk6GJQsqaUBKTNV-1" vertex="1">
          <mxGeometry x="857" y="760" width="120" height="60" as="geometry" />
        </mxCell>
        <mxCell id="i5UNZcJOqayFlJNNMky4-241" value="" style="edgeStyle=orthogonalEdgeStyle;rounded=0;orthogonalLoop=1;jettySize=auto;html=1;" parent="WIyWlLk6GJQsqaUBKTNV-1" source="i5UNZcJOqayFlJNNMky4-242" edge="1">
          <mxGeometry relative="1" as="geometry">
            <mxPoint x="917" y="960" as="targetPoint" />
          </mxGeometry>
        </mxCell>
        <mxCell id="i5UNZcJOqayFlJNNMky4-242" value="Цикл 1" style="strokeWidth=1;html=1;shape=mxgraph.flowchart.loop_limit;whiteSpace=wrap;direction=west;" parent="WIyWlLk6GJQsqaUBKTNV-1" vertex="1">
          <mxGeometry x="857" y="850" width="120" height="70" as="geometry" />
        </mxCell>
        <mxCell id="i5UNZcJOqayFlJNNMky4-243" value="" style="edgeStyle=orthogonalEdgeStyle;rounded=0;orthogonalLoop=1;jettySize=auto;html=1;" parent="WIyWlLk6GJQsqaUBKTNV-1" source="i5UNZcJOqayFlJNNMky4-244" target="i5UNZcJOqayFlJNNMky4-247" edge="1">
          <mxGeometry relative="1" as="geometry" />
        </mxCell>
        <mxCell id="i5UNZcJOqayFlJNNMky4-244" value="Цикл 2&lt;br&gt;i&amp;gt;=N" style="strokeWidth=1;html=1;shape=mxgraph.flowchart.loop_limit;whiteSpace=wrap;" parent="WIyWlLk6GJQsqaUBKTNV-1" vertex="1">
          <mxGeometry x="857" y="1150" width="120" height="70" as="geometry" />
        </mxCell>
        <mxCell id="i5UNZcJOqayFlJNNMky4-268" value="" style="edgeStyle=orthogonalEdgeStyle;rounded=0;orthogonalLoop=1;jettySize=auto;html=1;" parent="WIyWlLk6GJQsqaUBKTNV-1" source="i5UNZcJOqayFlJNNMky4-247" target="i5UNZcJOqayFlJNNMky4-267" edge="1">
          <mxGeometry relative="1" as="geometry" />
        </mxCell>
        <mxCell id="i5UNZcJOqayFlJNNMky4-284" style="edgeStyle=orthogonalEdgeStyle;rounded=0;orthogonalLoop=1;jettySize=auto;html=1;" parent="WIyWlLk6GJQsqaUBKTNV-1" source="i5UNZcJOqayFlJNNMky4-247" edge="1">
          <mxGeometry relative="1" as="geometry">
            <mxPoint x="917" y="1230" as="targetPoint" />
            <Array as="points">
              <mxPoint x="1150" y="1290" />
              <mxPoint x="1150" y="1230" />
            </Array>
          </mxGeometry>
        </mxCell>
        <mxCell id="i5UNZcJOqayFlJNNMky4-247" value="&lt;span style=&quot;font-family: monospace; font-size: 13.2px; text-align: left;&quot; class=&quot;lit&quot;&gt;&lt;font style=&quot;background-color: rgb(26, 26, 26);&quot; color=&quot;#ffffff&quot;&gt;i mod 2&amp;lt;&amp;gt;0&lt;/font&gt;&lt;br&gt;&lt;/span&gt;" style="rhombus;whiteSpace=wrap;html=1;" parent="WIyWlLk6GJQsqaUBKTNV-1" vertex="1">
          <mxGeometry x="827" y="1250" width="180" height="80" as="geometry" />
        </mxCell>
        <mxCell id="i5UNZcJOqayFlJNNMky4-271" value="" style="edgeStyle=orthogonalEdgeStyle;rounded=0;orthogonalLoop=1;jettySize=auto;html=1;" parent="WIyWlLk6GJQsqaUBKTNV-1" source="i5UNZcJOqayFlJNNMky4-251" target="i5UNZcJOqayFlJNNMky4-270" edge="1">
          <mxGeometry relative="1" as="geometry" />
        </mxCell>
        <mxCell id="i5UNZcJOqayFlJNNMky4-251" value="I:=I+1" style="whiteSpace=wrap;html=1;" parent="WIyWlLk6GJQsqaUBKTNV-1" vertex="1">
          <mxGeometry x="857" y="1450" width="120" height="60" as="geometry" />
        </mxCell>
        <mxCell id="i5UNZcJOqayFlJNNMky4-283" value="" style="edgeStyle=orthogonalEdgeStyle;rounded=0;orthogonalLoop=1;jettySize=auto;html=1;" parent="WIyWlLk6GJQsqaUBKTNV-1" source="i5UNZcJOqayFlJNNMky4-255" target="i5UNZcJOqayFlJNNMky4-282" edge="1">
          <mxGeometry relative="1" as="geometry" />
        </mxCell>
        <mxCell id="i5UNZcJOqayFlJNNMky4-255" value="Цикл 2" style="strokeWidth=1;html=1;shape=mxgraph.flowchart.loop_limit;whiteSpace=wrap;direction=west;" parent="WIyWlLk6GJQsqaUBKTNV-1" vertex="1">
          <mxGeometry x="857" y="1730" width="120" height="70" as="geometry" />
        </mxCell>
        <mxCell id="i5UNZcJOqayFlJNNMky4-256" value="Конец" style="ellipse;whiteSpace=wrap;html=1;" parent="WIyWlLk6GJQsqaUBKTNV-1" vertex="1">
          <mxGeometry x="857" y="2270" width="120" height="50" as="geometry" />
        </mxCell>
        <mxCell id="i5UNZcJOqayFlJNNMky4-260" value="" style="edgeStyle=orthogonalEdgeStyle;rounded=0;orthogonalLoop=1;jettySize=auto;html=1;" parent="WIyWlLk6GJQsqaUBKTNV-1" source="i5UNZcJOqayFlJNNMky4-259" target="i5UNZcJOqayFlJNNMky4-240" edge="1">
          <mxGeometry relative="1" as="geometry" />
        </mxCell>
        <mxCell id="i5UNZcJOqayFlJNNMky4-259" value="m[i]:=random(116)-22" style="rounded=0;whiteSpace=wrap;html=1;" parent="WIyWlLk6GJQsqaUBKTNV-1" vertex="1">
          <mxGeometry x="857" y="660" width="120" height="60" as="geometry" />
        </mxCell>
        <mxCell id="i5UNZcJOqayFlJNNMky4-261" value="Присваиваем массиву рандомные значения в назначенном диапозоне" style="text;html=1;align=center;verticalAlign=middle;whiteSpace=wrap;rounded=0;" parent="WIyWlLk6GJQsqaUBKTNV-1" vertex="1">
          <mxGeometry x="1000" y="675" width="160" height="30" as="geometry" />
        </mxCell>
        <mxCell id="i5UNZcJOqayFlJNNMky4-264" value="" style="edgeStyle=orthogonalEdgeStyle;rounded=0;orthogonalLoop=1;jettySize=auto;html=1;" parent="WIyWlLk6GJQsqaUBKTNV-1" source="i5UNZcJOqayFlJNNMky4-262" target="i5UNZcJOqayFlJNNMky4-263" edge="1">
          <mxGeometry relative="1" as="geometry" />
        </mxCell>
        <mxCell id="i5UNZcJOqayFlJNNMky4-262" value="Вывод (&quot;введите промежуток&quot;)" style="shape=parallelogram;perimeter=parallelogramPerimeter;whiteSpace=wrap;html=1;fixedSize=1;" parent="WIyWlLk6GJQsqaUBKTNV-1" vertex="1">
          <mxGeometry x="857" y="960" width="120" height="60" as="geometry" />
        </mxCell>
        <mxCell id="i5UNZcJOqayFlJNNMky4-265" value="" style="edgeStyle=orthogonalEdgeStyle;rounded=0;orthogonalLoop=1;jettySize=auto;html=1;" parent="WIyWlLk6GJQsqaUBKTNV-1" source="i5UNZcJOqayFlJNNMky4-263" target="i5UNZcJOqayFlJNNMky4-244" edge="1">
          <mxGeometry relative="1" as="geometry" />
        </mxCell>
        <mxCell id="i5UNZcJOqayFlJNNMky4-263" value="Ввод значения &lt;br&gt;переменным a,b" style="shape=parallelogram;perimeter=parallelogramPerimeter;whiteSpace=wrap;html=1;fixedSize=1;" parent="WIyWlLk6GJQsqaUBKTNV-1" vertex="1">
          <mxGeometry x="857" y="1050" width="120" height="60" as="geometry" />
        </mxCell>
        <mxCell id="i5UNZcJOqayFlJNNMky4-266" value="mod - это&lt;br&gt;Остаток от деления не равен 0" style="text;html=1;strokeColor=none;fillColor=none;align=center;verticalAlign=middle;whiteSpace=wrap;rounded=0;" parent="WIyWlLk6GJQsqaUBKTNV-1" vertex="1">
          <mxGeometry x="680" y="1275" width="120" height="30" as="geometry" />
        </mxCell>
        <mxCell id="i5UNZcJOqayFlJNNMky4-269" value="" style="edgeStyle=orthogonalEdgeStyle;rounded=0;orthogonalLoop=1;jettySize=auto;html=1;" parent="WIyWlLk6GJQsqaUBKTNV-1" source="i5UNZcJOqayFlJNNMky4-267" target="i5UNZcJOqayFlJNNMky4-251" edge="1">
          <mxGeometry relative="1" as="geometry" />
        </mxCell>
        <mxCell id="i5UNZcJOqayFlJNNMky4-277" style="edgeStyle=orthogonalEdgeStyle;rounded=0;orthogonalLoop=1;jettySize=auto;html=1;" parent="WIyWlLk6GJQsqaUBKTNV-1" source="i5UNZcJOqayFlJNNMky4-267" edge="1">
          <mxGeometry relative="1" as="geometry">
            <mxPoint x="917" y="1520" as="targetPoint" />
            <Array as="points">
              <mxPoint x="1100" y="1390" />
              <mxPoint x="1100" y="1520" />
            </Array>
          </mxGeometry>
        </mxCell>
        <mxCell id="i5UNZcJOqayFlJNNMky4-267" value="&lt;span style=&quot;font-family: monospace; font-size: 13.2px; text-align: left;&quot; class=&quot;lit&quot;&gt;&lt;font style=&quot;background-color: rgb(26, 26, 26);&quot; color=&quot;#ffffff&quot;&gt;m[i] mod 2=0&lt;/font&gt;&lt;br&gt;&lt;/span&gt;" style="rhombus;whiteSpace=wrap;html=1;" parent="WIyWlLk6GJQsqaUBKTNV-1" vertex="1">
          <mxGeometry x="827" y="1350" width="180" height="80" as="geometry" />
        </mxCell>
        <mxCell id="i5UNZcJOqayFlJNNMky4-273" value="" style="edgeStyle=orthogonalEdgeStyle;rounded=0;orthogonalLoop=1;jettySize=auto;html=1;" parent="WIyWlLk6GJQsqaUBKTNV-1" source="i5UNZcJOqayFlJNNMky4-270" target="i5UNZcJOqayFlJNNMky4-272" edge="1">
          <mxGeometry relative="1" as="geometry" />
        </mxCell>
        <mxCell id="i5UNZcJOqayFlJNNMky4-278" style="edgeStyle=orthogonalEdgeStyle;rounded=0;orthogonalLoop=1;jettySize=auto;html=1;exitX=1;exitY=0.5;exitDx=0;exitDy=0;" parent="WIyWlLk6GJQsqaUBKTNV-1" source="i5UNZcJOqayFlJNNMky4-270" edge="1">
          <mxGeometry relative="1" as="geometry">
            <mxPoint x="917" y="1230" as="targetPoint" />
            <mxPoint x="1007" y="1670" as="sourcePoint" />
            <Array as="points">
              <mxPoint x="1151" y="1570" />
              <mxPoint x="1151" y="1230" />
            </Array>
          </mxGeometry>
        </mxCell>
        <mxCell id="i5UNZcJOqayFlJNNMky4-270" value="&lt;span style=&quot;font-family: monospace; font-size: 13.2px; text-align: left;&quot; class=&quot;lit&quot;&gt;&lt;font style=&quot;background-color: rgb(26, 26, 26);&quot; color=&quot;#ffffff&quot;&gt;m[i]&amp;lt;&amp;gt;0&lt;/font&gt;&lt;br&gt;&lt;/span&gt;" style="rhombus;whiteSpace=wrap;html=1;" parent="WIyWlLk6GJQsqaUBKTNV-1" vertex="1">
          <mxGeometry x="827" y="1530" width="180" height="80" as="geometry" />
        </mxCell>
        <mxCell id="i5UNZcJOqayFlJNNMky4-281" value="" style="edgeStyle=orthogonalEdgeStyle;rounded=0;orthogonalLoop=1;jettySize=auto;html=1;" parent="WIyWlLk6GJQsqaUBKTNV-1" source="i5UNZcJOqayFlJNNMky4-272" target="i5UNZcJOqayFlJNNMky4-255" edge="1">
          <mxGeometry relative="1" as="geometry" />
        </mxCell>
        <mxCell id="i5UNZcJOqayFlJNNMky4-272" value="p:=p*m[i]" style="rounded=0;whiteSpace=wrap;html=1;" parent="WIyWlLk6GJQsqaUBKTNV-1" vertex="1">
          <mxGeometry x="857" y="1640" width="120" height="60" as="geometry" />
        </mxCell>
        <mxCell id="i5UNZcJOqayFlJNNMky4-274" value="Остаток от деления равен 0" style="text;html=1;strokeColor=none;fillColor=none;align=center;verticalAlign=middle;whiteSpace=wrap;rounded=0;" parent="WIyWlLk6GJQsqaUBKTNV-1" vertex="1">
          <mxGeometry x="690" y="1375" width="100" height="30" as="geometry" />
        </mxCell>
        <mxCell id="i5UNZcJOqayFlJNNMky4-279" value="Элемент не равне 0" style="text;html=1;strokeColor=none;fillColor=none;align=center;verticalAlign=middle;whiteSpace=wrap;rounded=0;" parent="WIyWlLk6GJQsqaUBKTNV-1" vertex="1">
          <mxGeometry x="690" y="1555" width="90" height="30" as="geometry" />
        </mxCell>
        <mxCell id="i5UNZcJOqayFlJNNMky4-280" value="Переменная умнажаеться на элемент масива и присваевается значение переменной" style="text;html=1;strokeColor=none;fillColor=none;align=center;verticalAlign=middle;whiteSpace=wrap;rounded=0;" parent="WIyWlLk6GJQsqaUBKTNV-1" vertex="1">
          <mxGeometry x="680" y="1655" width="120" height="30" as="geometry" />
        </mxCell>
        <mxCell id="i5UNZcJOqayFlJNNMky4-286" value="" style="edgeStyle=orthogonalEdgeStyle;rounded=0;orthogonalLoop=1;jettySize=auto;html=1;" parent="WIyWlLk6GJQsqaUBKTNV-1" source="i5UNZcJOqayFlJNNMky4-282" target="i5UNZcJOqayFlJNNMky4-285" edge="1">
          <mxGeometry relative="1" as="geometry" />
        </mxCell>
        <mxCell id="i5UNZcJOqayFlJNNMky4-282" value="Цикл 3&lt;br&gt;i&amp;gt;=N" style="strokeWidth=1;html=1;shape=mxgraph.flowchart.loop_limit;whiteSpace=wrap;" parent="WIyWlLk6GJQsqaUBKTNV-1" vertex="1">
          <mxGeometry x="857" y="1830" width="120" height="70" as="geometry" />
        </mxCell>
        <mxCell id="i5UNZcJOqayFlJNNMky4-288" value="" style="edgeStyle=orthogonalEdgeStyle;rounded=0;orthogonalLoop=1;jettySize=auto;html=1;" parent="WIyWlLk6GJQsqaUBKTNV-1" source="i5UNZcJOqayFlJNNMky4-285" target="i5UNZcJOqayFlJNNMky4-287" edge="1">
          <mxGeometry relative="1" as="geometry" />
        </mxCell>
        <mxCell id="i5UNZcJOqayFlJNNMky4-285" value="&lt;span style=&quot;font-family: monospace; font-size: 13.2px; text-align: left;&quot; class=&quot;lit&quot;&gt;&lt;font style=&quot;background-color: rgb(26, 26, 26);&quot; color=&quot;#ffffff&quot;&gt;m[i]&amp;gt;a и m&amp;lt;=b&lt;/font&gt;&lt;br&gt;&lt;/span&gt;" style="rhombus;whiteSpace=wrap;html=1;" parent="WIyWlLk6GJQsqaUBKTNV-1" vertex="1">
          <mxGeometry x="827" y="1930" width="180" height="80" as="geometry" />
        </mxCell>
        <mxCell id="i5UNZcJOqayFlJNNMky4-290" value="" style="edgeStyle=orthogonalEdgeStyle;rounded=0;orthogonalLoop=1;jettySize=auto;html=1;" parent="WIyWlLk6GJQsqaUBKTNV-1" source="i5UNZcJOqayFlJNNMky4-287" target="i5UNZcJOqayFlJNNMky4-289" edge="1">
          <mxGeometry relative="1" as="geometry" />
        </mxCell>
        <mxCell id="i5UNZcJOqayFlJNNMky4-287" value="s:=s+m[i]" style="rounded=0;whiteSpace=wrap;html=1;" parent="WIyWlLk6GJQsqaUBKTNV-1" vertex="1">
          <mxGeometry x="857" y="2050" width="120" height="60" as="geometry" />
        </mxCell>
        <mxCell id="i5UNZcJOqayFlJNNMky4-294" value="" style="edgeStyle=orthogonalEdgeStyle;rounded=0;orthogonalLoop=1;jettySize=auto;html=1;" parent="WIyWlLk6GJQsqaUBKTNV-1" source="i5UNZcJOqayFlJNNMky4-289" target="i5UNZcJOqayFlJNNMky4-292" edge="1">
          <mxGeometry relative="1" as="geometry" />
        </mxCell>
        <mxCell id="i5UNZcJOqayFlJNNMky4-289" value="Цикл 3" style="strokeWidth=1;html=1;shape=mxgraph.flowchart.loop_limit;whiteSpace=wrap;direction=west;" parent="WIyWlLk6GJQsqaUBKTNV-1" vertex="1">
          <mxGeometry x="857" y="2140" width="120" height="70" as="geometry" />
        </mxCell>
        <mxCell id="i5UNZcJOqayFlJNNMky4-297" style="edgeStyle=orthogonalEdgeStyle;rounded=0;orthogonalLoop=1;jettySize=auto;html=1;" parent="WIyWlLk6GJQsqaUBKTNV-1" source="i5UNZcJOqayFlJNNMky4-291" target="i5UNZcJOqayFlJNNMky4-256" edge="1">
          <mxGeometry relative="1" as="geometry">
            <Array as="points">
              <mxPoint x="1400" y="2240" />
              <mxPoint x="917" y="2240" />
            </Array>
          </mxGeometry>
        </mxCell>
        <mxCell id="i5UNZcJOqayFlJNNMky4-291" value="&lt;font style=&quot;font-size: 10px;&quot;&gt;Вывод&lt;br&gt;(&#39;сумма элементов, принадлежащих промежутку [&#39;, a, &#39;,&#39;, b, &#39;] равна &#39;, s)&lt;/font&gt;" style="shape=parallelogram;perimeter=parallelogramPerimeter;whiteSpace=wrap;html=1;fixedSize=1;" parent="WIyWlLk6GJQsqaUBKTNV-1" vertex="1">
          <mxGeometry x="1340" y="2145" width="120" height="60" as="geometry" />
        </mxCell>
        <mxCell id="i5UNZcJOqayFlJNNMky4-295" value="" style="edgeStyle=orthogonalEdgeStyle;rounded=0;orthogonalLoop=1;jettySize=auto;html=1;" parent="WIyWlLk6GJQsqaUBKTNV-1" source="i5UNZcJOqayFlJNNMky4-292" target="i5UNZcJOqayFlJNNMky4-293" edge="1">
          <mxGeometry relative="1" as="geometry" />
        </mxCell>
        <mxCell id="i5UNZcJOqayFlJNNMky4-292" value="&lt;font style=&quot;font-size: 10px;&quot;&gt;Вывод&amp;nbsp;(&#39;количество четных элементов массива, стоящих на нечетных местах: &#39;, l)&lt;/font&gt;" style="shape=parallelogram;perimeter=parallelogramPerimeter;whiteSpace=wrap;html=1;fixedSize=1;" parent="WIyWlLk6GJQsqaUBKTNV-1" vertex="1">
          <mxGeometry x="1060" y="2145" width="120" height="60" as="geometry" />
        </mxCell>
        <mxCell id="i5UNZcJOqayFlJNNMky4-296" value="" style="edgeStyle=orthogonalEdgeStyle;rounded=0;orthogonalLoop=1;jettySize=auto;html=1;" parent="WIyWlLk6GJQsqaUBKTNV-1" source="i5UNZcJOqayFlJNNMky4-293" target="i5UNZcJOqayFlJNNMky4-291" edge="1">
          <mxGeometry relative="1" as="geometry" />
        </mxCell>
        <mxCell id="i5UNZcJOqayFlJNNMky4-293" value="&lt;font style=&quot;font-size: 10px;&quot;&gt;Вывод&amp;nbsp;(&#39;произведение нечетных элементов массива равно &#39;, p)&lt;/font&gt;" style="shape=parallelogram;perimeter=parallelogramPerimeter;whiteSpace=wrap;html=1;fixedSize=1;" parent="WIyWlLk6GJQsqaUBKTNV-1" vertex="1">
          <mxGeometry x="1200" y="2145" width="120" height="60" as="geometry" />
        </mxCell>
        <mxCell id="4ecOMtQPetXWPSeZRFUI-0" value="m[i] - элемент массива m с индексом i" style="text;html=1;align=center;verticalAlign=middle;whiteSpace=wrap;rounded=0;" parent="WIyWlLk6GJQsqaUBKTNV-1" vertex="1">
          <mxGeometry x="1000" y="775" width="240" height="30" as="geometry" />
        </mxCell>
        <mxCell id="4ecOMtQPetXWPSeZRFUI-1" value="Переменная s складывается с элементом массива m" style="text;html=1;align=center;verticalAlign=middle;whiteSpace=wrap;rounded=0;" parent="WIyWlLk6GJQsqaUBKTNV-1" vertex="1">
          <mxGeometry x="1050" y="2065" width="150" height="30" as="geometry" />
        </mxCell>
        <mxCell id="rihenwTHAJI-BbViQoXs-0" value="" style="endArrow=none;dashed=1;html=1;rounded=0;entryX=1;entryY=0.5;entryDx=0;entryDy=0;exitX=0;exitY=0.5;exitDx=0;exitDy=0;" edge="1" parent="WIyWlLk6GJQsqaUBKTNV-1" source="4ecOMtQPetXWPSeZRFUI-1" target="i5UNZcJOqayFlJNNMky4-287">
          <mxGeometry width="50" height="50" relative="1" as="geometry">
            <mxPoint x="1180" y="2100" as="sourcePoint" />
            <mxPoint x="1230" y="2050" as="targetPoint" />
          </mxGeometry>
        </mxCell>
        <mxCell id="rihenwTHAJI-BbViQoXs-1" value="" style="endArrow=none;dashed=1;html=1;rounded=0;entryX=1;entryY=0.5;entryDx=0;entryDy=0;exitX=0;exitY=0.5;exitDx=0;exitDy=0;" edge="1" parent="WIyWlLk6GJQsqaUBKTNV-1" source="i5UNZcJOqayFlJNNMky4-247" target="i5UNZcJOqayFlJNNMky4-266">
          <mxGeometry width="50" height="50" relative="1" as="geometry">
            <mxPoint x="1180" y="1500" as="sourcePoint" />
            <mxPoint x="1230" y="1450" as="targetPoint" />
          </mxGeometry>
        </mxCell>
        <mxCell id="rihenwTHAJI-BbViQoXs-2" value="" style="endArrow=none;dashed=1;html=1;rounded=0;exitX=0;exitY=0.5;exitDx=0;exitDy=0;entryX=1;entryY=0.5;entryDx=0;entryDy=0;" edge="1" parent="WIyWlLk6GJQsqaUBKTNV-1" source="i5UNZcJOqayFlJNNMky4-267" target="i5UNZcJOqayFlJNNMky4-274">
          <mxGeometry width="50" height="50" relative="1" as="geometry">
            <mxPoint x="1180" y="1500" as="sourcePoint" />
            <mxPoint x="1230" y="1450" as="targetPoint" />
          </mxGeometry>
        </mxCell>
        <mxCell id="rihenwTHAJI-BbViQoXs-3" value="" style="endArrow=none;dashed=1;html=1;rounded=0;exitX=0;exitY=0.5;exitDx=0;exitDy=0;entryX=1;entryY=0.5;entryDx=0;entryDy=0;" edge="1" parent="WIyWlLk6GJQsqaUBKTNV-1" source="i5UNZcJOqayFlJNNMky4-270" target="i5UNZcJOqayFlJNNMky4-279">
          <mxGeometry width="50" height="50" relative="1" as="geometry">
            <mxPoint x="1180" y="1500" as="sourcePoint" />
            <mxPoint x="1230" y="1450" as="targetPoint" />
          </mxGeometry>
        </mxCell>
        <mxCell id="rihenwTHAJI-BbViQoXs-4" value="" style="endArrow=none;dashed=1;html=1;rounded=0;entryX=0;entryY=0.5;entryDx=0;entryDy=0;exitX=1;exitY=0.5;exitDx=0;exitDy=0;" edge="1" parent="WIyWlLk6GJQsqaUBKTNV-1" source="i5UNZcJOqayFlJNNMky4-280" target="i5UNZcJOqayFlJNNMky4-272">
          <mxGeometry width="50" height="50" relative="1" as="geometry">
            <mxPoint x="1180" y="1500" as="sourcePoint" />
            <mxPoint x="1230" y="1450" as="targetPoint" />
          </mxGeometry>
        </mxCell>
        <mxCell id="rihenwTHAJI-BbViQoXs-5" value="" style="endArrow=none;dashed=1;html=1;rounded=0;entryX=1;entryY=0.5;entryDx=0;entryDy=0;exitX=0;exitY=0.5;exitDx=0;exitDy=0;" edge="1" parent="WIyWlLk6GJQsqaUBKTNV-1" source="i5UNZcJOqayFlJNNMky4-261" target="i5UNZcJOqayFlJNNMky4-259">
          <mxGeometry width="50" height="50" relative="1" as="geometry">
            <mxPoint x="1090" y="800" as="sourcePoint" />
            <mxPoint x="1140" y="750" as="targetPoint" />
          </mxGeometry>
        </mxCell>
        <mxCell id="rihenwTHAJI-BbViQoXs-6" value="" style="endArrow=none;dashed=1;html=1;rounded=0;entryX=1;entryY=0.5;entryDx=0;entryDy=0;" edge="1" parent="WIyWlLk6GJQsqaUBKTNV-1" target="i5UNZcJOqayFlJNNMky4-240">
          <mxGeometry width="50" height="50" relative="1" as="geometry">
            <mxPoint x="1010" y="790" as="sourcePoint" />
            <mxPoint x="1140" y="750" as="targetPoint" />
          </mxGeometry>
        </mxCell>
      </root>
    </mxGraphModel>
  </diagram>
</mxfile>
